<svg id="mermaid-0" width="100%" xmlns="http://www.w3.org/2000/svg" xmlns:xlink="http://www.w3.org/1999/xlink" class="flowchart" style="max-width: 1886.57373046875px;" viewBox="0 0 1886.57373046875 557.71484375" role="graphics-document document" aria-roledescription="flowchart-v2"><style>#mermaid-0{font-family:arial,sans-serif;font-size:16px;fill:#333;}@keyframes edge-animation-frame{from{stroke-dashoffset:0;}}@keyframes dash{to{stroke-dashoffset:0;}}#mermaid-0 .edge-animation-slow{stroke-dasharray:9,5!important;stroke-dashoffset:900;animation:dash 50s linear infinite;stroke-linecap:round;}#mermaid-0 .edge-animation-fast{stroke-dasharray:9,5!important;stroke-dashoffset:900;animation:dash 20s linear infinite;stroke-linecap:round;}#mermaid-0 .error-icon{fill:#552222;}#mermaid-0 .error-text{fill:#552222;stroke:#552222;}#mermaid-0 .edge-thickness-normal{stroke-width:1px;}#mermaid-0 .edge-thickness-thick{stroke-width:3.5px;}#mermaid-0 .edge-pattern-solid{stroke-dasharray:0;}#mermaid-0 .edge-thickness-invisible{stroke-width:0;fill:none;}#mermaid-0 .edge-pattern-dashed{stroke-dasharray:3;}#mermaid-0 .edge-pattern-dotted{stroke-dasharray:2;}#mermaid-0 .marker{fill:#333333;stroke:#333333;}#mermaid-0 .marker.cross{stroke:#333333;}#mermaid-0 svg{font-family:arial,sans-serif;font-size:16px;}#mermaid-0 p{margin:0;}#mermaid-0 .label{font-family:arial,sans-serif;color:#333;}#mermaid-0 .cluster-label text{fill:#333;}#mermaid-0 .cluster-label span{color:#333;}#mermaid-0 .cluster-label span p{background-color:transparent;}#mermaid-0 .label text,#mermaid-0 span{fill:#333;color:#333;}#mermaid-0 .node rect,#mermaid-0 .node circle,#mermaid-0 .node ellipse,#mermaid-0 .node polygon,#mermaid-0 .node path{fill:#ECECFF;stroke:#9370DB;stroke-width:1px;}#mermaid-0 .rough-node .label text,#mermaid-0 .node .label text,#mermaid-0 .image-shape .label,#mermaid-0 .icon-shape .label{text-anchor:middle;}#mermaid-0 .node .katex path{fill:#000;stroke:#000;stroke-width:1px;}#mermaid-0 .rough-node .label,#mermaid-0 .node .label,#mermaid-0 .image-shape .label,#mermaid-0 .icon-shape .label{text-align:center;}#mermaid-0 .node.clickable{cursor:pointer;}#mermaid-0 .root .anchor path{fill:#333333!important;stroke-width:0;stroke:#333333;}#mermaid-0 .arrowheadPath{fill:#333333;}#mermaid-0 .edgePath .path{stroke:#333333;stroke-width:1px;}#mermaid-0 .flowchart-link{stroke:#333333;fill:none;}#mermaid-0 .edgeLabel{background-color:rgba(232,232,232, 0.8);text-align:center;}#mermaid-0 .edgeLabel p{background-color:rgba(232,232,232, 0.8);}#mermaid-0 .edgeLabel rect{opacity:0.5;background-color:rgba(232,232,232, 0.8);fill:rgba(232,232,232, 0.8);}#mermaid-0 .labelBkg{background-color:rgba(232, 232, 232, 0.5);}#mermaid-0 .cluster rect{fill:#ffffde;stroke:#aaaa33;stroke-width:1px;}#mermaid-0 .cluster text{fill:#333;}#mermaid-0 .cluster span{color:#333;}#mermaid-0 div.mermaidTooltip{position:absolute;text-align:center;max-width:200px;padding:2px;font-family:arial,sans-serif;font-size:12px;background:hsl(80, 100%, 96.2745098039%);border:1px solid #aaaa33;border-radius:2px;pointer-events:none;z-index:100;}#mermaid-0 .flowchartTitleText{text-anchor:middle;font-size:18px;fill:#333;}#mermaid-0 rect.text{fill:none;stroke-width:0;}#mermaid-0 .icon-shape,#mermaid-0 .image-shape{background-color:rgba(232,232,232, 0.8);text-align:center;}#mermaid-0 .icon-shape p,#mermaid-0 .image-shape p{background-color:rgba(232,232,232, 0.8);padding:2px;}#mermaid-0 .icon-shape .label rect,#mermaid-0 .image-shape .label rect{opacity:0.5;background-color:rgba(232,232,232, 0.8);fill:rgba(232,232,232, 0.8);}#mermaid-0 .label-icon{display:inline-block;height:1em;overflow:visible;vertical-align:-0.125em;}#mermaid-0 .node .label-icon path{fill:currentColor;stroke:revert;stroke-width:revert;}#mermaid-0 .node .neo-node{stroke:#9370DB;}#mermaid-0 [data-look="neo"].node rect,#mermaid-0 [data-look="neo"].cluster rect,#mermaid-0 [data-look="neo"].node polygon{stroke:#9370DB;filter:drop-shadow(1px 2px 2px rgba(185, 185, 185, 1));}#mermaid-0 [data-look="neo"].node path{stroke:#9370DB;stroke-width:1px;}#mermaid-0 [data-look="neo"].node .outer-path{filter:drop-shadow(1px 2px 2px rgba(185, 185, 185, 1));}#mermaid-0 [data-look="neo"].node .neo-line path{stroke:#9370DB;filter:none;}#mermaid-0 [data-look="neo"].node circle{stroke:#9370DB;filter:drop-shadow(1px 2px 2px rgba(185, 185, 185, 1));}#mermaid-0 [data-look="neo"].node circle .state-start{fill:#000000;}#mermaid-0 [data-look="neo"].icon-shape .icon{fill:#9370DB;filter:drop-shadow(1px 2px 2px rgba(185, 185, 185, 1));}#mermaid-0 [data-look="neo"].icon-shape .icon-neo path{stroke:#9370DB;filter:drop-shadow(1px 2px 2px rgba(185, 185, 185, 1));}#mermaid-0 :root{--mermaid-font-family:arial,sans-serif;}</style><g><marker id="mermaid-0_flowchart-v2-pointEnd" class="marker flowchart-v2" viewBox="0 0 10 10" refX="5" refY="5" markerUnits="userSpaceOnUse" markerWidth="8" markerHeight="8" orient="auto"><path d="M 0 0 L 10 5 L 0 10 z" class="arrowMarkerPath" style="stroke-width: 1; stroke-dasharray: 1, 0;"/></marker><marker id="mermaid-0_flowchart-v2-pointStart" class="marker flowchart-v2" viewBox="0 0 10 10" refX="4.5" refY="5" markerUnits="userSpaceOnUse" markerWidth="8" markerHeight="8" orient="auto"><path d="M 0 5 L 10 10 L 10 0 z" class="arrowMarkerPath" style="stroke-width: 1; stroke-dasharray: 1, 0;"/></marker><marker id="mermaid-0_flowchart-v2-pointEnd-margin" class="marker flowchart-v2" viewBox="0 0 11.5 14" refX="11.5" refY="7" markerUnits="userSpaceOnUse" markerWidth="10.5" markerHeight="14" orient="auto"><path d="M 0 0 L 11.5 7 L 0 14 z" class="arrowMarkerPath" style="stroke-width: 0; stroke-dasharray: 1, 0;"/></marker><marker id="mermaid-0_flowchart-v2-pointStart-margin" class="marker flowchart-v2" viewBox="0 0 11.5 14" refX="1" refY="7" markerUnits="userSpaceOnUse" markerWidth="11.5" markerHeight="14" orient="auto"><polygon points="0,7 11.5,14 11.5,0" class="arrowMarkerPath" style="stroke-width: 0; stroke-dasharray: 1, 0;"/></marker><marker id="mermaid-0_flowchart-v2-circleEnd" class="marker flowchart-v2" viewBox="0 0 10 10" refX="11" refY="5" markerUnits="userSpaceOnUse" markerWidth="11" markerHeight="11" orient="auto"><circle cx="5" cy="5" r="5" class="arrowMarkerPath" style="stroke-width: 1; stroke-dasharray: 1, 0;"/></marker><marker id="mermaid-0_flowchart-v2-circleStart" class="marker flowchart-v2" viewBox="0 0 10 10" refX="-1" refY="5" markerUnits="userSpaceOnUse" markerWidth="11" markerHeight="11" orient="auto"><circle cx="5" cy="5" r="5" class="arrowMarkerPath" style="stroke-width: 1; stroke-dasharray: 1, 0;"/></marker><marker id="mermaid-0_flowchart-v2-circleEnd-margin" class="marker flowchart-v2" viewBox="0 0 10 10" refY="5" refX="12.25" markerUnits="userSpaceOnUse" markerWidth="14" markerHeight="14" orient="auto"><circle cx="5" cy="5" r="5" class="arrowMarkerPath" style="stroke-width: 0; stroke-dasharray: 1, 0;"/></marker><marker id="mermaid-0_flowchart-v2-circleStart-margin" class="marker flowchart-v2" viewBox="0 0 10 10" refX="-2" refY="5" markerUnits="userSpaceOnUse" markerWidth="14" markerHeight="14" orient="auto"><circle cx="5" cy="5" r="5" class="arrowMarkerPath" style="stroke-width: 0; stroke-dasharray: 1, 0;"/></marker><marker id="mermaid-0_flowchart-v2-crossEnd" class="marker cross flowchart-v2" viewBox="0 0 11 11" refX="12" refY="5.2" markerUnits="userSpaceOnUse" markerWidth="11" markerHeight="11" orient="auto"><path d="M 1,1 l 9,9 M 10,1 l -9,9" class="arrowMarkerPath" style="stroke-width: 2; stroke-dasharray: 1, 0;"/></marker><marker id="mermaid-0_flowchart-v2-crossStart" class="marker cross flowchart-v2" viewBox="0 0 11 11" refX="-1" refY="5.2" markerUnits="userSpaceOnUse" markerWidth="11" markerHeight="11" orient="auto"><path d="M 1,1 l 9,9 M 10,1 l -9,9" class="arrowMarkerPath" style="stroke-width: 2; stroke-dasharray: 1, 0;"/></marker><marker id="mermaid-0_flowchart-v2-crossEnd-margin" class="marker cross flowchart-v2" viewBox="0 0 15 15" refX="17.7" refY="7.5" markerUnits="userSpaceOnUse" markerWidth="12" markerHeight="12" orient="auto"><path d="M 1,1 L 14,14 M 1,14 L 14,1" class="arrowMarkerPath" style="stroke-width: 2.5;"/></marker><marker id="mermaid-0_flowchart-v2-crossStart-margin" class="marker cross flowchart-v2" viewBox="0 0 15 15" refX="-3.5" refY="7.5" markerUnits="userSpaceOnUse" markerWidth="12" markerHeight="12" orient="auto"><path d="M 1,1 L 14,14 M 1,14 L 14,1" class="arrowMarkerPath" style="stroke-width: 2.5; stroke-dasharray: 1, 0;"/></marker><g class="root"><g class="clusters"/><g class="edgePaths"><path d="M88.204,173.336L98.696,163.257C109.187,153.177,130.169,133.018,144.161,122.939C158.152,112.859,165.152,112.859,168.652,112.859L172.152,112.859" id="mermaid-0-L_A_B_0" class="edge-thickness-normal edge-pattern-solid edge-thickness-normal edge-pattern-solid flowchart-link" style=";" data-edge="true" data-et="edge" data-id="L_A_B_0" data-points="W3sieCI6ODguMjA0Mzk3MTEwOTc5ODEsInkiOjE3My4zMzU5Mzc1fSx7IngiOjE1MS4xNTE4NDAyMDk5NjA5NCwieSI6MTEyLjg1OTM3NX0seyJ4IjoxNzYuMTUxODQwMjA5OTYwOTQsInkiOjExMi44NTkzNzV9XQ==" data-look="classic" marker-end="url(#mermaid-0_flowchart-v2-pointEnd)"/><path d="M357.121,112.859L361.287,112.859C365.454,112.859,373.787,112.859,381.454,112.859C389.121,112.859,396.121,112.859,399.621,112.859L403.121,112.859" id="mermaid-0-L_B_C_0" class="edge-thickness-normal edge-pattern-solid edge-thickness-normal edge-pattern-solid flowchart-link" style=";" data-edge="true" data-et="edge" data-id="L_B_C_0" data-points="W3sieCI6MzU3LjEyMDU5MDIwOTk2MDk0LCJ5IjoxMTIuODU5Mzc1fSx7IngiOjM4Mi4xMjA1OTAyMDk5NjA5NCwieSI6MTEyLjg1OTM3NX0seyJ4Ijo0MDcuMTIwNTkwMjA5OTYwOTQsInkiOjExMi44NTkzNzV9XQ==" data-look="classic" marker-end="url(#mermaid-0_flowchart-v2-pointEnd)"/><path d="M526.575,82.267L538.016,74.389C549.457,66.511,572.34,50.756,589.457,42.878C606.574,35,617.925,35,623.601,35L629.277,35" id="mermaid-0-L_C_D_0" class="edge-thickness-normal edge-pattern-solid edge-thickness-normal edge-pattern-solid flowchart-link" style=";" data-edge="true" data-et="edge" data-id="L_C_D_0" data-points="W3sieCI6NTI2LjU3NDg0NzQ0NzA3MjIsInkiOjgyLjI2Njc1NzIzNzExMTI5fSx7IngiOjU5NS4yMjIxNTI3MDk5NjA5LCJ5IjozNX0seyJ4Ijo2MzMuMjc2ODQwMjA5OTYwOSwieSI6MzV9XQ==" data-look="classic" marker-end="url(#mermaid-0_flowchart-v2-pointEnd)"/><path d="M526.575,143.452L538.016,151.33C549.457,159.208,572.34,174.963,596.084,182.841C619.829,190.719,644.436,190.719,656.739,190.719L669.042,190.719" id="mermaid-0-L_C_E_0" class="edge-thickness-normal edge-pattern-solid edge-thickness-normal edge-pattern-solid flowchart-link" style=";" data-edge="true" data-et="edge" data-id="L_C_E_0" data-points="W3sieCI6NTI2LjU3NDg0NzQ0NzA3MjIsInkiOjE0My40NTE5OTI3NjI4ODg3fSx7IngiOjU5NS4yMjIxNTI3MDk5NjA5LCJ5IjoxOTAuNzE4NzV9LHsieCI6NjczLjA0MjQ2NTIwOTk2MDksInkiOjE5MC43MTg3NX1d" data-look="classic" marker-end="url(#mermaid-0_flowchart-v2-pointEnd)"/><path d="M798.612,158.851L816.894,146.416C835.175,133.981,871.738,109.112,895.695,96.677C919.652,84.242,931.003,84.242,936.679,84.242L942.355,84.242" id="mermaid-0-L_E_F_0" class="edge-thickness-normal edge-pattern-solid edge-thickness-normal edge-pattern-solid flowchart-link" style=";" data-edge="true" data-et="edge" data-id="L_E_F_0" data-points="W3sieCI6Nzk4LjYxMjI2OTUwMDY0LCJ5IjoxNTguODUxMDU0MjkwNjc5MDN9LHsieCI6OTA4LjMwMDI3NzcwOTk2MDksInkiOjg0LjI0MjE4NzV9LHsieCI6OTQ2LjM1NDk2NTIwOTk2MDksInkiOjg0LjI0MjE4NzV9XQ==" data-look="classic" marker-end="url(#mermaid-0_flowchart-v2-pointEnd)"/><path d="M798.612,222.586L816.894,235.021C835.175,247.456,871.738,272.326,896.703,284.761C921.667,297.195,935.035,297.195,941.718,297.195L948.402,297.195" id="mermaid-0-L_E_G_0" class="edge-thickness-normal edge-pattern-solid edge-thickness-normal edge-pattern-solid flowchart-link" style=";" data-edge="true" data-et="edge" data-id="L_E_G_0" data-points="W3sieCI6Nzk4LjYxMjI2OTUwMDY0LCJ5IjoyMjIuNTg2NDQ1NzA5MzIwOTd9LHsieCI6OTA4LjMwMDI3NzcwOTk2MDksInkiOjI5Ny4xOTUzMTI1fSx7IngiOjk1Mi40MDE4NDAyMDk5NjA4LCJ5IjoyOTcuMTk1MzEyNX1d" data-look="classic" marker-end="url(#mermaid-0_flowchart-v2-pointEnd)"/><path d="M1185.96,282.847L1195.701,281.572C1205.443,280.296,1224.926,277.746,1240.344,276.471C1255.761,275.195,1267.113,275.195,1272.789,275.195L1278.464,275.195" id="mermaid-0-L_G_H_0" class="edge-thickness-normal edge-pattern-solid edge-thickness-normal edge-pattern-solid flowchart-link" style=";" data-edge="true" data-et="edge" data-id="L_G_H_0" data-points="W3sieCI6MTE4NS45NTk3NTI5NzE1MDE1LCJ5IjoyODIuODQ2OTc1MjYxNTQwNjV9LHsieCI6MTI0NC40MDk2NTI3MDk5NjEsInkiOjI3NS4xOTUzMTI1fSx7IngiOjEyODIuNDY0MzQwMjA5OTYxLCJ5IjoyNzUuMTk1MzEyNX1d" data-look="classic" marker-end="url(#mermaid-0_flowchart-v2-pointEnd)"/><path d="M1157.916,339.587L1172.332,347.08C1186.747,354.573,1215.578,369.558,1247.704,385.426C1279.829,401.294,1315.248,418.044,1332.958,426.419L1350.668,434.795" id="mermaid-0-L_G_I_0" class="edge-thickness-normal edge-pattern-solid edge-thickness-normal edge-pattern-solid flowchart-link" style=";" data-edge="true" data-et="edge" data-id="L_G_I_0" data-points="W3sieCI6MTE1Ny45MTYwOTQ5MTg3NTM1LCJ5IjozMzkuNTg3MzA3NzkxMjA3Mn0seyJ4IjoxMjQ0LjQwOTY1MjcwOTk2MSwieSI6Mzg0LjU0Mjk2ODc1fSx7IngiOjEzNTQuMjgzODExNjQwNzMwNCwieSI6NDM2LjUwNDc0NzMxOTIzMDU1fV0=" data-look="classic" marker-end="url(#mermaid-0_flowchart-v2-pointEnd)"/><path d="M1498.16,464.02L1511.886,464.02C1525.613,464.02,1553.066,464.02,1572.468,464.02C1591.871,464.02,1603.222,464.02,1608.898,464.02L1614.574,464.02" id="mermaid-0-L_I_J_0" class="edge-thickness-normal edge-pattern-solid edge-thickness-normal edge-pattern-solid flowchart-link" style=";" data-edge="true" data-et="edge" data-id="L_I_J_0" data-points="W3sieCI6MTQ5OC4xNTk2NTI3MDk5NjEsInkiOjQ2NC4wMTk1MzEyNX0seyJ4IjoxNTgwLjUxOTAyNzcwOTk2MSwieSI6NDY0LjAxOTUzMTI1fSx7IngiOjE2MTguNTczNzE1MjA5OTYxLCJ5Ijo0NjQuMDE5NTMxMjV9XQ==" data-look="classic" marker-end="url(#mermaid-0_flowchart-v2-pointEnd)"/><path d="M1334.219,471.469L1319.25,472.894C1304.282,474.319,1274.346,477.169,1231.369,478.594C1188.391,480.02,1132.373,480.02,1076.355,480.02C1020.337,480.02,964.319,480.02,910.22,480.02C856.121,480.02,803.941,480.02,751.761,480.02C699.582,480.02,647.402,480.02,602.466,480.02C557.529,480.02,519.837,480.02,484.32,480.02C448.803,480.02,415.462,480.02,379.544,480.02C343.626,480.02,305.131,480.02,266.636,480.02C228.141,480.02,189.647,480.02,157.606,436.046C125.565,392.072,99.979,304.124,87.185,260.151L74.392,216.177" id="mermaid-0-L_I_A_0" class="edge-thickness-normal edge-pattern-solid edge-thickness-normal edge-pattern-solid flowchart-link" style=";" data-edge="true" data-et="edge" data-id="L_I_A_0" data-points="W3sieCI6MTMzNC4yMTg1Nzk4OTgwODQzLCJ5Ijo0NzEuNDY5MDgzNDM4MTIzNDV9LHsieCI6MTI0NC40MDk2NTI3MDk5NjEsInkiOjQ4MC4wMTk1MzEyNX0seyJ4IjoxMDc2LjM1NDk2NTIwOTk2MSwieSI6NDgwLjAxOTUzMTI1fSx7IngiOjkwOC4zMDAyNzc3MDk5NjA5LCJ5Ijo0ODAuMDE5NTMxMjV9LHsieCI6NzUxLjc2MTIxNTIwOTk2MDksInkiOjQ4MC4wMTk1MzEyNX0seyJ4Ijo1OTUuMjIyMTUyNzA5OTYwOSwieSI6NDgwLjAxOTUzMTI1fSx7IngiOjQ4Mi4xNDQwMjc3MDk5NjA5NCwieSI6NDgwLjAxOTUzMTI1fSx7IngiOjM4Mi4xMjA1OTAyMDk5NjA5NCwieSI6NDgwLjAxOTUzMTI1fSx7IngiOjI2Ni42MzYyMTUyMDk5NjA5NCwieSI6NDgwLjAxOTUzMTI1fSx7IngiOjE1MS4xNTE4NDAyMDk5NjA5NCwieSI6NDgwLjAxOTUzMTI1fSx7IngiOjczLjI3NDgyMTUyODg1NDY2LCJ5IjoyMTIuMzM1OTM3NX1d" data-look="classic" marker-end="url(#mermaid-0_flowchart-v2-pointEnd)"/></g><g class="edgeLabels"><g class="edgeLabel"><g class="label" data-id="L_A_B_0" transform="translate(0, 0)"><foreignObject width="0" height="0"><div xmlns="http://www.w3.org/1999/xhtml" class="labelBkg" style="display: table-cell; white-space: nowrap; line-height: 1.5; max-width: 200px; text-align: center;"><span class="edgeLabel"></span></div></foreignObject></g></g><g class="edgeLabel"><g class="label" data-id="L_B_C_0" transform="translate(0, 0)"><foreignObject width="0" height="0"><div xmlns="http://www.w3.org/1999/xhtml" class="labelBkg" style="display: table-cell; white-space: nowrap; line-height: 1.5; max-width: 200px; text-align: center;"><span class="edgeLabel"></span></div></foreignObject></g></g><g class="edgeLabel" transform="translate(595.2221527099609, 35)"><g class="label" data-id="L_C_D_0" transform="translate(-13.0546875, -12)"><foreignObject width="26.109375" height="24"><div xmlns="http://www.w3.org/1999/xhtml" class="labelBkg" style="display: table-cell; white-space: nowrap; line-height: 1.5; max-width: 200px; text-align: center;"><span class="edgeLabel"><p>Yes</p></span></div></foreignObject></g></g><g class="edgeLabel" transform="translate(595.2221527099609, 190.71875)"><g class="label" data-id="L_C_E_0" transform="translate(-10.2265625, -12)"><foreignObject width="20.453125" height="24"><div xmlns="http://www.w3.org/1999/xhtml" class="labelBkg" style="display: table-cell; white-space: nowrap; line-height: 1.5; max-width: 200px; text-align: center;"><span class="edgeLabel"><p>No</p></span></div></foreignObject></g></g><g class="edgeLabel" transform="translate(908.3002777099609, 84.2421875)"><g class="label" data-id="L_E_F_0" transform="translate(-13.0546875, -12)"><foreignObject width="26.109375" height="24"><div xmlns="http://www.w3.org/1999/xhtml" class="labelBkg" style="display: table-cell; white-space: nowrap; line-height: 1.5; max-width: 200px; text-align: center;"><span class="edgeLabel"><p>Yes</p></span></div></foreignObject></g></g><g class="edgeLabel" transform="translate(908.3002777099609, 297.1953125)"><g class="label" data-id="L_E_G_0" transform="translate(-10.2265625, -12)"><foreignObject width="20.453125" height="24"><div xmlns="http://www.w3.org/1999/xhtml" class="labelBkg" style="display: table-cell; white-space: nowrap; line-height: 1.5; max-width: 200px; text-align: center;"><span class="edgeLabel"><p>No</p></span></div></foreignObject></g></g><g class="edgeLabel" transform="translate(1244.409652709961, 275.1953125)"><g class="label" data-id="L_G_H_0" transform="translate(-13.0546875, -12)"><foreignObject width="26.109375" height="24"><div xmlns="http://www.w3.org/1999/xhtml" class="labelBkg" style="display: table-cell; white-space: nowrap; line-height: 1.5; max-width: 200px; text-align: center;"><span class="edgeLabel"><p>Yes</p></span></div></foreignObject></g></g><g class="edgeLabel" transform="translate(1244.409652709961, 384.54296875)"><g class="label" data-id="L_G_I_0" transform="translate(-10.2265625, -12)"><foreignObject width="20.453125" height="24"><div xmlns="http://www.w3.org/1999/xhtml" class="labelBkg" style="display: table-cell; white-space: nowrap; line-height: 1.5; max-width: 200px; text-align: center;"><span class="edgeLabel"><p>No</p></span></div></foreignObject></g></g><g class="edgeLabel" transform="translate(1580.519027709961, 464.01953125)"><g class="label" data-id="L_I_J_0" transform="translate(-13.0546875, -12)"><foreignObject width="26.109375" height="24"><div xmlns="http://www.w3.org/1999/xhtml" class="labelBkg" style="display: table-cell; white-space: nowrap; line-height: 1.5; max-width: 200px; text-align: center;"><span class="edgeLabel"><p>Yes</p></span></div></foreignObject></g></g><g class="edgeLabel" transform="translate(595.2221527099609, 480.01953125)"><g class="label" data-id="L_I_A_0" transform="translate(-10.2265625, -12)"><foreignObject width="20.453125" height="24"><div xmlns="http://www.w3.org/1999/xhtml" class="labelBkg" style="display: table-cell; white-space: nowrap; line-height: 1.5; max-width: 200px; text-align: center;"><span class="edgeLabel"><p>No</p></span></div></foreignObject></g></g></g><g class="nodes"><g class="node default" id="mermaid-0-flowchart-A-0" data-look="classic" transform="translate(67.07592010498047, 192.3359375)"><g class="basic label-container outer-path"><path d="M-39.5859375 -19.5 C-17.252543793877866 -19.5, 5.080849912244268 -19.5, 39.5859375 -19.5 C39.5859375 -19.5, 39.5859375 -19.5, 39.5859375 -19.5 C39.9365873120571 -19.488755343025783, 40.2872371241142 -19.477510686051566, 40.8353067896239 -19.45993515863156 C41.13823202246421 -19.43071232574035, 41.44115725530452 -19.401489492849137, 42.079542152847864 -19.3399052695533 C42.36243438780347 -19.294169446867723, 42.64532662275907 -19.24843362418215, 43.31353075967676 -19.140403561325776 C43.78214715375419 -19.03344492738536, 44.25076354783161 -18.926486293444945, 44.53220188623539 -18.862249829261074 C44.86258388305492 -18.76419418681553, 45.19296587987445 -18.666138544369986, 45.730547751460605 -18.50658706670804 C46.008719393004405 -18.404217331229457, 46.2868910345482 -18.30184759575087, 46.9036440951478 -18.074876768247425 C47.34135301841553 -17.88111601209068, 47.77906194168326 -17.687355255933934, 48.04667041279238 -17.568892924097174 C48.47675195155805 -17.3445196608035, 48.90683349032371 -17.120146397509824, 49.15492976407678 -16.990714730406097 C49.57003121967109 -16.739077788617905, 49.98513267526539 -16.487440846829717, 50.2238680736057 -16.342718045390892 C50.56890711031278 -16.102033749883198, 50.913946147019864 -15.861349454375503, 51.24909284457871 -15.627565626425154 C51.595910061568524 -15.35098812506952, 51.942727278558344 -15.074410623713886, 52.226391208501866 -14.848196188198123 C52.47899748890459 -14.6187858479323, 52.73160376930732 -14.389375507666475, 53.15174723676799 -14.007812326905688 C53.44332107766916 -13.70673839751769, 53.73489491857033 -13.40566446812969, 54.02135844296865 -13.10986736009568 C54.331412016481096 -12.745660790099839, 54.64146558999354 -12.381454220103997, 54.83165140812658 -12.158051136245305 C55.09484044655417 -11.805401801766985, 55.35802948498177 -11.452752467288663, 55.579296464640635 -11.156274872382312 C55.754854714494115 -10.886570256616498, 55.930412964347596 -10.616865640850683, 56.26122137860425 -10.108655082055241 C56.433508678924106 -9.802741534356404, 56.60579597924396 -9.496827986657568, 56.874623974273504 -9.019496659696287 C57.08714105357319 -8.578200397393418, 57.299658132872885 -8.13690413509055, 57.41698364880834 -7.893275190886684 C57.60228254934776 -7.435583324043779, 57.78758144988719 -6.977891457200872, 57.886071729970325 -6.734618561215508 C57.99884946718548 -6.3949499854156855, 58.11162720440064 -6.055281409615862, 58.27996063421488 -5.548287939305138 C58.39770517763321 -5.0992769644431215, 58.515449721051546 -4.650265989581105, 58.59703178754556 -4.339158212148133 C58.67827623632221 -3.921985138700338, 58.75952068509887 -3.5048120652525427, 58.835982276581774 -3.1121979531509023 C58.869687996148315 -2.8507830481399594, 58.90339371571486 -2.5893681431290165, 58.99583020250937 -1.872449005199798 C59.01397811213784 -1.5897806640073022, 59.03212602176632 -1.3071123228148065, 59.07591871591342 -0.6250057626472757 C59.07591871591342 -0.185004342298961, 59.07591871591342 0.2549970780493537, 59.07591871591342 0.625005762647271 C59.05455599024356 0.9577474586371089, 59.0331932645737 1.2904891546269466, 58.99583020250937 1.8724490051997846 C58.94079825374048 2.2992659325638085, 58.88576630497159 2.7260828599278324, 58.835982276581774 3.1121979531508885 C58.756698033255724 3.519305785899387, 58.67741378992968 3.9264136186478855, 58.59703178754556 4.339158212148129 C58.50387784175812 4.694394580611145, 58.410723895970676 5.049630949074161, 58.27996063421489 5.548287939305125 C58.19190207591068 5.81350628669147, 58.10384351760647 6.078724634077814, 57.886071729970325 6.734618561215495 C57.746010172077604 7.080573317116515, 57.60594861418489 7.4265280730175345, 57.41698364880834 7.893275190886679 C57.290957749691536 8.154970666924996, 57.16493185057473 8.416666142963312, 56.874623974273504 9.019496659696284 C56.64092162352467 9.434458848379984, 56.40721927277584 9.849421037063685, 56.26122137860425 10.108655082055236 C56.010417389524235 10.493957359583131, 55.75961340044423 10.879259637111026, 55.57929646464064 11.156274872382301 C55.348923332165654 11.464953882474667, 55.11855019969067 11.773632892567033, 54.83165140812658 12.158051136245302 C54.51236893750272 12.533098493927339, 54.19308646687885 12.908145851609378, 54.02135844296866 13.10986736009567 C53.779037293351166 13.360083842012111, 53.53671614373367 13.610300323928552, 53.15174723676799 14.007812326905684 C52.93445631011389 14.205150197290068, 52.71716538345978 14.402488067674454, 52.22639120850189 14.848196188198111 C51.99265559690768 15.03459411847864, 51.75891998531348 15.22099204875917, 51.24909284457871 15.627565626425152 C50.92009853105815 15.857057817602806, 50.591104217537584 16.08655000878046, 50.22386807360571 16.34271804539089 C49.84398482181478 16.573005505068334, 49.46410157002384 16.80329296474578, 49.15492976407678 16.990714730406093 C48.73392174954974 17.21035434191635, 48.3129137350227 17.429993953426607, 48.04667041279239 17.56889292409717 C47.76487450489826 17.693635613343293, 47.48307859700414 17.81837830258942, 46.903644095147804 18.07487676824742 C46.64238823084598 18.171021341333226, 46.381132366544165 18.26716591441903, 45.73054775146062 18.506587066708033 C45.31104931750225 18.631091999914663, 44.89155088354388 18.755596933121296, 44.53220188623541 18.86224982926107 C44.20725572831844 18.93641666933377, 43.88230957040146 19.010583509406473, 43.313530759676766 19.140403561325773 C42.9303721024262 19.20234968159028, 42.54721344517562 19.264295801854786, 42.07954215284788 19.3399052695533 C41.77609428553794 19.369178520363235, 41.472646418227995 19.39845177117317, 40.8353067896239 19.45993515863156 C40.36913668815161 19.47488432644072, 39.90296658667933 19.489833494249876, 39.58593750000001 19.5 C39.58593750000001 19.5, 39.5859375 19.5, 39.5859375 19.5 C8.547628543185777 19.5, -22.490680413628446 19.5, -39.58593749999999 19.5 C-39.99178021971572 19.48698541390365, -40.39762293943145 19.473970827807296, -40.83530678962389 19.45993515863156 C-41.320321159357626 19.413146405698466, -41.80533552909136 19.366357652765377, -42.07954215284787 19.3399052695533 C-42.50594516662999 19.270967737089762, -42.93234818041211 19.20203020462623, -43.31353075967676 19.140403561325773 C-43.563839240609525 19.08327228396836, -43.81414772154229 19.026141006610942, -44.532201886235384 18.862249829261074 C-44.78138238785754 18.788294364354762, -45.03056288947969 18.714338899448453, -45.73054775146059 18.506587066708043 C-46.01306179509882 18.402619287117982, -46.29557583873705 18.298651507527925, -46.9036440951478 18.074876768247425 C-47.2050102882655 17.941470894264707, -47.5063764813832 17.808065020281994, -48.04667041279238 17.568892924097174 C-48.411980569807895 17.378310849174504, -48.777290726823416 17.18772877425183, -49.15492976407678 16.990714730406097 C-49.537627752816576 16.75872096064902, -49.920325741556375 16.526727190891936, -50.223868073605686 16.3427180453909 C-50.470938898217845 16.170372133665072, -50.71800972283001 15.998026221939245, -51.24909284457871 15.627565626425156 C-51.550292598584555 15.38736683786757, -51.8514923525904 15.147168049309983, -52.226391208501866 14.848196188198125 C-52.50431002695407 14.59579767060882, -52.78222884540628 14.343399153019512, -53.151747236767974 14.007812326905697 C-53.355439748231795 13.797483085353095, -53.559132259695616 13.587153843800495, -54.021358442968655 13.109867360095677 C-54.276558103136715 12.81009531799024, -54.53175776330477 12.510323275884804, -54.831651408126575 12.158051136245307 C-55.02912027878763 11.8934608393437, -55.22658914944868 11.628870542442094, -55.579296464640635 11.156274872382316 C-55.82865479285079 10.773193518164813, -56.078013121060955 10.390112163947311, -56.26122137860425 10.108655082055249 C-56.430377837129036 9.808300660995656, -56.59953429565383 9.507946239936063, -56.874623974273504 9.019496659696289 C-57.07514791794872 8.60310440012964, -57.275671861623934 8.18671214056299, -57.41698364880834 7.893275190886686 C-57.559192825191474 7.542015775792972, -57.7014020015746 7.190756360699259, -57.886071729970325 6.73461856121551 C-57.98011180618631 6.451384834904357, -58.07415188240228 6.168151108593205, -58.27996063421488 5.5482879393051325 C-58.34546869772548 5.298477301764914, -58.41097676123607 5.048666664224696, -58.59703178754556 4.339158212148136 C-58.67584949535565 3.934445940671779, -58.75466720316573 3.5297336691954215, -58.835982276581774 3.112197953150904 C-58.88302482561988 2.74734523241342, -58.93006737465798 2.382492511675937, -58.99583020250937 1.872449005199809 C-59.026974662285575 1.387348904829931, -59.05811912206178 0.902248804460053, -59.07591871591342 0.6250057626472781 C-59.07591871591342 0.22897790351889818, -59.07591871591342 -0.16704995560948177, -59.07591871591342 -0.6250057626472687 C-59.04848061774065 -1.0523762893222601, -59.02104251956789 -1.4797468159972518, -58.99583020250937 -1.8724490051997822 C-58.938095744913134 -2.320226057357992, -58.880361287316894 -2.7680031095162025, -58.835982276581774 -3.112197953150895 C-58.762356268939506 -3.490251941531719, -58.68873026129724 -3.8683059299125424, -58.59703178754556 -4.339158212148126 C-58.492290768609685 -4.7385811123953765, -58.387549749673816 -5.138004012642627, -58.27996063421489 -5.548287939305123 C-58.14218150001824 -5.963256739381545, -58.00440236582159 -6.378225539457966, -57.88607172997033 -6.734618561215485 C-57.742390511191275 -7.089513949487142, -57.59870929241222 -7.4444093377588, -57.41698364880834 -7.893275190886676 C-57.236198863509586 -8.268678665734283, -57.05541407821083 -8.644082140581892, -56.874623974273504 -9.019496659696282 C-56.72082275762576 -9.292586293916331, -56.56702154097802 -9.56567592813638, -56.26122137860425 -10.108655082055243 C-56.04368270031547 -10.44285290922112, -55.826144022026696 -10.777050736386997, -55.57929646464064 -11.156274872382308 C-55.321474974884524 -11.501732180634598, -55.063653485128405 -11.847189488886887, -54.83165140812659 -12.158051136245302 C-54.63204523963532 -12.39251989966789, -54.432439071144046 -12.62698866309048, -54.02135844296866 -13.10986736009567 C-53.7217262737279 -13.41926217509535, -53.422094104487144 -13.728656990095029, -53.151747236767996 -14.007812326905677 C-52.959900327881044 -14.182042613565754, -52.76805341899409 -14.356272900225829, -52.22639120850189 -14.848196188198107 C-51.8615512065788 -15.139146380931573, -51.496711204655725 -15.430096573665038, -51.24909284457872 -15.627565626425149 C-50.90928678273047 -15.864599625203153, -50.569480720882225 -16.101633623981158, -50.223868073605715 -16.342718045390885 C-49.82094517993448 -16.586972271372133, -49.41802228626325 -16.831226497353384, -49.15492976407679 -16.99071473040609 C-48.91088368947896 -17.118033411204806, -48.666837614881125 -17.245352092003525, -48.04667041279239 -17.56889292409717 C-47.64334560571547 -17.747432851984808, -47.240020798638554 -17.92597277987245, -46.903644095147804 -18.07487676824742 C-46.54814539749387 -18.205703575178006, -46.19264669983994 -18.33653038210859, -45.73054775146062 -18.506587066708033 C-45.34183652030032 -18.62195451972952, -44.95312528914002 -18.73732197275101, -44.53220188623541 -18.862249829261067 C-44.27615058107083 -18.920691868773964, -44.02009927590625 -18.97913390828686, -43.313530759676766 -19.140403561325773 C-42.83959480452611 -19.217025851126305, -42.36565884937546 -19.29364814092684, -42.07954215284788 -19.3399052695533 C-41.605247883696116 -19.385659867276054, -41.130953614544346 -19.431414464998813, -40.8353067896239 -19.45993515863156 C-40.42393644364141 -19.473127004943414, -40.01256609765892 -19.48631885125527, -39.58593750000001 -19.5 C-39.58593750000001 -19.5, -39.5859375 -19.5, -39.5859375 -19.5" stroke="none" stroke-width="0" fill="#ECECFF" style=""/><path d="M-39.5859375 -19.5 C-16.504295975395 -19.5, 6.577345549210001 -19.5, 39.5859375 -19.5 M-39.5859375 -19.5 C-14.584359086316216 -19.5, 10.417219327367569 -19.5, 39.5859375 -19.5 M39.5859375 -19.5 C39.5859375 -19.5, 39.5859375 -19.5, 39.5859375 -19.5 M39.5859375 -19.5 C39.5859375 -19.5, 39.5859375 -19.5, 39.5859375 -19.5 M39.5859375 -19.5 C40.080041823220824 -19.484155036070028, 40.574146146441656 -19.46831007214006, 40.8353067896239 -19.45993515863156 M39.5859375 -19.5 C40.00572677760722 -19.486538174937397, 40.425516055214445 -19.473076349874795, 40.8353067896239 -19.45993515863156 M40.8353067896239 -19.45993515863156 C41.28498594607111 -19.416555151227406, 41.73466510251831 -19.373175143823254, 42.079542152847864 -19.3399052695533 M40.8353067896239 -19.45993515863156 C41.18407952882209 -19.426289471941697, 41.532852268020285 -19.392643785251835, 42.079542152847864 -19.3399052695533 M42.079542152847864 -19.3399052695533 C42.38528889734002 -19.290474507005225, 42.691035641832165 -19.24104374445715, 43.31353075967676 -19.140403561325776 M42.079542152847864 -19.3399052695533 C42.35797184729319 -19.29489091580991, 42.63640154173852 -19.249876562066518, 43.31353075967676 -19.140403561325776 M43.31353075967676 -19.140403561325776 C43.609505485029345 -19.072849261679632, 43.90548021038193 -19.005294962033485, 44.53220188623539 -18.862249829261074 M43.31353075967676 -19.140403561325776 C43.76772614411563 -19.03673642872948, 44.22192152855449 -18.933069296133183, 44.53220188623539 -18.862249829261074 M44.53220188623539 -18.862249829261074 C44.93563427633408 -18.742513213539613, 45.33906666643276 -18.622776597818156, 45.730547751460605 -18.50658706670804 M44.53220188623539 -18.862249829261074 C44.96123176749457 -18.734916012527155, 45.390261648753736 -18.607582195793235, 45.730547751460605 -18.50658706670804 M45.730547751460605 -18.50658706670804 C46.098999826403066 -18.37099329719557, 46.46745190134552 -18.2353995276831, 46.9036440951478 -18.074876768247425 M45.730547751460605 -18.50658706670804 C46.081407976500095 -18.377467260577138, 46.43226820153959 -18.24834745444624, 46.9036440951478 -18.074876768247425 M46.9036440951478 -18.074876768247425 C47.21045214502455 -17.939061945704424, 47.5172601949013 -17.80324712316142, 48.04667041279238 -17.568892924097174 M46.9036440951478 -18.074876768247425 C47.34364369248351 -17.880101998631215, 47.783643289819224 -17.685327229015005, 48.04667041279238 -17.568892924097174 M48.04667041279238 -17.568892924097174 C48.33914972497561 -17.41630665427312, 48.631629037158845 -17.263720384449073, 49.15492976407678 -16.990714730406097 M48.04667041279238 -17.568892924097174 C48.465627453154354 -17.350323304495127, 48.88458449351632 -17.13175368489308, 49.15492976407678 -16.990714730406097 M49.15492976407678 -16.990714730406097 C49.50124356835794 -16.780777267085043, 49.8475573726391 -16.57083980376399, 50.2238680736057 -16.342718045390892 M49.15492976407678 -16.990714730406097 C49.44699711986325 -16.813661782950042, 49.73906447564972 -16.636608835493988, 50.2238680736057 -16.342718045390892 M50.2238680736057 -16.342718045390892 C50.54641638937622 -16.117722303200928, 50.86896470514673 -15.892726561010964, 51.24909284457871 -15.627565626425154 M50.2238680736057 -16.342718045390892 C50.53541720191758 -16.12539486022492, 50.84696633022947 -15.908071675058945, 51.24909284457871 -15.627565626425154 M51.24909284457871 -15.627565626425154 C51.52678738066461 -15.406111623658605, 51.80448191675051 -15.184657620892054, 52.226391208501866 -14.848196188198123 M51.24909284457871 -15.627565626425154 C51.57626790053984 -15.36665222579004, 51.903442956500975 -15.105738825154926, 52.226391208501866 -14.848196188198123 M52.226391208501866 -14.848196188198123 C52.569490660961286 -14.536602343388537, 52.91259011342071 -14.22500849857895, 53.15174723676799 -14.007812326905688 M52.226391208501866 -14.848196188198123 C52.41662692248806 -14.67542914611704, 52.60686263647425 -14.502662104035954, 53.15174723676799 -14.007812326905688 M53.15174723676799 -14.007812326905688 C53.41144541099221 -13.739652640402547, 53.671143585216434 -13.471492953899403, 54.02135844296865 -13.10986736009568 M53.15174723676799 -14.007812326905688 C53.44775808885335 -13.702156819184625, 53.74376894093871 -13.39650131146356, 54.02135844296865 -13.10986736009568 M54.02135844296865 -13.10986736009568 C54.327091669122844 -12.750735715941566, 54.63282489527705 -12.391604071787452, 54.83165140812658 -12.158051136245305 M54.02135844296865 -13.10986736009568 C54.27319884437265 -12.814041294481749, 54.52503924577665 -12.518215228867819, 54.83165140812658 -12.158051136245305 M54.83165140812658 -12.158051136245305 C55.12187562068925 -11.769177131381014, 55.412099833251915 -11.380303126516724, 55.579296464640635 -11.156274872382312 M54.83165140812658 -12.158051136245305 C54.99882432301839 -11.93405466005613, 55.165997237910204 -11.710058183866957, 55.579296464640635 -11.156274872382312 M55.579296464640635 -11.156274872382312 C55.73060012797945 -10.923831814771447, 55.881903791318265 -10.691388757160581, 56.26122137860425 -10.108655082055241 M55.579296464640635 -11.156274872382312 C55.78721870690065 -10.836850473331248, 55.99514094916067 -10.517426074280184, 56.26122137860425 -10.108655082055241 M56.26122137860425 -10.108655082055241 C56.43656281517148 -9.797318606184366, 56.6119042517387 -9.485982130313488, 56.874623974273504 -9.019496659696287 M56.26122137860425 -10.108655082055241 C56.44591803828777 -9.780707460222322, 56.63061469797129 -9.452759838389403, 56.874623974273504 -9.019496659696287 M56.874623974273504 -9.019496659696287 C57.077310396273866 -8.598613967617837, 57.279996818274235 -8.177731275539387, 57.41698364880834 -7.893275190886684 M56.874623974273504 -9.019496659696287 C57.00593421235513 -8.74682814073078, 57.13724445043676 -8.474159621765272, 57.41698364880834 -7.893275190886684 M57.41698364880834 -7.893275190886684 C57.57820930766698 -7.495044696419781, 57.73943496652562 -7.096814201952879, 57.886071729970325 -6.734618561215508 M57.41698364880834 -7.893275190886684 C57.56351219604901 -7.531346846265489, 57.71004074328968 -7.169418501644293, 57.886071729970325 -6.734618561215508 M57.886071729970325 -6.734618561215508 C57.98059102538195 -6.449941503040296, 58.07511032079357 -6.165264444865083, 58.27996063421488 -5.548287939305138 M57.886071729970325 -6.734618561215508 C57.9981408232277 -6.39708430810944, 58.110209916485076 -6.059550055003372, 58.27996063421488 -5.548287939305138 M58.27996063421488 -5.548287939305138 C58.38955737409442 -5.130348070616906, 58.49915411397397 -4.712408201928674, 58.59703178754556 -4.339158212148133 M58.27996063421488 -5.548287939305138 C58.36321021402912 -5.2308212108773375, 58.446459793843346 -4.913354482449537, 58.59703178754556 -4.339158212148133 M58.59703178754556 -4.339158212148133 C58.6616182259771 -4.007520501150775, 58.72620466440864 -3.675882790153416, 58.835982276581774 -3.1121979531509023 M58.59703178754556 -4.339158212148133 C58.6542780339752 -4.045210835730381, 58.711524280404845 -3.7512634593126286, 58.835982276581774 -3.1121979531509023 M58.835982276581774 -3.1121979531509023 C58.88087067665309 -2.7640523864149773, 58.92575907672441 -2.4159068196790523, 58.99583020250937 -1.872449005199798 M58.835982276581774 -3.1121979531509023 C58.88018906308154 -2.769338846676146, 58.924395849581295 -2.4264797402013896, 58.99583020250937 -1.872449005199798 M58.99583020250937 -1.872449005199798 C59.02141354454257 -1.473967802530661, 59.046996886575776 -1.075486599861524, 59.07591871591342 -0.6250057626472757 M58.99583020250937 -1.872449005199798 C59.02768732942932 -1.3762485388115353, 59.05954445634927 -0.8800480724232729, 59.07591871591342 -0.6250057626472757 M59.07591871591342 -0.6250057626472757 C59.07591871591342 -0.3746637379761945, 59.07591871591342 -0.12432171330511332, 59.07591871591342 0.625005762647271 M59.07591871591342 -0.6250057626472757 C59.07591871591342 -0.21540476076440307, 59.07591871591342 0.19419624111846956, 59.07591871591342 0.625005762647271 M59.07591871591342 0.625005762647271 C59.05954550444556 0.8800317474775378, 59.04317229297771 1.1350577323078044, 58.99583020250937 1.8724490051997846 M59.07591871591342 0.625005762647271 C59.058932686501755 0.8895768816100774, 59.041946657090094 1.1541480005728837, 58.99583020250937 1.8724490051997846 M58.99583020250937 1.8724490051997846 C58.93683320735443 2.3300180493470473, 58.87783621219949 2.78758709349431, 58.835982276581774 3.1121979531508885 M58.99583020250937 1.8724490051997846 C58.95382727877402 2.1982153872756602, 58.911824355038675 2.5239817693515354, 58.835982276581774 3.1121979531508885 M58.835982276581774 3.1121979531508885 C58.75120524945601 3.547510069810703, 58.66642822233023 3.9828221864705178, 58.59703178754556 4.339158212148129 M58.835982276581774 3.1121979531508885 C58.74510680219391 3.578824307594281, 58.65423132780604 4.045450662037673, 58.59703178754556 4.339158212148129 M58.59703178754556 4.339158212148129 C58.51074034696747 4.668224874019333, 58.42444890638937 4.997291535890536, 58.27996063421489 5.548287939305125 M58.59703178754556 4.339158212148129 C58.48267291793081 4.7752581454367675, 58.36831404831607 5.2113580787254055, 58.27996063421489 5.548287939305125 M58.27996063421489 5.548287939305125 C58.1368242918623 5.979391796792038, 57.993687949509706 6.410495654278951, 57.886071729970325 6.734618561215495 M58.27996063421489 5.548287939305125 C58.15952783468502 5.9110123431282995, 58.03909503515516 6.2737367469514735, 57.886071729970325 6.734618561215495 M57.886071729970325 6.734618561215495 C57.76813209985393 7.025931727810619, 57.65019246973753 7.317244894405743, 57.41698364880834 7.893275190886679 M57.886071729970325 6.734618561215495 C57.756497495024895 7.054669426678109, 57.62692326007947 7.374720292140725, 57.41698364880834 7.893275190886679 M57.41698364880834 7.893275190886679 C57.28416133023965 8.169083577336915, 57.151339011670956 8.44489196378715, 56.874623974273504 9.019496659696284 M57.41698364880834 7.893275190886679 C57.30156905188932 8.132936070865808, 57.18615445497029 8.372596950844937, 56.874623974273504 9.019496659696284 M56.874623974273504 9.019496659696284 C56.72256626177462 9.2894905257511, 56.57050854927572 9.559484391805917, 56.26122137860425 10.108655082055236 M56.874623974273504 9.019496659696284 C56.64525785975571 9.426759421860243, 56.415891745237914 9.834022184024203, 56.26122137860425 10.108655082055236 M56.26122137860425 10.108655082055236 C56.06442683979547 10.410984340398429, 55.86763230098669 10.713313598741623, 55.57929646464064 11.156274872382301 M56.26122137860425 10.108655082055236 C56.07534958221461 10.394204074875608, 55.88947778582497 10.67975306769598, 55.57929646464064 11.156274872382301 M55.57929646464064 11.156274872382301 C55.418980693475724 11.371083400676087, 55.2586649223108 11.585891928969874, 54.83165140812658 12.158051136245302 M55.57929646464064 11.156274872382301 C55.36663294186694 11.441224618853573, 55.153969419093244 11.726174365324844, 54.83165140812658 12.158051136245302 M54.83165140812658 12.158051136245302 C54.633175326467686 12.391192435370819, 54.4346992448088 12.624333734496336, 54.02135844296866 13.10986736009567 M54.83165140812658 12.158051136245302 C54.652956039465934 12.367956884328624, 54.474260670805286 12.577862632411946, 54.02135844296866 13.10986736009567 M54.02135844296866 13.10986736009567 C53.75503439813407 13.384868801998106, 53.48871035329949 13.659870243900544, 53.15174723676799 14.007812326905684 M54.02135844296866 13.10986736009567 C53.83049173518335 13.306952906332144, 53.63962502739804 13.504038452568617, 53.15174723676799 14.007812326905684 M53.15174723676799 14.007812326905684 C52.84737032242349 14.28423938714152, 52.542993408078985 14.560666447377356, 52.22639120850189 14.848196188198111 M53.15174723676799 14.007812326905684 C52.78675431955226 14.339289237137617, 52.421761402336536 14.67076614736955, 52.22639120850189 14.848196188198111 M52.22639120850189 14.848196188198111 C51.91871240730171 15.093561844478488, 51.611033606101536 15.338927500758867, 51.24909284457871 15.627565626425152 M52.22639120850189 14.848196188198111 C51.88857822460605 15.117593053274001, 51.55076524071021 15.386989918349892, 51.24909284457871 15.627565626425152 M51.24909284457871 15.627565626425152 C50.87321317898914 15.889763009571967, 50.497333513399575 16.15196039271878, 50.22386807360571 16.34271804539089 M51.24909284457871 15.627565626425152 C50.85145215363714 15.904942558837917, 50.45381146269557 16.18231949125068, 50.22386807360571 16.34271804539089 M50.22386807360571 16.34271804539089 C49.96135068986981 16.501857626134974, 49.69883330613391 16.660997206879063, 49.15492976407678 16.990714730406093 M50.22386807360571 16.34271804539089 C49.806809462720466 16.595541426217963, 49.38975085183523 16.848364807045037, 49.15492976407678 16.990714730406093 M49.15492976407678 16.990714730406093 C48.81334493260162 17.168919318191158, 48.471760101126456 17.347123905976225, 48.04667041279239 17.56889292409717 M49.15492976407678 16.990714730406093 C48.74375064355558 17.20522661420921, 48.332571523034375 17.41973849801233, 48.04667041279239 17.56889292409717 M48.04667041279239 17.56889292409717 C47.802814479640304 17.676840711974357, 47.55895854648822 17.78478849985154, 46.903644095147804 18.07487676824742 M48.04667041279239 17.56889292409717 C47.702660139886014 17.72117606721065, 47.35864986697964 17.873459210324132, 46.903644095147804 18.07487676824742 M46.903644095147804 18.07487676824742 C46.47028468889107 18.234357035680336, 46.036925282634336 18.39383730311325, 45.73054775146062 18.506587066708033 M46.903644095147804 18.07487676824742 C46.557333912361706 18.202322116768944, 46.21102372957561 18.329767465290466, 45.73054775146062 18.506587066708033 M45.73054775146062 18.506587066708033 C45.432486536792396 18.595050070666318, 45.13442532212417 18.683513074624607, 44.53220188623541 18.86224982926107 M45.73054775146062 18.506587066708033 C45.36169965880219 18.61605924448591, 44.992851566143756 18.725531422263785, 44.53220188623541 18.86224982926107 M44.53220188623541 18.86224982926107 C44.27841157631152 18.920175811364654, 44.024621266387626 18.978101793468234, 43.313530759676766 19.140403561325773 M44.53220188623541 18.86224982926107 C44.20169854857984 18.937685059345117, 43.87119521092428 19.013120289429164, 43.313530759676766 19.140403561325773 M43.313530759676766 19.140403561325773 C42.911467253413115 19.20540607096942, 42.50940374714947 19.27040858061307, 42.07954215284788 19.3399052695533 M43.313530759676766 19.140403561325773 C43.04735367993901 19.18343700734369, 42.78117660020125 19.22647045336161, 42.07954215284788 19.3399052695533 M42.07954215284788 19.3399052695533 C41.79134132622235 19.367707656685656, 41.503140499596824 19.395510043818017, 40.8353067896239 19.45993515863156 M42.07954215284788 19.3399052695533 C41.617304807524675 19.384496750334886, 41.155067462201465 19.429088231116474, 40.8353067896239 19.45993515863156 M40.8353067896239 19.45993515863156 C40.511408047020225 19.470321960876202, 40.18750930441656 19.480708763120845, 39.58593750000001 19.5 M40.8353067896239 19.45993515863156 C40.49680411823411 19.47079028044755, 40.15830144684433 19.481645402263542, 39.58593750000001 19.5 M39.58593750000001 19.5 C39.58593750000001 19.5, 39.5859375 19.5, 39.5859375 19.5 M39.58593750000001 19.5 C39.58593750000001 19.5, 39.5859375 19.5, 39.5859375 19.5 M39.5859375 19.5 C8.083386497233505 19.5, -23.41916450553299 19.5, -39.58593749999999 19.5 M39.5859375 19.5 C21.611720481839132 19.5, 3.6375034636782644 19.5, -39.58593749999999 19.5 M-39.58593749999999 19.5 C-39.92436237651906 19.489147372914093, -40.26278725303814 19.47829474582819, -40.83530678962389 19.45993515863156 M-39.58593749999999 19.5 C-39.986901224913474 19.487141873770568, -40.38786494982695 19.47428374754114, -40.83530678962389 19.45993515863156 M-40.83530678962389 19.45993515863156 C-41.22797319563159 19.422055102694443, -41.62063960163929 19.384175046757324, -42.07954215284787 19.3399052695533 M-40.83530678962389 19.45993515863156 C-41.13537739134017 19.43098770857169, -41.43544799305644 19.402040258511818, -42.07954215284787 19.3399052695533 M-42.07954215284787 19.3399052695533 C-42.53313498262974 19.266571898499098, -42.986727812411615 19.193238527444894, -43.31353075967676 19.140403561325773 M-42.07954215284787 19.3399052695533 C-42.56179616109765 19.261938181435166, -43.04405016934742 19.18397109331703, -43.31353075967676 19.140403561325773 M-43.31353075967676 19.140403561325773 C-43.614824118828516 19.071635318222295, -43.91611747798027 19.00286707511882, -44.532201886235384 18.862249829261074 M-43.31353075967676 19.140403561325773 C-43.6703057237164 19.058972003957944, -44.027080687756055 18.977540446590112, -44.532201886235384 18.862249829261074 M-44.532201886235384 18.862249829261074 C-44.8153004348717 18.778227666040422, -45.09839898350802 18.69420550281977, -45.73054775146059 18.506587066708043 M-44.532201886235384 18.862249829261074 C-44.883806693840995 18.757895367975028, -45.2354115014466 18.65354090668898, -45.73054775146059 18.506587066708043 M-45.73054775146059 18.506587066708043 C-46.001004294528656 18.407056558786117, -46.27146083759673 18.30752605086419, -46.9036440951478 18.074876768247425 M-45.73054775146059 18.506587066708043 C-45.97809672962024 18.415486754427626, -46.22564570777988 18.324386442147205, -46.9036440951478 18.074876768247425 M-46.9036440951478 18.074876768247425 C-47.224031704312665 17.933050677630888, -47.54441931347753 17.79122458701435, -48.04667041279238 17.568892924097174 M-46.9036440951478 18.074876768247425 C-47.190387810821385 17.947943831268834, -47.47713152649498 17.821010894290247, -48.04667041279238 17.568892924097174 M-48.04667041279238 17.568892924097174 C-48.461293630995655 17.352584256739373, -48.87591684919893 17.13627558938157, -49.15492976407678 16.990714730406097 M-48.04667041279238 17.568892924097174 C-48.40627495838032 17.381287463001648, -48.765879503968264 17.193682001906126, -49.15492976407678 16.990714730406097 M-49.15492976407678 16.990714730406097 C-49.5636902752036 16.742921706417626, -49.97245078633041 16.49512868242915, -50.223868073605686 16.3427180453909 M-49.15492976407678 16.990714730406097 C-49.429825513100596 16.824071311881127, -49.7047212621244 16.657427893356157, -50.223868073605686 16.3427180453909 M-50.223868073605686 16.3427180453909 C-50.55002815808503 16.11520288970061, -50.87618824256437 15.887687734010314, -51.24909284457871 15.627565626425156 M-50.223868073605686 16.3427180453909 C-50.63264050192852 16.057576094866114, -51.041412930251354 15.772434144341327, -51.24909284457871 15.627565626425156 M-51.24909284457871 15.627565626425156 C-51.59476582835286 15.351900620609692, -51.940438812127006 15.076235614794228, -52.226391208501866 14.848196188198125 M-51.24909284457871 15.627565626425156 C-51.45326784686839 15.464741495424128, -51.65744284915808 15.301917364423103, -52.226391208501866 14.848196188198125 M-52.226391208501866 14.848196188198125 C-52.563379097941485 14.542152703220022, -52.90036698738111 14.23610921824192, -53.151747236767974 14.007812326905697 M-52.226391208501866 14.848196188198125 C-52.55321878446842 14.551380031089096, -52.88004636043498 14.254563873980068, -53.151747236767974 14.007812326905697 M-53.151747236767974 14.007812326905697 C-53.34142602383037 13.811953406345737, -53.53110481089277 13.616094485785776, -54.021358442968655 13.109867360095677 M-53.151747236767974 14.007812326905697 C-53.348166705489625 13.804993099112306, -53.54458617421127 13.602173871318914, -54.021358442968655 13.109867360095677 M-54.021358442968655 13.109867360095677 C-54.28052557339466 12.805434901669802, -54.53969270382067 12.501002443243927, -54.831651408126575 12.158051136245307 M-54.021358442968655 13.109867360095677 C-54.217182845675055 12.879840873952562, -54.41300724838146 12.649814387809444, -54.831651408126575 12.158051136245307 M-54.831651408126575 12.158051136245307 C-55.07236265229136 11.835519998309971, -55.31307389645614 11.512988860374636, -55.579296464640635 11.156274872382316 M-54.831651408126575 12.158051136245307 C-55.11287884726201 11.781231988150596, -55.39410628639744 11.404412840055885, -55.579296464640635 11.156274872382316 M-55.579296464640635 11.156274872382316 C-55.76823844487896 10.866009252710557, -55.95718042511729 10.575743633038797, -56.26122137860425 10.108655082055249 M-55.579296464640635 11.156274872382316 C-55.789471483216836 10.833389603954453, -55.99964650179304 10.51050433552659, -56.26122137860425 10.108655082055249 M-56.26122137860425 10.108655082055249 C-56.42590583862308 9.81624114718194, -56.590590298641914 9.52382721230863, -56.874623974273504 9.019496659696289 M-56.26122137860425 10.108655082055249 C-56.41143881045088 9.841928820647126, -56.56165624229752 9.575202559239006, -56.874623974273504 9.019496659696289 M-56.874623974273504 9.019496659696289 C-57.08143151944184 8.590056367181637, -57.288239064610174 8.160616074666983, -57.41698364880834 7.893275190886686 M-56.874623974273504 9.019496659696289 C-57.00194331110297 8.755115332572505, -57.12926264793243 8.490734005448722, -57.41698364880834 7.893275190886686 M-57.41698364880834 7.893275190886686 C-57.55013778479771 7.564381900632855, -57.683291920787084 7.235488610379024, -57.886071729970325 6.73461856121551 M-57.41698364880834 7.893275190886686 C-57.558831527554965 7.542908187940361, -57.70067940630158 7.192541184994036, -57.886071729970325 6.73461856121551 M-57.886071729970325 6.73461856121551 C-58.026894155051295 6.310483853878051, -58.16771658013227 5.886349146540592, -58.27996063421488 5.5482879393051325 M-57.886071729970325 6.73461856121551 C-58.012539985436995 6.353716325729996, -58.13900824090366 5.9728140902444835, -58.27996063421488 5.5482879393051325 M-58.27996063421488 5.5482879393051325 C-58.35570007157206 5.259460638982412, -58.43143950892924 4.970633338659691, -58.59703178754556 4.339158212148136 M-58.27996063421488 5.5482879393051325 C-58.35131781146308 5.276172096061483, -58.422674988711286 5.0040562528178345, -58.59703178754556 4.339158212148136 M-58.59703178754556 4.339158212148136 C-58.64557572235062 4.089895366688397, -58.69411965715568 3.8406325212286583, -58.835982276581774 3.112197953150904 M-58.59703178754556 4.339158212148136 C-58.66549348438653 3.987621868254489, -58.73395518122751 3.6360855243608428, -58.835982276581774 3.112197953150904 M-58.835982276581774 3.112197953150904 C-58.869652181157136 2.8510608221391043, -58.9033220857325 2.5899236911273045, -58.99583020250937 1.872449005199809 M-58.835982276581774 3.112197953150904 C-58.877313536548535 2.791640862629142, -58.9186447965153 2.47108377210738, -58.99583020250937 1.872449005199809 M-58.99583020250937 1.872449005199809 C-59.02514922432661 1.4157815745077815, -59.054468246143855 0.9591141438157539, -59.07591871591342 0.6250057626472781 M-58.99583020250937 1.872449005199809 C-59.024448223244946 1.4267002321926268, -59.053066243980524 0.9809514591854444, -59.07591871591342 0.6250057626472781 M-59.07591871591342 0.6250057626472781 C-59.07591871591342 0.15570866078310347, -59.07591871591342 -0.3135884410810712, -59.07591871591342 -0.6250057626472687 M-59.07591871591342 0.6250057626472781 C-59.07591871591342 0.31237145791650883, -59.07591871591342 -0.0002628468142604756, -59.07591871591342 -0.6250057626472687 M-59.07591871591342 -0.6250057626472687 C-59.04827037367287 -1.0556510103839218, -59.020622031432325 -1.4862962581205752, -58.99583020250937 -1.8724490051997822 M-59.07591871591342 -0.6250057626472687 C-59.04609571652156 -1.089523050867201, -59.01627271712971 -1.5540403390871331, -58.99583020250937 -1.8724490051997822 M-58.99583020250937 -1.8724490051997822 C-58.960699269186655 -2.144917586663276, -58.92556833586394 -2.41738616812677, -58.835982276581774 -3.112197953150895 M-58.99583020250937 -1.8724490051997822 C-58.95667892476328 -2.1760985841041536, -58.917527647017195 -2.479748163008525, -58.835982276581774 -3.112197953150895 M-58.835982276581774 -3.112197953150895 C-58.765607775096846 -3.4735561446198413, -58.69523327361192 -3.8349143360887874, -58.59703178754556 -4.339158212148126 M-58.835982276581774 -3.112197953150895 C-58.76423943754866 -3.480582268731525, -58.692496598515554 -3.8489665843121554, -58.59703178754556 -4.339158212148126 M-58.59703178754556 -4.339158212148126 C-58.47511704977507 -4.804071945448599, -58.35320231200458 -5.268985678749072, -58.27996063421489 -5.548287939305123 M-58.59703178754556 -4.339158212148126 C-58.490761008667256 -4.744414750058031, -58.384490229788945 -5.149671287967936, -58.27996063421489 -5.548287939305123 M-58.27996063421489 -5.548287939305123 C-58.12672693353349 -6.009803431282841, -57.97349323285209 -6.47131892326056, -57.88607172997033 -6.734618561215485 M-58.27996063421489 -5.548287939305123 C-58.19766523487459 -5.796148570126844, -58.1153698355343 -6.044009200948566, -57.88607172997033 -6.734618561215485 M-57.88607172997033 -6.734618561215485 C-57.76232184154406 -7.040283178169712, -57.63857195311778 -7.345947795123941, -57.41698364880834 -7.893275190886676 M-57.88607172997033 -6.734618561215485 C-57.78690176177988 -6.979570299966805, -57.68773179358943 -7.224522038718126, -57.41698364880834 -7.893275190886676 M-57.41698364880834 -7.893275190886676 C-57.295588308626975 -8.145355212217456, -57.17419296844562 -8.397435233548238, -56.874623974273504 -9.019496659696282 M-57.41698364880834 -7.893275190886676 C-57.232729082644454 -8.275883739942136, -57.048474516480574 -8.658492288997596, -56.874623974273504 -9.019496659696282 M-56.874623974273504 -9.019496659696282 C-56.63059898417478 -9.45278773982629, -56.386573994076066 -9.886078819956298, -56.26122137860425 -10.108655082055243 M-56.874623974273504 -9.019496659696282 C-56.65532421182139 -9.408885594438953, -56.43602444936927 -9.798274529181624, -56.26122137860425 -10.108655082055243 M-56.26122137860425 -10.108655082055243 C-56.046432217813255 -10.4386289119957, -55.83164305702226 -10.768602741936155, -55.57929646464064 -11.156274872382308 M-56.26122137860425 -10.108655082055243 C-56.03166738831251 -10.461311655020701, -55.80211339802078 -10.813968227986157, -55.57929646464064 -11.156274872382308 M-55.57929646464064 -11.156274872382308 C-55.29303916269304 -11.5398335784154, -55.00678186074544 -11.923392284448495, -54.83165140812659 -12.158051136245302 M-55.57929646464064 -11.156274872382308 C-55.29877730322763 -11.532144992854409, -55.01825814181462 -11.90801511332651, -54.83165140812659 -12.158051136245302 M-54.83165140812659 -12.158051136245302 C-54.60611542422751 -12.422978536294194, -54.38057944032843 -12.687905936343086, -54.02135844296866 -13.10986736009567 M-54.83165140812659 -12.158051136245302 C-54.66038820948427 -12.359226634522638, -54.48912501084195 -12.560402132799977, -54.02135844296866 -13.10986736009567 M-54.02135844296866 -13.10986736009567 C-53.75504258684972 -13.384860346476895, -53.48872673073078 -13.65985333285812, -53.151747236767996 -14.007812326905677 M-54.02135844296866 -13.10986736009567 C-53.82146702802882 -13.316271657411436, -53.62157561308897 -13.5226759547272, -53.151747236767996 -14.007812326905677 M-53.151747236767996 -14.007812326905677 C-52.95036093015795 -14.190706042179237, -52.748974623547895 -14.373599757452798, -52.22639120850189 -14.848196188198107 M-53.151747236767996 -14.007812326905677 C-52.88253677723277 -14.252302143337134, -52.61332631769754 -14.496791959768592, -52.22639120850189 -14.848196188198107 M-52.22639120850189 -14.848196188198107 C-51.96718408830389 -15.054906968764856, -51.70797696810589 -15.261617749331602, -51.24909284457872 -15.627565626425149 M-52.22639120850189 -14.848196188198107 C-52.02174329581074 -15.011397452659631, -51.817095383119586 -15.174598717121155, -51.24909284457872 -15.627565626425149 M-51.24909284457872 -15.627565626425149 C-50.986919159314105 -15.810446639949827, -50.72474547404949 -15.993327653474505, -50.223868073605715 -16.342718045390885 M-51.24909284457872 -15.627565626425149 C-51.012500982580455 -15.792601867458503, -50.77590912058219 -15.957638108491857, -50.223868073605715 -16.342718045390885 M-50.223868073605715 -16.342718045390885 C-49.885426062880605 -16.54788358119847, -49.54698405215549 -16.75304911700605, -49.15492976407679 -16.99071473040609 M-50.223868073605715 -16.342718045390885 C-49.799637491221155 -16.59988911748803, -49.375406908836595 -16.857060189585177, -49.15492976407679 -16.99071473040609 M-49.15492976407679 -16.99071473040609 C-48.722127408256064 -17.216507442214624, -48.28932505243533 -17.44230015402316, -48.04667041279239 -17.56889292409717 M-49.15492976407679 -16.99071473040609 C-48.77215170184597 -17.19040980029086, -48.38937363961515 -17.390104870175627, -48.04667041279239 -17.56889292409717 M-48.04667041279239 -17.56889292409717 C-47.70809382664936 -17.718770735265107, -47.36951724050633 -17.868648546433047, -46.903644095147804 -18.07487676824742 M-48.04667041279239 -17.56889292409717 C-47.663320234694844 -17.738590676261957, -47.27997005659729 -17.908288428426744, -46.903644095147804 -18.07487676824742 M-46.903644095147804 -18.07487676824742 C-46.58827006411418 -18.19093732695338, -46.27289603308055 -18.306997885659342, -45.73054775146062 -18.506587066708033 M-46.903644095147804 -18.07487676824742 C-46.46467547212108 -18.236421279302725, -46.025706849094355 -18.39796579035803, -45.73054775146062 -18.506587066708033 M-45.73054775146062 -18.506587066708033 C-45.37090029546425 -18.613328543819733, -45.011252839467886 -18.720070020931434, -44.53220188623541 -18.862249829261067 M-45.73054775146062 -18.506587066708033 C-45.34113034934298 -18.62216410756289, -44.95171294722534 -18.73774114841775, -44.53220188623541 -18.862249829261067 M-44.53220188623541 -18.862249829261067 C-44.134708139087934 -18.95297518315837, -43.73721439194046 -19.043700537055667, -43.313530759676766 -19.140403561325773 M-44.53220188623541 -18.862249829261067 C-44.16848872881181 -18.945264983992843, -43.804775571388205 -19.028280138724618, -43.313530759676766 -19.140403561325773 M-43.313530759676766 -19.140403561325773 C-42.846036017161545 -19.21598448581976, -42.37854127464632 -19.291565410313748, -42.07954215284788 -19.3399052695533 M-43.313530759676766 -19.140403561325773 C-42.98550929588847 -19.19343552774662, -42.65748783210017 -19.24646749416747, -42.07954215284788 -19.3399052695533 M-42.07954215284788 -19.3399052695533 C-41.59034162250852 -19.387097856365422, -41.10114109216916 -19.43429044317754, -40.8353067896239 -19.45993515863156 M-42.07954215284788 -19.3399052695533 C-41.75173003360061 -19.371528910445328, -41.423917914353346 -19.403152551337357, -40.8353067896239 -19.45993515863156 M-40.8353067896239 -19.45993515863156 C-40.55569144520166 -19.46890187848893, -40.27607610077942 -19.477868598346298, -39.58593750000001 -19.5 M-40.8353067896239 -19.45993515863156 C-40.55911766609037 -19.468792006253764, -40.28292854255685 -19.477648853875966, -39.58593750000001 -19.5 M-39.58593750000001 -19.5 C-39.58593750000001 -19.5, -39.58593750000001 -19.5, -39.5859375 -19.5 M-39.58593750000001 -19.5 C-39.58593750000001 -19.5, -39.58593750000001 -19.5, -39.5859375 -19.5" stroke="#9370DB" stroke-width="1.3" fill="none" stroke-dasharray="0 0" style=""/></g><g class="label" style="" transform="translate(-46.7109375, -12)"><rect/><foreignObject width="93.421875" height="24"><div xmlns="http://www.w3.org/1999/xhtml" style="display: table-cell; white-space: nowrap; line-height: 1.5; max-width: 200px; text-align: center;"><span class="nodeLabel"><p>Loop running</p></span></div></foreignObject></g></g><g class="node default" id="mermaid-0-flowchart-B-1" data-look="classic" transform="translate(266.63621520996094, 112.859375)"><rect class="basic label-container" style="" x="-90.484375" y="-27" width="180.96875" height="54"/><g class="label" style="" transform="translate(-60.484375, -12)"><rect/><foreignObject width="120.96875" height="24"><div xmlns="http://www.w3.org/1999/xhtml" style="display: table-cell; white-space: nowrap; line-height: 1.5; max-width: 200px; text-align: center;"><span class="nodeLabel"><p>Claude responds</p></span></div></foreignObject></g></g><g class="node default" id="mermaid-0-flowchart-C-3" data-look="classic" transform="translate(482.14402770996094, 112.859375)"><polygon points="75.0234375,0 150.046875,-75.0234375 75.0234375,-150.046875 0,-75.0234375" class="label-container" transform="translate(-74.5234375, 75.0234375)"/><g class="label" style="" transform="translate(-48.0234375, -12)"><rect/><foreignObject width="96.046875" height="24"><div xmlns="http://www.w3.org/1999/xhtml" style="display: table-cell; white-space: nowrap; line-height: 1.5; max-width: 200px; text-align: center;"><span class="nodeLabel"><p>No tool calls?</p></span></div></foreignObject></g></g><g class="node default" id="mermaid-0-flowchart-D-5" data-look="classic" transform="translate(751.7612152099609, 35)"><rect class="basic label-container" style="" x="-118.484375" y="-27" width="236.96875" height="54"/><g class="label" style="" transform="translate(-88.484375, -12)"><rect/><foreignObject width="176.96875" height="24"><div xmlns="http://www.w3.org/1999/xhtml" style="display: table-cell; white-space: nowrap; line-height: 1.5; max-width: 200px; text-align: center;"><span class="nodeLabel"><p>ResultMessage: success</p></span></div></foreignObject></g></g><g class="node default" id="mermaid-0-flowchart-E-7" data-look="classic" transform="translate(751.7612152099609, 190.71875)"><polygon points="78.71875,0 157.4375,-78.71875 78.71875,-157.4375 0,-78.71875" class="label-container" transform="translate(-78.21875, 78.71875)"/><g class="label" style="" transform="translate(-51.71875, -12)"><rect/><foreignObject width="103.4375" height="24"><div xmlns="http://www.w3.org/1999/xhtml" style="display: table-cell; white-space: nowrap; line-height: 1.5; max-width: 200px; text-align: center;"><span class="nodeLabel"><p>Hit maxTurns?</p></span></div></foreignObject></g></g><g class="node default" id="mermaid-0-flowchart-F-9" data-look="classic" transform="translate(1076.354965209961, 84.2421875)"><rect class="basic label-container" style="" x="-130" y="-39" width="260" height="78"/><g class="label" style="" transform="translate(-100, -24)"><rect/><foreignObject width="200" height="48"><div xmlns="http://www.w3.org/1999/xhtml" style="display: table; white-space: break-spaces; line-height: 1.5; max-width: 200px; text-align: center; width: 200px;"><span class="nodeLabel"><p>ResultMessage: error_max_turns</p></span></div></foreignObject></g></g><g class="node default" id="mermaid-0-flowchart-G-11" data-look="classic" transform="translate(1076.354965209961, 297.1953125)"><polygon points="123.953125,0 247.90625,-123.953125 123.953125,-247.90625 0,-123.953125" class="label-container" transform="translate(-123.453125, 123.953125)"/><g class="label" style="" transform="translate(-96.953125, -12)"><rect/><foreignObject width="193.90625" height="24"><div xmlns="http://www.w3.org/1999/xhtml" style="display: table-cell; white-space: nowrap; line-height: 1.5; max-width: 200px; text-align: center;"><span class="nodeLabel"><p>Exceeded maxBudgetUsd?</p></span></div></foreignObject></g></g><g class="node default" id="mermaid-0-flowchart-H-13" data-look="classic" transform="translate(1412.464340209961, 275.1953125)"><rect class="basic label-container" style="" x="-130" y="-39" width="260" height="78"/><g class="label" style="" transform="translate(-100, -24)"><rect/><foreignObject width="200" height="48"><div xmlns="http://www.w3.org/1999/xhtml" style="display: table; white-space: break-spaces; line-height: 1.5; max-width: 200px; text-align: center; width: 200px;"><span class="nodeLabel"><p>ResultMessage: error_max_budget_usd</p></span></div></foreignObject></g></g><g class="node default" id="mermaid-0-flowchart-I-15" data-look="classic" transform="translate(1412.464340209961, 464.01953125)"><polygon points="85.6953125,0 171.390625,-85.6953125 85.6953125,-171.390625 0,-85.6953125" class="label-container" transform="translate(-85.1953125, 85.6953125)"/><g class="label" style="" transform="translate(-58.6953125, -12)"><rect/><foreignObject width="117.390625" height="24"><div xmlns="http://www.w3.org/1999/xhtml" style="display: table-cell; white-space: nowrap; line-height: 1.5; max-width: 200px; text-align: center;"><span class="nodeLabel"><p>Execution error?</p></span></div></foreignObject></g></g><g class="node default" id="mermaid-0-flowchart-J-17" data-look="classic" transform="translate(1748.573715209961, 464.01953125)"><rect class="basic label-container" style="" x="-130" y="-39" width="260" height="78"/><g class="label" style="" transform="translate(-100, -24)"><rect/><foreignObject width="200" height="48"><div xmlns="http://www.w3.org/1999/xhtml" style="display: table; white-space: break-spaces; line-height: 1.5; max-width: 200px; text-align: center; width: 200px;"><span class="nodeLabel"><p>ResultMessage: error_during_execution</p></span></div></foreignObject></g></g></g></g></g><defs><filter id="mermaid-0-drop-shadow" height="130%" width="130%"><feDropShadow dx="4" dy="4" stdDeviation="0" flood-opacity="0.06" flood-color="#000000"/></filter></defs><defs><filter id="mermaid-0-drop-shadow-small" height="150%" width="150%"><feDropShadow dx="2" dy="2" stdDeviation="0" flood-opacity="0.06" flood-color="#000000"/></filter></defs></svg>