<svg id="mermaid-11" width="100%" xmlns="http://www.w3.org/2000/svg" xmlns:xlink="http://www.w3.org/1999/xlink" class="flowchart" style="max-width: 669.9163818359375px;" viewBox="0 0 669.9163818359375 94" role="graphics-document document" aria-roledescription="flowchart-v2"><style>#mermaid-11{font-family:arial,sans-serif;font-size:16px;fill:#333;}@keyframes edge-animation-frame{from{stroke-dashoffset:0;}}@keyframes dash{to{stroke-dashoffset:0;}}#mermaid-11 .edge-animation-slow{stroke-dasharray:9,5!important;stroke-dashoffset:900;animation:dash 50s linear infinite;stroke-linecap:round;}#mermaid-11 .edge-animation-fast{stroke-dasharray:9,5!important;stroke-dashoffset:900;animation:dash 20s linear infinite;stroke-linecap:round;}#mermaid-11 .error-icon{fill:#552222;}#mermaid-11 .error-text{fill:#552222;stroke:#552222;}#mermaid-11 .edge-thickness-normal{stroke-width:1px;}#mermaid-11 .edge-thickness-thick{stroke-width:3.5px;}#mermaid-11 .edge-pattern-solid{stroke-dasharray:0;}#mermaid-11 .edge-thickness-invisible{stroke-width:0;fill:none;}#mermaid-11 .edge-pattern-dashed{stroke-dasharray:3;}#mermaid-11 .edge-pattern-dotted{stroke-dasharray:2;}#mermaid-11 .marker{fill:#333333;stroke:#333333;}#mermaid-11 .marker.cross{stroke:#333333;}#mermaid-11 svg{font-family:arial,sans-serif;font-size:16px;}#mermaid-11 p{margin:0;}#mermaid-11 .label{font-family:arial,sans-serif;color:#333;}#mermaid-11 .cluster-label text{fill:#333;}#mermaid-11 .cluster-label span{color:#333;}#mermaid-11 .cluster-label span p{background-color:transparent;}#mermaid-11 .label text,#mermaid-11 span{fill:#333;color:#333;}#mermaid-11 .node rect,#mermaid-11 .node circle,#mermaid-11 .node ellipse,#mermaid-11 .node polygon,#mermaid-11 .node path{fill:#ECECFF;stroke:#9370DB;stroke-width:1px;}#mermaid-11 .rough-node .label text,#mermaid-11 .node .label text,#mermaid-11 .image-shape .label,#mermaid-11 .icon-shape .label{text-anchor:middle;}#mermaid-11 .node .katex path{fill:#000;stroke:#000;stroke-width:1px;}#mermaid-11 .rough-node .label,#mermaid-11 .node .label,#mermaid-11 .image-shape .label,#mermaid-11 .icon-shape .label{text-align:center;}#mermaid-11 .node.clickable{cursor:pointer;}#mermaid-11 .root .anchor path{fill:#333333!important;stroke-width:0;stroke:#333333;}#mermaid-11 .arrowheadPath{fill:#333333;}#mermaid-11 .edgePath .path{stroke:#333333;stroke-width:1px;}#mermaid-11 .flowchart-link{stroke:#333333;fill:none;}#mermaid-11 .edgeLabel{background-color:rgba(232,232,232, 0.8);text-align:center;}#mermaid-11 .edgeLabel p{background-color:rgba(232,232,232, 0.8);}#mermaid-11 .edgeLabel rect{opacity:0.5;background-color:rgba(232,232,232, 0.8);fill:rgba(232,232,232, 0.8);}#mermaid-11 .labelBkg{background-color:rgba(232, 232, 232, 0.5);}#mermaid-11 .cluster rect{fill:#ffffde;stroke:#aaaa33;stroke-width:1px;}#mermaid-11 .cluster text{fill:#333;}#mermaid-11 .cluster span{color:#333;}#mermaid-11 div.mermaidTooltip{position:absolute;text-align:center;max-width:200px;padding:2px;font-family:arial,sans-serif;font-size:12px;background:hsl(80, 100%, 96.2745098039%);border:1px solid #aaaa33;border-radius:2px;pointer-events:none;z-index:100;}#mermaid-11 .flowchartTitleText{text-anchor:middle;font-size:18px;fill:#333;}#mermaid-11 rect.text{fill:none;stroke-width:0;}#mermaid-11 .icon-shape,#mermaid-11 .image-shape{background-color:rgba(232,232,232, 0.8);text-align:center;}#mermaid-11 .icon-shape p,#mermaid-11 .image-shape p{background-color:rgba(232,232,232, 0.8);padding:2px;}#mermaid-11 .icon-shape .label rect,#mermaid-11 .image-shape .label rect{opacity:0.5;background-color:rgba(232,232,232, 0.8);fill:rgba(232,232,232, 0.8);}#mermaid-11 .label-icon{display:inline-block;height:1em;overflow:visible;vertical-align:-0.125em;}#mermaid-11 .node .label-icon path{fill:currentColor;stroke:revert;stroke-width:revert;}#mermaid-11 .node .neo-node{stroke:#9370DB;}#mermaid-11 [data-look="neo"].node rect,#mermaid-11 [data-look="neo"].cluster rect,#mermaid-11 [data-look="neo"].node polygon{stroke:#9370DB;filter:drop-shadow(1px 2px 2px rgba(185, 185, 185, 1));}#mermaid-11 [data-look="neo"].node path{stroke:#9370DB;stroke-width:1px;}#mermaid-11 [data-look="neo"].node .outer-path{filter:drop-shadow(1px 2px 2px rgba(185, 185, 185, 1));}#mermaid-11 [data-look="neo"].node .neo-line path{stroke:#9370DB;filter:none;}#mermaid-11 [data-look="neo"].node circle{stroke:#9370DB;filter:drop-shadow(1px 2px 2px rgba(185, 185, 185, 1));}#mermaid-11 [data-look="neo"].node circle .state-start{fill:#000000;}#mermaid-11 [data-look="neo"].icon-shape .icon{fill:#9370DB;filter:drop-shadow(1px 2px 2px rgba(185, 185, 185, 1));}#mermaid-11 [data-look="neo"].icon-shape .icon-neo path{stroke:#9370DB;filter:drop-shadow(1px 2px 2px rgba(185, 185, 185, 1));}#mermaid-11 :root{--mermaid-font-family:arial,sans-serif;}</style><g><marker id="mermaid-11_flowchart-v2-pointEnd" class="marker flowchart-v2" viewBox="0 0 10 10" refX="5" refY="5" markerUnits="userSpaceOnUse" markerWidth="8" markerHeight="8" orient="auto"><path d="M 0 0 L 10 5 L 0 10 z" class="arrowMarkerPath" style="stroke-width: 1; stroke-dasharray: 1, 0;"/></marker><marker id="mermaid-11_flowchart-v2-pointStart" class="marker flowchart-v2" viewBox="0 0 10 10" refX="4.5" refY="5" markerUnits="userSpaceOnUse" markerWidth="8" markerHeight="8" orient="auto"><path d="M 0 5 L 10 10 L 10 0 z" class="arrowMarkerPath" style="stroke-width: 1; stroke-dasharray: 1, 0;"/></marker><marker id="mermaid-11_flowchart-v2-pointEnd-margin" class="marker flowchart-v2" viewBox="0 0 11.5 14" refX="11.5" refY="7" markerUnits="userSpaceOnUse" markerWidth="10.5" markerHeight="14" orient="auto"><path d="M 0 0 L 11.5 7 L 0 14 z" class="arrowMarkerPath" style="stroke-width: 0; stroke-dasharray: 1, 0;"/></marker><marker id="mermaid-11_flowchart-v2-pointStart-margin" class="marker flowchart-v2" viewBox="0 0 11.5 14" refX="1" refY="7" markerUnits="userSpaceOnUse" markerWidth="11.5" markerHeight="14" orient="auto"><polygon points="0,7 11.5,14 11.5,0" class="arrowMarkerPath" style="stroke-width: 0; stroke-dasharray: 1, 0;"/></marker><marker id="mermaid-11_flowchart-v2-circleEnd" class="marker flowchart-v2" viewBox="0 0 10 10" refX="11" refY="5" markerUnits="userSpaceOnUse" markerWidth="11" markerHeight="11" orient="auto"><circle cx="5" cy="5" r="5" class="arrowMarkerPath" style="stroke-width: 1; stroke-dasharray: 1, 0;"/></marker><marker id="mermaid-11_flowchart-v2-circleStart" class="marker flowchart-v2" viewBox="0 0 10 10" refX="-1" refY="5" markerUnits="userSpaceOnUse" markerWidth="11" markerHeight="11" orient="auto"><circle cx="5" cy="5" r="5" class="arrowMarkerPath" style="stroke-width: 1; stroke-dasharray: 1, 0;"/></marker><marker id="mermaid-11_flowchart-v2-circleEnd-margin" class="marker flowchart-v2" viewBox="0 0 10 10" refY="5" refX="12.25" markerUnits="userSpaceOnUse" markerWidth="14" markerHeight="14" orient="auto"><circle cx="5" cy="5" r="5" class="arrowMarkerPath" style="stroke-width: 0; stroke-dasharray: 1, 0;"/></marker><marker id="mermaid-11_flowchart-v2-circleStart-margin" class="marker flowchart-v2" viewBox="0 0 10 10" refX="-2" refY="5" markerUnits="userSpaceOnUse" markerWidth="14" markerHeight="14" orient="auto"><circle cx="5" cy="5" r="5" class="arrowMarkerPath" style="stroke-width: 0; stroke-dasharray: 1, 0;"/></marker><marker id="mermaid-11_flowchart-v2-crossEnd" class="marker cross flowchart-v2" viewBox="0 0 11 11" refX="12" refY="5.2" markerUnits="userSpaceOnUse" markerWidth="11" markerHeight="11" orient="auto"><path d="M 1,1 l 9,9 M 10,1 l -9,9" class="arrowMarkerPath" style="stroke-width: 2; stroke-dasharray: 1, 0;"/></marker><marker id="mermaid-11_flowchart-v2-crossStart" class="marker cross flowchart-v2" viewBox="0 0 11 11" refX="-1" refY="5.2" markerUnits="userSpaceOnUse" markerWidth="11" markerHeight="11" orient="auto"><path d="M 1,1 l 9,9 M 10,1 l -9,9" class="arrowMarkerPath" style="stroke-width: 2; stroke-dasharray: 1, 0;"/></marker><marker id="mermaid-11_flowchart-v2-crossEnd-margin" class="marker cross flowchart-v2" viewBox="0 0 15 15" refX="17.7" refY="7.5" markerUnits="userSpaceOnUse" markerWidth="12" markerHeight="12" orient="auto"><path d="M 1,1 L 14,14 M 1,14 L 14,1" class="arrowMarkerPath" style="stroke-width: 2.5;"/></marker><marker id="mermaid-11_flowchart-v2-crossStart-margin" class="marker cross flowchart-v2" viewBox="0 0 15 15" refX="-3.5" refY="7.5" markerUnits="userSpaceOnUse" markerWidth="12" markerHeight="12" orient="auto"><path d="M 1,1 L 14,14 M 1,14 L 14,1" class="arrowMarkerPath" style="stroke-width: 2.5; stroke-dasharray: 1, 0;"/></marker><g class="root"><g class="clusters"/><g class="edgePaths"><path d="M204.624,47.5L212.71,47.417C220.796,47.333,236.968,47.167,252.556,47.083C268.145,47,283.15,47,290.653,47L298.155,47" id="mermaid-11-L_A_B_0" class="edge-thickness-normal edge-pattern-solid edge-thickness-normal edge-pattern-solid flowchart-link" style=";" data-edge="true" data-et="edge" data-id="L_A_B_0" data-points="W3sieCI6MjA0LjYyMzg4MTYyMDY0Mjk4LCJ5Ijo0Ny41fSx7IngiOjI1My4xMzk1MTExMDgzOTg0NCwieSI6NDd9LHsieCI6MzAyLjE1NTEzNjEwODM5ODQ0LCJ5Ijo0N31d" data-look="classic" marker-end="url(#mermaid-11_flowchart-v2-pointEnd)"/><path d="M491.124,47L495.291,47C499.457,47,507.791,47,515.541,47.07C523.291,47.141,530.458,47.281,534.041,47.351L537.625,47.422" id="mermaid-11-L_B_C_0" class="edge-thickness-normal edge-pattern-solid edge-thickness-normal edge-pattern-solid flowchart-link" style=";" data-edge="true" data-et="edge" data-id="L_B_C_0" data-points="W3sieCI6NDkxLjEyMzg4NjEwODM5ODQ0LCJ5Ijo0N30seyJ4Ijo1MTYuMTIzODg2MTA4Mzk4NCwieSI6NDd9LHsieCI6NTQxLjYyMzg4NjEwODM5OTUsInkiOjQ3LjUwMDAwMDAwMDAwMDAxfV0=" data-look="classic" marker-end="url(#mermaid-11_flowchart-v2-pointEnd)"/></g><g class="edgeLabels"><g class="edgeLabel" transform="translate(253.13951110839844, 47)"><g class="label" data-id="L_A_B_0" transform="translate(-24.015625, -12)"><foreignObject width="48.03125" height="24"><div xmlns="http://www.w3.org/1999/xhtml" class="labelBkg" style="display: table-cell; white-space: nowrap; line-height: 1.5; max-width: 200px; text-align: center;"><span class="edgeLabel"><p>filtered</p></span></div></foreignObject></g></g><g class="edgeLabel"><g class="label" data-id="L_B_C_0" transform="translate(0, 0)"><foreignObject width="0" height="0"><div xmlns="http://www.w3.org/1999/xhtml" class="labelBkg" style="display: table-cell; white-space: nowrap; line-height: 1.5; max-width: 200px; text-align: center;"><span class="edgeLabel"></span></div></foreignObject></g></g></g><g class="nodes"><g class="node default" id="mermaid-11-flowchart-A-0" data-look="classic" transform="translate(106.06194305419922, 47)"><g class="basic label-container outer-path"><path d="M-66.578125 -31.5 C-21.8720784678683 -31.5, 22.833968064263402 -31.5, 66.578125 -31.5 C66.578125 -31.5, 66.578125 -31.5, 66.578125 -31.5 C67.09141212492975 -31.483539880956283, 67.6046992498595 -31.467079761912565, 68.59633692939245 -31.435279871635593 C69.25832746282522 -31.371418441035434, 69.92031799625799 -31.30755701043527, 70.60625559306193 -31.241385435432253 C71.25935679692223 -31.1357970976676, 71.91245800078254 -31.030208759902948, 72.59962180409322 -30.91911344521856 C73.3469674679788 -30.7485366743229, 74.09431313186438 -30.577959903427242, 74.56824439314947 -30.469788185729428 C75.23853612821254 -30.270849117195826, 75.9088278632756 -30.07191004866222, 76.50403386774406 -29.895256030836062 C77.10364942744998 -29.674591962078807, 77.7032649871559 -29.453927893321556, 78.39903565370028 -29.197877856399685 C79.03282167168652 -28.917319586831415, 79.66660768967276 -28.636761317263144, 80.24546278220308 -28.380519338926202 C80.87226523335481 -28.053516901646475, 81.49906768450654 -27.726514464366748, 82.03572788812403 -27.44653917988677 C82.4090511395696 -27.22022843096952, 82.78237439101518 -26.993917682052267, 83.76247438813228 -26.399775304092984 C84.37497054432897 -25.972524500061425, 84.98746670052569 -25.545273696029867, 85.4186067104733 -25.244529088840633 C85.73908559769208 -24.98895570458501, 86.05956448491087 -24.733382320329387, 86.99731945219533 -23.985547688627737 C87.45714479112254 -23.56794648212582, 87.91697013004975 -23.150345275623906, 88.49212534400982 -22.62800452807842 C89.01462031780052 -22.08848557000439, 89.5371152915912 -21.548966611930357, 89.89688190787243 -21.177478043231485 C90.2420697687743 -20.77200074007044, 90.58725762967617 -20.36652343690939, 91.20581669774293 -19.63992875855011 C91.60067749955701 -19.110851256678323, 91.99553830137108 -18.58177375480654, 92.4135510198041 -18.02167479384835 C92.67735711283486 -17.616397793098336, 92.9411632058656 -17.21112079234832, 93.5151220346684 -16.329365901781543 C93.83996957014357 -15.752566208165462, 94.16481710561875 -15.175766514549382, 94.5060031507495 -14.56995614258631 C94.82650185724577 -13.904433720973037, 95.14700056374205 -13.238911299359765, 95.38212262499809 -12.750675308355413 C95.68092082989006 -12.012637965401975, 95.97971903478201 -11.274600622448537, 96.13988029456745 -10.878999214271206 C96.34723659506149 -10.254475074923025, 96.55459289555553 -9.629950935574845, 96.77616237065482 -8.962618978877531 C96.90950619916904 -8.454121169171906, 97.04285002768329 -7.945623359466278, 97.28835423372745 -7.009409419623907 C97.41432189663816 -6.3625920938523866, 97.54028955954887 -5.715774768080865, 97.67435117755518 -5.027396693551458 C97.76175255442703 -4.349528873887413, 97.84915393129889 -3.671661054223369, 97.93256705789975 -3.024725316091981 C97.97942998180254 -2.294797449234568, 98.02629290570535 -1.5648695823771555, 98.06194081032167 -1.0096246935071378 C98.06194081032167 -0.2068242537711733, 98.06194081032167 0.5959761859647912, 98.06194081032167 1.00962469350713 C98.0121555162577 1.7850708345195487, 97.96237022219373 2.560516975531967, 97.93256705789975 3.02472531609196 C97.87109174105716 3.50151573384874, 97.80961642421455 3.9783061516055196, 97.67435117755518 5.027396693551435 C97.52025538439202 5.818646023286891, 97.36615959122885 6.609895353022346, 97.28835423372745 7.0094094196239 C97.08565860402447 7.782375704522934, 96.88296297432152 8.555341989421969, 96.77616237065482 8.96261897887751 C96.60591359016809 9.475381180244105, 96.43566480968134 9.988143381610698, 96.13988029456746 10.878999214271184 C95.85024982926558 11.594392063190922, 95.56061936396371 12.30978491211066, 95.38212262499809 12.750675308355405 C95.06050296721848 13.418525409293029, 94.73888330943888 14.086375510230651, 94.5060031507495 14.569956142586303 C94.20150312986354 15.110626763639965, 93.89700310897759 15.651297384693628, 93.51512203466841 16.329365901781536 C93.16585314408427 16.865936709548, 92.81658425350011 17.40250751731446, 92.41355101980412 18.021674793848334 C92.04255117681122 18.518780784677816, 91.67155133381833 19.015886775507294, 91.20581669774295 19.639928758550102 C90.84725731082683 20.061113017028866, 90.48869792391072 20.48229727550763, 89.89688190787246 21.177478043231467 C89.5379612895342 21.548093049596506, 89.17904067119595 21.918708055961545, 88.49212534400982 22.628004528078414 C88.04737001088618 23.03191955404003, 87.60261467776255 23.435834580001647, 86.99731945219536 23.985547688627715 C86.37898911197802 24.47864968048965, 85.76065877176067 24.97175167235158, 85.41860671047331 25.24452908884063 C85.01378153243522 25.526917608440495, 84.60895635439712 25.80930612804036, 83.76247438813229 26.399775304092973 C83.38230017540776 26.630239145998246, 83.00212596268324 26.86070298790352, 82.03572788812404 27.446539179886766 C81.46262674076686 27.745525681374204, 80.88952559340967 28.044512182861645, 80.24546278220309 28.3805193389262 C79.65317585881269 28.642707190343796, 79.06088893542228 28.904895041761392, 78.3990356537003 29.197877856399682 C77.91562855925721 29.375776135720933, 77.43222146481413 29.55367441504218, 76.50403386774407 29.895256030836055 C75.9641333596013 30.05549566765723, 75.42423285145856 30.215735304478404, 74.56824439314951 30.46978818572942 C73.93026130281189 30.615403662870243, 73.29227821247427 30.76101914001107, 72.59962180409323 30.919113445218557 C72.08731733572428 31.00193885868396, 71.57501286735533 31.084764272149364, 70.60625559306196 31.24138543543225 C69.91537643163558 31.308033717231297, 69.22449727020918 31.374681999030344, 68.59633692939245 31.435279871635593 C67.97987657436347 31.455048555354082, 67.3634162193345 31.474817239072575, 66.578125 31.5 C66.578125 31.5, 66.578125 31.5, 66.578125 31.5 C29.44909449329259 31.5, -7.679936013414817 31.5, -66.578125 31.5 C-67.00488183909928 31.48631473880188, -67.43163867819857 31.472629477603764, -68.59633692939244 31.435279871635593 C-69.07238712883547 31.389355881429452, -69.54843732827851 31.343431891223315, -70.60625559306195 31.24138543543225 C-71.12122690167807 31.158128867917338, -71.6361982102942 31.07487230040243, -72.59962180409323 30.919113445218557 C-73.00817475506481 30.825863900216454, -73.4167277060364 30.732614355214352, -74.56824439314947 30.469788185729428 C-75.25337231593174 30.266445814557507, -75.938500238714 30.063103443385582, -76.50403386774403 29.89525603083607 C-77.07868355637065 29.68377963341798, -77.65333324499728 29.47230323599989, -78.39903565370028 29.197877856399685 C-79.13447072995748 28.87232256404704, -79.8699058062147 28.546767271694392, -80.24546278220308 28.380519338926206 C-80.8874750310284 28.045581959942506, -81.52948727985373 27.71064458095881, -82.03572788812403 27.446539179886773 C-82.48001759981166 27.177208145725576, -82.92430731149929 26.907877111564382, -83.76247438813226 26.399775304092994 C-84.4024658035009 25.953344997513682, -85.04245721886953 25.506914690934373, -85.4186067104733 25.244529088840636 C-85.74179546308407 24.986794659047444, -86.06498421569485 24.729060229254255, -86.99731945219533 23.98554768862774 C-87.4120474434916 23.60890270003381, -87.82677543478786 23.232257711439882, -88.4921253440098 22.628004528078435 C-88.94946406215891 22.155764753382424, -89.40680278030801 21.683524978686414, -89.89688190787244 21.177478043231478 C-90.35202098800289 20.64284578156293, -90.80716006813334 20.10821351989438, -91.20581669774293 19.639928758550113 C-91.47676556007404 19.276881966975587, -91.74771442240514 18.91383517540106, -92.4135510198041 18.021674793848355 C-92.78040775274346 17.458084337227344, -93.1472644856828 16.894493880606333, -93.5151220346684 16.329365901781557 C-93.78357303632129 15.852703964735236, -94.05202403797419 15.376042027688916, -94.5060031507495 14.569956142586314 C-94.778244054461 14.004642081007223, -95.05048495817248 13.439328019428132, -95.38212262499809 12.750675308355417 C-95.54409719786756 12.350594981802509, -95.70607177073703 11.950514655249602, -96.13988029456745 10.878999214271209 C-96.33736198945216 10.284215813713594, -96.53484368433686 9.68943241315598, -96.77616237065482 8.962618978877522 C-96.93648178095869 8.351251584516875, -97.09680119126257 7.739884190156229, -97.28835423372743 7.009409419623911 C-97.40400475817032 6.415568419356744, -97.51965528261319 5.821727419089578, -97.67435117755518 5.027396693551461 C-97.72788509069666 4.612198234693044, -97.78141900383812 4.196999775834627, -97.93256705789975 3.024725316091999 C-97.97216787016714 2.407910699826915, -98.01176868243455 1.7910960835618308, -98.06194081032167 1.0096246935071416 C-98.06194081032167 0.48566774870275553, -98.06194081032167 -0.03828919610163051, -98.06194081032167 -1.0096246935071262 C-98.01127611428173 -1.7987682301357266, -97.9606114182418 -2.5879117667643268, -97.93256705789975 -3.024725316091956 C-97.85567736350673 -3.6210666022167124, -97.7787876691137 -4.217407888341469, -97.67435117755518 -5.027396693551446 C-97.59494411160895 -5.435135194495964, -97.51553704566274 -5.842873695440482, -97.28835423372745 -7.009409419623896 C-97.1653892268295 -7.478328284296869, -97.04242421993156 -7.947247148969842, -96.77616237065482 -8.962618978877506 C-96.56700167406169 -9.592577671784687, -96.35784097746854 -10.222536364691868, -96.13988029456746 -10.878999214271168 C-95.8530762098248 -11.587410848565282, -95.56627212508215 -12.295822482859394, -95.38212262499809 -12.750675308355401 C-95.03716418114905 -13.466988897936243, -94.6922057373 -14.183302487517086, -94.5060031507495 -14.5699561425863 C-94.1598543882812 -15.184578321711808, -93.8137056258129 -15.799200500837314, -93.5151220346684 -16.329365901781546 C-93.16429445462246 -16.86833127512804, -92.81346687457653 -17.40729664847453, -92.41355101980412 -18.021674793848344 C-92.1266437546328 -18.406104391388343, -91.83973648946149 -18.790533988928342, -91.20581669774295 -19.639928758550102 C-90.87236015846204 -20.031625783804046, -90.53890361918116 -20.42332280905799, -89.89688190787246 -21.177478043231467 C-89.43338282701168 -21.656078898202455, -88.96988374615091 -22.13467975317344, -88.49212534400984 -22.628004528078403 C-88.09062209916951 -22.992639151848664, -87.68911885432918 -23.357273775618925, -86.99731945219536 -23.98554768862771 C-86.37631403245389 -24.480782985223275, -85.75530861271244 -24.97601828181884, -85.41860671047331 -25.244529088840626 C-85.01291897368016 -25.52751929208845, -84.60723123688702 -25.810509495336277, -83.7624743881323 -26.39977530409297 C-83.40612450401525 -26.615796697989094, -83.04977461989819 -26.83181809188522, -82.03572788812404 -27.446539179886763 C-81.4881550601528 -27.73220757350222, -80.94058223218158 -28.01787596711768, -80.24546278220309 -28.3805193389262 C-79.54219189479834 -28.691836498990625, -78.8389210073936 -29.00315365905505, -78.3990356537003 -29.19787785639968 C-77.83649735551757 -29.404897150177952, -77.27395905733482 -29.611916443956222, -76.50403386774407 -29.895256030836055 C-75.76174501350323 -30.11556346642103, -75.01945615926239 -30.335870902006004, -74.56824439314951 -30.469788185729417 C-74.03543872022311 -30.591397603692922, -73.5026330472967 -30.713007021656427, -72.59962180409325 -30.919113445218553 C-71.97123855610242 -31.02070557556884, -71.3428553081116 -31.122297705919127, -70.60625559306196 -31.24138543543225 C-70.12700665982311 -31.28761800364063, -69.64775772658426 -31.333850571849013, -68.59633692939246 -31.435279871635593 C-67.96590835262077 -31.455496489037877, -67.3354797758491 -31.475713106440164, -66.57812500000001 -31.5 C-66.57812500000001 -31.5, -66.578125 -31.5, -66.578125 -31.5" stroke="none" stroke-width="0" fill="#ECECFF" style=""/><path d="M-66.578125 -31.5 C-22.93139264367573 -31.5, 20.715339712648543 -31.5, 66.578125 -31.5 M-66.578125 -31.5 C-30.44557962784139 -31.5, 5.68696574431722 -31.5, 66.578125 -31.5 M66.578125 -31.5 C66.578125 -31.5, 66.578125 -31.5, 66.578125 -31.5 M66.578125 -31.5 C66.578125 -31.5, 66.578125 -31.5, 66.578125 -31.5 M66.578125 -31.5 C67.30824555029584 -31.47658645504545, 68.03836610059169 -31.453172910090903, 68.59633692939245 -31.435279871635593 M66.578125 -31.5 C67.35657244179552 -31.475036705697644, 68.13501988359106 -31.450073411395287, 68.59633692939245 -31.435279871635593 M68.59633692939245 -31.435279871635593 C69.24108267858509 -31.37308202463119, 69.88582842777774 -31.31088417762679, 70.60625559306193 -31.241385435432253 M68.59633692939245 -31.435279871635593 C69.21771851766611 -31.375335937135528, 69.83910010593979 -31.315392002635466, 70.60625559306193 -31.241385435432253 M70.60625559306193 -31.241385435432253 C71.16437970079433 -31.15115225801118, 71.72250380852671 -31.060919080590107, 72.59962180409322 -30.91911344521856 M70.60625559306193 -31.241385435432253 C71.10888858667155 -31.16012363100253, 71.61152158028118 -31.078861826572812, 72.59962180409322 -30.91911344521856 M72.59962180409322 -30.91911344521856 C72.9944380226536 -30.82899921974876, 73.38925424121396 -30.73888499427896, 74.56824439314947 -30.469788185729428 M72.59962180409322 -30.91911344521856 C73.33129461174775 -30.752113901482694, 74.06296741940227 -30.58511435774683, 74.56824439314947 -30.469788185729428 M74.56824439314947 -30.469788185729428 C75.07257081998392 -30.320106749508398, 75.57689724681838 -30.170425313287367, 76.50403386774406 -29.895256030836062 M74.56824439314947 -30.469788185729428 C75.0215833991782 -30.335239548365106, 75.47492240520693 -30.20069091100078, 76.50403386774406 -29.895256030836062 M76.50403386774406 -29.895256030836062 C76.9591541728988 -29.72776755145313, 77.41427447805357 -29.560279072070195, 78.39903565370028 -29.197877856399685 M76.50403386774406 -29.895256030836062 C76.90917902927252 -29.74615886627277, 77.31432419080099 -29.597061701709475, 78.39903565370028 -29.197877856399685 M78.39903565370028 -29.197877856399685 C78.84865280543397 -28.998845680746104, 79.29826995716768 -28.799813505092526, 80.24546278220308 -28.380519338926202 M78.39903565370028 -29.197877856399685 C78.78397903232066 -29.027474841624056, 79.16892241094104 -28.857071826848426, 80.24546278220308 -28.380519338926202 M80.24546278220308 -28.380519338926202 C80.83335862892558 -28.073814452256336, 81.42125447564807 -27.76710956558647, 82.03572788812403 -27.44653917988677 M80.24546278220308 -28.380519338926202 C80.69765911424487 -28.144608802145573, 81.14985544628667 -27.908698265364944, 82.03572788812403 -27.44653917988677 M82.03572788812403 -27.44653917988677 C82.38766679859543 -27.233191744136395, 82.73960570906685 -27.01984430838602, 83.76247438813228 -26.399775304092984 M82.03572788812403 -27.44653917988677 C82.56565419842894 -27.12529473638726, 83.09558050873386 -26.80405029288775, 83.76247438813228 -26.399775304092984 M83.76247438813228 -26.399775304092984 C84.1447519790054 -26.13311500523008, 84.52702956987854 -25.86645470636718, 85.4186067104733 -25.244529088840633 M83.76247438813228 -26.399775304092984 C84.25221201344172 -26.05815553707722, 84.74194963875118 -25.71653577006146, 85.4186067104733 -25.244529088840633 M85.4186067104733 -25.244529088840633 C85.90449773615701 -24.857043925961094, 86.39038876184073 -24.469558763081555, 86.99731945219533 -23.985547688627737 M85.4186067104733 -25.244529088840633 C85.89574213063703 -24.864026288366833, 86.37287755080075 -24.483523487893038, 86.99731945219533 -23.985547688627737 M86.99731945219533 -23.985547688627737 C87.5402343674917 -23.49248672729706, 88.08314928278809 -22.999425765966386, 88.49212534400982 -22.62800452807842 M86.99731945219533 -23.985547688627737 C87.35562265123723 -23.660146203441037, 87.71392585027911 -23.33474471825434, 88.49212534400982 -22.62800452807842 M88.49212534400982 -22.62800452807842 C88.8848295620281 -22.222505181358628, 89.2775337800464 -21.81700583463883, 89.89688190787243 -21.177478043231485 M88.49212534400982 -22.62800452807842 C88.80837291748936 -22.301452944052137, 89.12462049096891 -21.974901360025857, 89.89688190787243 -21.177478043231485 M89.89688190787243 -21.177478043231485 C90.21772550881586 -20.800596893045256, 90.53856910975928 -20.423715742859027, 91.20581669774293 -19.63992875855011 M89.89688190787243 -21.177478043231485 C90.16473763205349 -20.86283946818593, 90.43259335623456 -20.54820089314037, 91.20581669774293 -19.63992875855011 M91.20581669774293 -19.63992875855011 C91.53475765652418 -19.199177840921074, 91.86369861530541 -18.758426923292042, 92.4135510198041 -18.02167479384835 M91.20581669774293 -19.63992875855011 C91.55355803961221 -19.17398704033323, 91.9012993814815 -18.708045322116355, 92.4135510198041 -18.02167479384835 M92.4135510198041 -18.02167479384835 C92.65371946270932 -17.65271157128898, 92.89388790561452 -17.28374834872961, 93.5151220346684 -16.329365901781543 M92.4135510198041 -18.02167479384835 C92.79602258986328 -17.434095754240417, 93.17849415992245 -16.846516714632482, 93.5151220346684 -16.329365901781543 M93.5151220346684 -16.329365901781543 C93.73078484081387 -15.946434751243073, 93.94644764695936 -15.563503600704603, 94.5060031507495 -14.56995614258631 M93.5151220346684 -16.329365901781543 C93.80475461792503 -15.815093921730073, 94.09438720118166 -15.300821941678604, 94.5060031507495 -14.56995614258631 M94.5060031507495 -14.56995614258631 C94.72197977318078 -14.121476064948348, 94.93795639561205 -13.672995987310388, 95.38212262499809 -12.750675308355413 M94.5060031507495 -14.56995614258631 C94.73393488820169 -14.096651012808948, 94.96186662565387 -13.623345883031586, 95.38212262499809 -12.750675308355413 M95.38212262499809 -12.750675308355413 C95.60317494955669 -12.204671792939722, 95.82422727411529 -11.65866827752403, 96.13988029456745 -10.878999214271206 M95.38212262499809 -12.750675308355413 C95.66994168388217 -12.039756668308781, 95.95776074276625 -11.32883802826215, 96.13988029456745 -10.878999214271206 M96.13988029456745 -10.878999214271206 C96.36804665454807 -10.19179849138218, 96.59621301452867 -9.504597768493152, 96.77616237065482 -8.962618978877531 M96.13988029456745 -10.878999214271206 C96.36441254618028 -10.202743846769419, 96.5889447977931 -9.526488479267632, 96.77616237065482 -8.962618978877531 M96.77616237065482 -8.962618978877531 C96.90203401620441 -8.48261584128066, 97.027905661754 -8.002612703683791, 97.28835423372745 -7.009409419623907 M96.77616237065482 -8.962618978877531 C96.90287310200176 -8.479416043473272, 97.02958383334871 -7.9962131080690115, 97.28835423372745 -7.009409419623907 M97.28835423372745 -7.009409419623907 C97.41007641455259 -6.3843917470788245, 97.53179859537774 -5.759374074533742, 97.67435117755518 -5.027396693551458 M97.28835423372745 -7.009409419623907 C97.40327031422002 -6.419339633816742, 97.5181863947126 -5.829269848009577, 97.67435117755518 -5.027396693551458 M97.67435117755518 -5.027396693551458 C97.73103037637088 -4.587804020110688, 97.78770957518657 -4.148211346669918, 97.93256705789975 -3.024725316091981 M97.67435117755518 -5.027396693551458 C97.73470080366195 -4.559336910848912, 97.79505042976874 -4.091277128146366, 97.93256705789975 -3.024725316091981 M97.93256705789975 -3.024725316091981 C97.97856718728234 -2.308236170322099, 98.02456731666491 -1.591747024552217, 98.06194081032167 -1.0096246935071378 M97.93256705789975 -3.024725316091981 C97.97507384023707 -2.362647870331028, 98.0175806225744 -1.7005704245700748, 98.06194081032167 -1.0096246935071378 M98.06194081032167 -1.0096246935071378 C98.06194081032167 -0.2181932249530424, 98.06194081032167 0.573238243601053, 98.06194081032167 1.00962469350713 M98.06194081032167 -1.0096246935071378 C98.06194081032167 -0.46269033997593545, 98.06194081032167 0.0842440135552669, 98.06194081032167 1.00962469350713 M98.06194081032167 1.00962469350713 C98.02756128958323 1.545113479657993, 97.99318176884479 2.080602265808856, 97.93256705789975 3.02472531609196 M98.06194081032167 1.00962469350713 C98.02876922349397 1.5262989339715776, 97.99559763666626 2.0429731744360247, 97.93256705789975 3.02472531609196 M97.93256705789975 3.02472531609196 C97.85453157846582 3.6299530847331014, 97.7764960990319 4.235180853374243, 97.67435117755518 5.027396693551435 M97.93256705789975 3.02472531609196 C97.87713197901459 3.4546688410307436, 97.82169690012942 3.8846123659695277, 97.67435117755518 5.027396693551435 M97.67435117755518 5.027396693551435 C97.59695684645132 5.42480022647211, 97.51956251534746 5.822203759392784, 97.28835423372745 7.0094094196239 M97.67435117755518 5.027396693551435 C97.57761597582102 5.524111509464253, 97.48088077408686 6.020826325377071, 97.28835423372745 7.0094094196239 M97.28835423372745 7.0094094196239 C97.09638034368277 7.741489064374522, 96.90440645363809 8.473568709125145, 96.77616237065482 8.96261897887751 M97.28835423372745 7.0094094196239 C97.15852688870675 7.504497353715071, 97.02869954368606 7.9995852878062434, 96.77616237065482 8.96261897887751 M96.77616237065482 8.96261897887751 C96.61030071038762 9.462167873135536, 96.44443905012042 9.961716767393563, 96.13988029456746 10.878999214271184 M96.77616237065482 8.96261897887751 C96.56453169777386 9.600016846826344, 96.35290102489289 10.23741471477518, 96.13988029456746 10.878999214271184 M96.13988029456746 10.878999214271184 C95.85742205546168 11.576676525820998, 95.5749638163559 12.27435383737081, 95.38212262499809 12.750675308355405 M96.13988029456746 10.878999214271184 C95.88782256901808 11.501586669582748, 95.6357648434687 12.124174124894312, 95.38212262499809 12.750675308355405 M95.38212262499809 12.750675308355405 C95.10758503980335 13.320758478175563, 94.83304745460863 13.890841647995721, 94.5060031507495 14.569956142586303 M95.38212262499809 12.750675308355405 C95.08528468338793 13.367065645423414, 94.78844674177775 13.983455982491424, 94.5060031507495 14.569956142586303 M94.5060031507495 14.569956142586303 C94.1500811317254 15.201931728376195, 93.79415911270128 15.833907314166089, 93.51512203466841 16.329365901781536 M94.5060031507495 14.569956142586303 C94.26049748893948 15.005876305274018, 94.01499182712944 15.441796467961733, 93.51512203466841 16.329365901781536 M93.51512203466841 16.329365901781536 C93.23706564847548 16.75653517956815, 92.95900926228256 17.183704457354764, 92.41355101980412 18.021674793848334 M93.51512203466841 16.329365901781536 C93.28151836360628 16.688243871901868, 93.04791469254415 17.047121842022197, 92.41355101980412 18.021674793848334 M92.41355101980412 18.021674793848334 C92.06502023829536 18.48867428926268, 91.7164894567866 18.955673784677025, 91.20581669774295 19.639928758550102 M92.41355101980412 18.021674793848334 C92.00082489637413 18.574690199121164, 91.58809877294415 19.127705604394, 91.20581669774295 19.639928758550102 M91.20581669774295 19.639928758550102 C90.80947128650473 20.1054986312833, 90.41312587526652 20.571068504016502, 89.89688190787246 21.177478043231467 M91.20581669774295 19.639928758550102 C90.76935133835215 20.152625805273047, 90.33288597896134 20.66532285199599, 89.89688190787246 21.177478043231467 M89.89688190787246 21.177478043231467 C89.60402346484358 21.479878429784115, 89.3111650218147 21.782278816336763, 88.49212534400982 22.628004528078414 M89.89688190787246 21.177478043231467 C89.59249091517253 21.491786734159405, 89.28809992247261 21.806095425087346, 88.49212534400982 22.628004528078414 M88.49212534400982 22.628004528078414 C88.0574855653366 23.02273287513107, 87.62284578666338 23.417461222183725, 86.99731945219536 23.985547688627715 M88.49212534400982 22.628004528078414 C88.10410149587408 22.98039752040686, 87.71607764773835 23.332790512735308, 86.99731945219536 23.985547688627715 M86.99731945219536 23.985547688627715 C86.51411562089969 24.370889885492037, 86.030911789604 24.75623208235636, 85.41860671047331 25.24452908884063 M86.99731945219536 23.985547688627715 C86.57957468964548 24.318688020106244, 86.1618299270956 24.65182835158477, 85.41860671047331 25.24452908884063 M85.41860671047331 25.24452908884063 C85.0443744526805 25.505577311623554, 84.67014219488769 25.766625534406483, 83.76247438813229 26.399775304092973 M85.41860671047331 25.24452908884063 C84.82823248831964 25.656348589326857, 84.23785826616597 26.068168089813085, 83.76247438813229 26.399775304092973 M83.76247438813229 26.399775304092973 C83.15817048428751 26.766107881887606, 82.55386658044273 27.13244045968224, 82.03572788812404 27.446539179886766 M83.76247438813229 26.399775304092973 C83.14124996266857 26.776365201529032, 82.52002553720484 27.152955098965087, 82.03572788812404 27.446539179886766 M82.03572788812404 27.446539179886766 C81.42522315275112 27.765039109283876, 80.8147184173782 28.083539038680982, 80.24546278220309 28.3805193389262 M82.03572788812404 27.446539179886766 C81.53828128808031 27.70605675249983, 81.04083468803657 27.96557432511289, 80.24546278220309 28.3805193389262 M80.24546278220309 28.3805193389262 C79.56030234146196 28.683819541479952, 78.87514190072085 28.987119744033706, 78.3990356537003 29.197877856399682 M80.24546278220309 28.3805193389262 C79.57563833655635 28.677030751377803, 78.9058138909096 28.973542163829404, 78.3990356537003 29.197877856399682 M78.3990356537003 29.197877856399682 C77.90136861722226 29.381023926207256, 77.40370158074423 29.564169996014826, 76.50403386774407 29.895256030836055 M78.3990356537003 29.197877856399682 C77.94507428837859 29.36493983521093, 77.49111292305689 29.532001814022173, 76.50403386774407 29.895256030836055 M76.50403386774407 29.895256030836055 C76.0592084525186 30.027277879138722, 75.61438303729314 30.15929972744139, 74.56824439314951 30.46978818572942 M76.50403386774407 29.895256030836055 C76.02666612206947 30.03693627199785, 75.54929837639486 30.178616513159643, 74.56824439314951 30.46978818572942 M74.56824439314951 30.46978818572942 C73.86149276887622 30.631099631984437, 73.15474114460294 30.792411078239454, 72.59962180409323 30.919113445218557 M74.56824439314951 30.46978818572942 C73.89220434512731 30.62408991511689, 73.21616429710511 30.77839164450436, 72.59962180409323 30.919113445218557 M72.59962180409323 30.919113445218557 C72.02971951517739 31.01125082763221, 71.45981722626155 31.103388210045868, 70.60625559306196 31.24138543543225 M72.59962180409323 30.919113445218557 C72.02005421860527 31.012813437826498, 71.44048663311729 31.106513430434443, 70.60625559306196 31.24138543543225 M70.60625559306196 31.24138543543225 C70.00864706055114 31.299036011834154, 69.41103852804032 31.35668658823606, 68.59633692939245 31.435279871635593 M70.60625559306196 31.24138543543225 C70.04134956529303 31.29588124053222, 69.47644353752412 31.35037704563219, 68.59633692939245 31.435279871635593 M68.59633692939245 31.435279871635593 C68.17236466592851 31.448875836912933, 67.74839240246457 31.462471802190276, 66.578125 31.5 M68.59633692939245 31.435279871635593 C67.82362559797932 31.46005922004265, 67.05091426656618 31.484838568449703, 66.578125 31.5 M66.578125 31.5 C66.578125 31.5, 66.578125 31.5, 66.578125 31.5 M66.578125 31.5 C66.578125 31.5, 66.578125 31.5, 66.578125 31.5 M66.578125 31.5 C18.79049702767272 31.5, -28.997130944654558 31.5, -66.578125 31.5 M66.578125 31.5 C34.807965882842794 31.5, 3.0378067656855805 31.5, -66.578125 31.5 M-66.578125 31.5 C-67.19463707975397 31.480229657570256, -67.81114915950795 31.46045931514051, -68.59633692939244 31.435279871635593 M-66.578125 31.5 C-67.31067247861691 31.476508628177925, -68.04321995723383 31.453017256355846, -68.59633692939244 31.435279871635593 M-68.59633692939244 31.435279871635593 C-69.09507899975421 31.38716682393289, -69.59382107011596 31.339053776230188, -70.60625559306195 31.24138543543225 M-68.59633692939244 31.435279871635593 C-69.26183807306359 31.371079776687864, -69.92733921673472 31.306879681740135, -70.60625559306195 31.24138543543225 M-70.60625559306195 31.24138543543225 C-71.06367114692996 31.16743403599347, -71.52108670079798 31.093482636554686, -72.59962180409323 30.919113445218557 M-70.60625559306195 31.24138543543225 C-71.20713437289129 31.144240014193976, -71.80801315272063 31.0470945929557, -72.59962180409323 30.919113445218557 M-72.59962180409323 30.919113445218557 C-73.35398561213312 30.746934828717347, -74.10834942017301 30.57475621221614, -74.56824439314947 30.469788185729428 M-72.59962180409323 30.919113445218557 C-73.01385003974694 30.824568553522454, -73.42807827540064 30.73002366182635, -74.56824439314947 30.469788185729428 M-74.56824439314947 30.469788185729428 C-75.24273433283756 30.269603112099944, -75.91722427252566 30.06941803847046, -76.50403386774403 29.89525603083607 M-74.56824439314947 30.469788185729428 C-75.10522296354381 30.310415764694422, -75.64220153393813 30.15104334365942, -76.50403386774403 29.89525603083607 M-76.50403386774403 29.89525603083607 C-77.22773874824082 29.628925944958667, -77.95144362873764 29.362595859081264, -78.39903565370028 29.197877856399685 M-76.50403386774403 29.89525603083607 C-77.13140827034621 29.664376451293062, -77.75878267294839 29.433496871750055, -78.39903565370028 29.197877856399685 M-78.39903565370028 29.197877856399685 C-78.9041225667985 28.97429086284204, -79.40920947989672 28.750703869284393, -80.24546278220308 28.380519338926206 M-78.39903565370028 29.197877856399685 C-79.13662564309715 28.871368647923337, -79.87421563249403 28.544859439446988, -80.24546278220308 28.380519338926206 M-80.24546278220308 28.380519338926206 C-80.85441402785287 28.0628298641226, -81.46336527350265 27.745140389318994, -82.03572788812403 27.446539179886773 M-80.24546278220308 28.380519338926206 C-80.95912831187755 28.00820048921962, -81.67279384155202 27.63588163951304, -82.03572788812403 27.446539179886773 M-82.03572788812403 27.446539179886773 C-82.52121288511468 27.152235321684522, -83.00669788210531 26.85793146348227, -83.76247438813226 26.399775304092994 M-82.03572788812403 27.446539179886773 C-82.53762485735895 27.14228628766259, -83.03952182659387 26.838033395438405, -83.76247438813226 26.399775304092994 M-83.76247438813226 26.399775304092994 C-84.19295102730875 26.09949343563684, -84.62342766648524 25.799211567180688, -85.4186067104733 25.244529088840636 M-83.76247438813226 26.399775304092994 C-84.105889044394 26.16022410606567, -84.44930370065576 25.920672908038345, -85.4186067104733 25.244529088840636 M-85.4186067104733 25.244529088840636 C-85.94877646049397 24.821732821608713, -86.47894621051465 24.398936554376785, -86.99731945219533 23.98554768862774 M-85.4186067104733 25.244529088840636 C-85.98237261472214 24.79494078264296, -86.54613851897098 24.345352476445285, -86.99731945219533 23.98554768862774 M-86.99731945219533 23.98554768862774 C-87.4099296384452 23.610826034542896, -87.82253982469507 23.236104380458055, -88.4921253440098 22.628004528078435 M-86.99731945219533 23.98554768862774 C-87.31771531046783 23.694572647354523, -87.63811116874034 23.403597606081306, -88.4921253440098 22.628004528078435 M-88.4921253440098 22.628004528078435 C-88.80028258622092 22.309806875315363, -89.10843982843203 21.99160922255229, -89.89688190787244 21.177478043231478 M-88.4921253440098 22.628004528078435 C-88.98710908898323 22.11689317247214, -89.48209283395664 21.60578181686584, -89.89688190787244 21.177478043231478 M-89.89688190787244 21.177478043231478 C-90.23615376813468 20.778950011051712, -90.57542562839691 20.380421978871947, -91.20581669774293 19.639928758550113 M-89.89688190787244 21.177478043231478 C-90.36196704204914 20.631162580533683, -90.82705217622586 20.084847117835892, -91.20581669774293 19.639928758550113 M-91.20581669774293 19.639928758550113 C-91.54652916522822 19.183405091664163, -91.8872416327135 18.726881424778213, -92.4135510198041 18.021674793848355 M-91.20581669774293 19.639928758550113 C-91.65851734513323 19.03335113292452, -92.11121799252352 18.426773507298925, -92.4135510198041 18.021674793848355 M-92.4135510198041 18.021674793848355 C-92.73784749789603 17.52346831770163, -93.06214397598795 17.02526184155491, -93.5151220346684 16.329365901781557 M-92.4135510198041 18.021674793848355 C-92.80000770010857 17.427973554751723, -93.18646438041303 16.83427231565509, -93.5151220346684 16.329365901781557 M-93.5151220346684 16.329365901781557 C-93.82812195387075 15.77360285055912, -94.14112187307309 15.217839799336682, -94.5060031507495 14.569956142586314 M-93.5151220346684 16.329365901781557 C-93.76440060956645 15.88674654985719, -94.0136791844645 15.444127197932822, -94.5060031507495 14.569956142586314 M-94.5060031507495 14.569956142586314 C-94.71837345816733 14.128964655236537, -94.93074376558518 13.68797316788676, -95.38212262499809 12.750675308355417 M-94.5060031507495 14.569956142586314 C-94.80736555469775 13.9441706626653, -95.108727958646 13.318385182744287, -95.38212262499809 12.750675308355417 M-95.38212262499809 12.750675308355417 C-95.6516511484974 12.084934644332629, -95.9211796719967 11.419193980309842, -96.13988029456745 10.878999214271209 M-95.38212262499809 12.750675308355417 C-95.67109716648118 12.036902603949502, -95.96007170796427 11.323129899543584, -96.13988029456745 10.878999214271209 M-96.13988029456745 10.878999214271209 C-96.39024797285771 10.12493165793321, -96.64061565114798 9.370864101595213, -96.77616237065482 8.962618978877522 M-96.13988029456745 10.878999214271209 C-96.36389708377574 10.20429633740409, -96.58791387298403 9.529593460536969, -96.77616237065482 8.962618978877522 M-96.77616237065482 8.962618978877522 C-96.8795445070249 8.568378086797026, -96.98292664339499 8.174137194716529, -97.28835423372743 7.009409419623911 M-96.77616237065482 8.962618978877522 C-96.8893595352176 8.530949130438168, -97.00255669978037 8.099279281998816, -97.28835423372743 7.009409419623911 M-97.28835423372743 7.009409419623911 C-97.4346908503405 6.2580018215706925, -97.58102746695357 5.506594223517474, -97.67435117755518 5.027396693551461 M-97.28835423372743 7.009409419623911 C-97.4089398240809 6.39022789893242, -97.52952541443437 5.7710463782409285, -97.67435117755518 5.027396693551461 M-97.67435117755518 5.027396693551461 C-97.76186289934209 4.3486730605162816, -97.849374621129 3.669949427481102, -97.93256705789975 3.024725316091999 M-97.67435117755518 5.027396693551461 C-97.73420513378447 4.56318122853757, -97.79405909001377 4.09896576352368, -97.93256705789975 3.024725316091999 M-97.93256705789975 3.024725316091999 C-97.98042479773109 2.27930238814654, -98.02828253756243 1.5338794602010815, -98.06194081032167 1.0096246935071416 M-97.93256705789975 3.024725316091999 C-97.96015838365761 2.594968146095984, -97.98774970941547 2.165210976099969, -98.06194081032167 1.0096246935071416 M-98.06194081032167 1.0096246935071416 C-98.06194081032167 0.24066208386356436, -98.06194081032167 -0.5283005257800129, -98.06194081032167 -1.0096246935071262 M-98.06194081032167 1.0096246935071416 C-98.06194081032167 0.32424939420055554, -98.06194081032167 -0.3611259051060305, -98.06194081032167 -1.0096246935071262 M-98.06194081032167 -1.0096246935071262 C-98.01492009841532 -1.7420102358840994, -97.96789938650896 -2.4743957782610724, -97.93256705789975 -3.024725316091956 M-98.06194081032167 -1.0096246935071262 C-98.0248808655021 -1.5868632483211225, -97.98782092068251 -2.1641018031351185, -97.93256705789975 -3.024725316091956 M-97.93256705789975 -3.024725316091956 C-97.86759774806711 -3.528614453512516, -97.80262843823448 -4.032503590933077, -97.67435117755518 -5.027396693551446 M-97.93256705789975 -3.024725316091956 C-97.87533351509748 -3.468617372024945, -97.81809997229522 -3.912509427957935, -97.67435117755518 -5.027396693551446 M-97.67435117755518 -5.027396693551446 C-97.54195768806446 -5.7072092807124175, -97.40956419857373 -6.387021867873388, -97.28835423372745 -7.009409419623896 M-97.67435117755518 -5.027396693551446 C-97.55722760015858 -5.6288015094061, -97.440104022762 -6.230206325260753, -97.28835423372745 -7.009409419623896 M-97.28835423372745 -7.009409419623896 C-97.103826464092 -7.713093780085113, -96.91929869445656 -8.41677814054633, -96.77616237065482 -8.962618978877506 M-97.28835423372745 -7.009409419623896 C-97.18416670469755 -7.406721622975645, -97.07997917566763 -7.804033826327395, -96.77616237065482 -8.962618978877506 M-96.77616237065482 -8.962618978877506 C-96.55381774197515 -9.632285574654976, -96.3314731132955 -10.301952170432447, -96.13988029456746 -10.878999214271168 M-96.77616237065482 -8.962618978877506 C-96.59464927339138 -9.509307507650371, -96.41313617612794 -10.055996036423236, -96.13988029456746 -10.878999214271168 M-96.13988029456746 -10.878999214271168 C-95.92979696890042 -11.397909090353535, -95.71971364323339 -11.916818966435901, -95.38212262499809 -12.750675308355401 M-96.13988029456746 -10.878999214271168 C-95.93171399241511 -11.393174005209122, -95.72354769026276 -11.907348796147074, -95.38212262499809 -12.750675308355401 M-95.38212262499809 -12.750675308355401 C-95.07138994155162 -13.395918374146348, -94.76065725810514 -14.041161439937294, -94.5060031507495 -14.5699561425863 M-95.38212262499809 -12.750675308355401 C-95.06695704647358 -13.405123375624667, -94.75179146794905 -14.059571442893933, -94.5060031507495 -14.5699561425863 M-94.5060031507495 -14.5699561425863 C-94.2871280047016 -14.958591127906212, -94.06825285865371 -15.347226113226125, -93.5151220346684 -16.329365901781546 M-94.5060031507495 -14.5699561425863 C-94.26529173987201 -14.99736362727274, -94.02458032899452 -15.42477111195918, -93.5151220346684 -16.329365901781546 M-93.5151220346684 -16.329365901781546 C-93.18336810451022 -16.8390290269083, -92.85161417435205 -17.348692152035056, -92.41355101980412 -18.021674793848344 M-93.5151220346684 -16.329365901781546 C-93.14040869951057 -16.905026209203232, -92.76569536435275 -17.480686516624917, -92.41355101980412 -18.021674793848344 M-92.41355101980412 -18.021674793848344 C-92.03713059898409 -18.52604386514138, -91.66071017816407 -19.03041293643441, -91.20581669774295 -19.639928758550102 M-92.41355101980412 -18.021674793848344 C-92.14661203579757 -18.379348713775382, -91.87967305179103 -18.73702263370242, -91.20581669774295 -19.639928758550102 M-91.20581669774295 -19.639928758550102 C-90.76571055249822 -20.156902479503646, -90.32560440725351 -20.67387620045719, -89.89688190787246 -21.177478043231467 M-91.20581669774295 -19.639928758550102 C-90.82122739045246 -20.09168924264502, -90.436638083162 -20.54344972673994, -89.89688190787246 -21.177478043231467 M-89.89688190787246 -21.177478043231467 C-89.55089787549754 -21.5347349624759, -89.20491384312263 -21.891991881720333, -88.49212534400984 -22.628004528078403 M-89.89688190787246 -21.177478043231467 C-89.3445470099542 -21.747809172870525, -88.79221211203595 -22.318140302509587, -88.49212534400984 -22.628004528078403 M-88.49212534400984 -22.628004528078403 C-88.01272231823773 -23.063385671775638, -87.53331929246565 -23.49876681547287, -86.99731945219536 -23.98554768862771 M-88.49212534400984 -22.628004528078403 C-88.04990402392345 -23.0296182304459, -87.60768270383706 -23.431231932813404, -86.99731945219536 -23.98554768862771 M-86.99731945219536 -23.98554768862771 C-86.57971821346078 -24.318573563682865, -86.1621169747262 -24.651599438738018, -85.41860671047331 -25.244529088840626 M-86.99731945219536 -23.98554768862771 C-86.4783242923704 -24.399432517546884, -85.95932913254545 -24.81331734646606, -85.41860671047331 -25.244529088840626 M-85.41860671047331 -25.244529088840626 C-84.81776539510247 -25.66364998044199, -84.21692407973164 -26.08277087204335, -83.7624743881323 -26.39977530409297 M-85.41860671047331 -25.244529088840626 C-85.0378785544696 -25.510108569012576, -84.65715039846589 -25.775688049184527, -83.7624743881323 -26.39977530409297 M-83.7624743881323 -26.39977530409297 C-83.18644877269304 -26.74896541727451, -82.61042315725378 -27.098155530456047, -82.03572788812404 -27.446539179886763 M-83.7624743881323 -26.39977530409297 C-83.30500104276788 -26.677098334464667, -82.84752769740346 -26.954421364836364, -82.03572788812404 -27.446539179886763 M-82.03572788812404 -27.446539179886763 C-81.52217602599379 -27.71445885741445, -81.00862416386354 -27.982378534942136, -80.24546278220309 -28.3805193389262 M-82.03572788812404 -27.446539179886763 C-81.43117725653225 -27.761932857155045, -80.82662662494045 -28.077326534423324, -80.24546278220309 -28.3805193389262 M-80.24546278220309 -28.3805193389262 C-79.8244145393932 -28.56690490606578, -79.40336629658331 -28.75329047320536, -78.3990356537003 -29.19787785639968 M-80.24546278220309 -28.3805193389262 C-79.52346023849796 -28.700128447579964, -78.80145769479283 -29.01973755623373, -78.3990356537003 -29.19787785639968 M-78.3990356537003 -29.19787785639968 C-77.6485769792988 -29.474053585743373, -76.89811830489728 -29.75022931508707, -76.50403386774407 -29.895256030836055 M-78.3990356537003 -29.19787785639968 C-77.91402040090355 -29.37636795286073, -77.42900514810681 -29.55485804932178, -76.50403386774407 -29.895256030836055 M-76.50403386774407 -29.895256030836055 C-75.9800796910041 -30.050762880200885, -75.45612551426412 -30.206269729565715, -74.56824439314951 -30.469788185729417 M-76.50403386774407 -29.895256030836055 C-75.79293602567283 -30.10630613773406, -75.08183818360158 -30.317356244632062, -74.56824439314951 -30.469788185729417 M-74.56824439314951 -30.469788185729417 C-73.9539505912506 -30.60999673737116, -73.3396567893517 -30.7502052890129, -72.59962180409325 -30.919113445218553 M-74.56824439314951 -30.469788185729417 C-73.93028129623839 -30.61539909950111, -73.29231819932727 -30.761010013272806, -72.59962180409325 -30.919113445218553 M-72.59962180409325 -30.919113445218553 C-71.95255908384911 -31.023725527781284, -71.30549636360497 -31.12833761034402, -70.60625559306196 -31.24138543543225 M-72.59962180409325 -30.919113445218553 C-72.17511899892499 -30.987743766689736, -71.75061619375673 -31.05637408816092, -70.60625559306196 -31.24138543543225 M-70.60625559306196 -31.24138543543225 C-70.18908312304673 -31.281629561891318, -69.7719106530315 -31.32187368835039, -68.59633692939246 -31.435279871635593 M-70.60625559306196 -31.24138543543225 C-69.92493159922623 -31.307111941705596, -69.2436076053905 -31.372838447978943, -68.59633692939246 -31.435279871635593 M-68.59633692939246 -31.435279871635593 C-67.84879400357791 -31.45925211826243, -67.10125107776337 -31.483224364889267, -66.57812500000001 -31.5 M-68.59633692939246 -31.435279871635593 C-67.87583619613581 -31.458384927781534, -67.15533546287917 -31.481489983927474, -66.57812500000001 -31.5 M-66.57812500000001 -31.5 C-66.57812500000001 -31.5, -66.578125 -31.5, -66.578125 -31.5 M-66.57812500000001 -31.5 C-66.57812500000001 -31.5, -66.57812500000001 -31.5, -66.578125 -31.5" stroke="#9370DB" stroke-width="1.3" fill="none" stroke-dasharray="0 0" style=""/></g><g class="label" style="" transform="translate(-82.703125, -24)"><rect/><foreignObject width="165.40625" height="48"><div xmlns="http://www.w3.org/1999/xhtml" style="display: table-cell; white-space: nowrap; line-height: 1.5; max-width: 200px; text-align: center;"><span class="nodeLabel"><p>Universe of Information<br />tools, history, data</p></span></div></foreignObject></g></g><g class="node default" id="mermaid-11-flowchart-B-1" data-look="classic" transform="translate(396.63951110839844, 47)"><rect class="basic label-container" style="" x="-94.484375" y="-39" width="188.96875" height="78"/><g class="label" style="" transform="translate(-64.484375, -24)"><rect/><foreignObject width="128.96875" height="48"><div xmlns="http://www.w3.org/1999/xhtml" style="display: table-cell; white-space: nowrap; line-height: 1.5; max-width: 200px; text-align: center;"><span class="nodeLabel"><p>Context Window<br />high-signal tokens</p></span></div></foreignObject></g></g><g class="node default" id="mermaid-11-flowchart-C-3" data-look="classic" transform="translate(601.5201187133789, 47)"><g class="basic label-container outer-path"><path d="M-40.90625 -19.5 C-17.857159093739515 -19.5, 5.19193181252097 -19.5, 40.90625 -19.5 C40.90625 -19.5, 40.90625 -19.5, 40.90625 -19.5 C41.22458078079977 -19.489791751453026, 41.54291156159954 -19.479583502906056, 42.1556192896239 -19.45993515863156 C42.58370405723849 -19.418638335947037, 43.01178882485308 -19.377341513262515, 43.399854652847864 -19.3399052695533 C43.77838488657735 -19.27870743690972, 44.156915120306834 -19.217509604266144, 44.63384325967676 -19.140403561325776 C44.918654251485464 -19.075397311010853, 45.20346524329417 -19.01039106069593, 45.85251438623539 -18.862249829261074 C46.13228811739514 -18.779214454415143, 46.41206184855489 -18.696179079569212, 47.050860251460605 -18.50658706670804 C47.493840544970936 -18.343566223831292, 47.93682083848127 -18.18054538095455, 48.2239565951478 -18.074876768247425 C48.6705179727008 -17.877197293177314, 49.11707935025381 -17.679517818107207, 49.36698291279238 -17.568892924097174 C49.71333719413894 -17.38820011736918, 50.0596914754855 -17.207507310641187, 50.47524226407678 -16.990714730406097 C50.78320071399342 -16.804028508301897, 51.09115916391006 -16.617342286197697, 51.5441805736057 -16.342718045390892 C51.94635306363749 -16.062179926111213, 52.34852555366928 -15.781641806831532, 52.56940534457871 -15.627565626425154 C52.890144370565984 -15.371784788424241, 53.21088339655326 -15.116003950423327, 53.546703708501866 -14.848196188198123 C53.84799563546794 -14.574570831875088, 54.14928756243401 -14.300945475552052, 54.47205973676799 -14.007812326905688 C54.69828198714948 -13.774219280194625, 54.92450423753097 -13.540626233483565, 55.34167094296865 -13.10986736009568 C55.6556365370082 -12.741065508188424, 55.96960213104776 -12.372263656281167, 56.15196390812658 -12.158051136245305 C56.344077218338846 -11.90063680244348, 56.53619052855111 -11.643222468641655, 56.899608964640635 -11.156274872382312 C57.17072282256364 -10.739771182348171, 57.44183668048664 -10.32326749231403, 57.58153387860425 -10.108655082055241 C57.70951912035617 -9.881404325413655, 57.83750436210809 -9.654153568772069, 58.194936474273504 -9.019496659696287 C58.394461186127984 -8.605179326385532, 58.593985897982456 -8.190861993074776, 58.73729614880834 -7.893275190886684 C58.90911866401896 -7.468870256354109, 59.08094117922958 -7.0444653218215345, 59.206384229970325 -6.734618561215508 C59.33792279293064 -6.3384453674029215, 59.46946135589096 -5.942272173590334, 59.60027313421488 -5.548287939305138 C59.66553160547229 -5.299429105200293, 59.7307900767297 -5.050570271095448, 59.91734428754556 -4.339158212148133 C59.97975382838612 -4.01869841019297, 60.042163369226685 -3.6982386082378076, 60.156294776581774 -3.1121979531509023 C60.2137582870026 -2.6665223137806144, 60.27122179742342 -2.2208466744103266, 60.31614270250937 -1.872449005199798 C60.343492030300666 -1.446461148870259, 60.370841358091965 -1.0204732925407198, 60.39623121591342 -0.6250057626472757 C60.39623121591342 -0.32161038093814615, 60.39623121591342 -0.018214999229016593, 60.39623121591342 0.625005762647271 C60.371895534125116 1.004053649908814, 60.347559852336815 1.383101537170357, 60.31614270250937 1.8724490051997846 C60.26045333642956 2.3043647314055624, 60.20476397034975 2.73628045761134, 60.156294776581774 3.1121979531508885 C60.081282772195536 3.497368741881488, 60.0062707678093 3.882539530612087, 59.91734428754556 4.339158212148129 C59.82877518442966 4.676910588421161, 59.740206081313765 5.014662964694193, 59.60027313421489 5.548287939305125 C59.483379961486364 5.900351551165613, 59.36648678875783 6.2524151630261, 59.206384229970325 6.734618561215495 C59.078643818213045 7.050139847948824, 58.950903406455765 7.365661134682153, 58.73729614880834 7.893275190886679 C58.604471233448464 8.169088969629376, 58.47164631808859 8.444902748372074, 58.194936474273504 9.019496659696284 C58.00528130062997 9.356248625169192, 57.81562612698644 9.6930005906421, 57.58153387860425 10.108655082055236 C57.346894701119865 10.46912386811256, 57.112255523635476 10.829592654169884, 56.89960896464064 11.156274872382301 C56.64832875796183 11.49296745723415, 56.397048551283014 11.829660042085996, 56.15196390812658 12.158051136245302 C55.95629191623524 12.387898591972633, 55.760619924343885 12.617746047699962, 55.34167094296866 13.10986736009567 C54.99957089732155 13.463113744162406, 54.65747085167443 13.816360128229144, 54.47205973676799 14.007812326905684 C54.15930713354403 14.291845966173257, 53.84655453032007 14.57587960544083, 53.54670370850189 14.848196188198111 C53.351151851652055 15.004143590182393, 53.15559999480222 15.160090992166674, 52.56940534457871 15.627565626425152 C52.17299324494153 15.904085546728835, 51.77658114530435 16.180605467032517, 51.54418057360571 16.34271804539089 C51.152936497159494 16.579892503737984, 50.76169242071328 16.81706696208508, 50.47524226407678 16.990714730406093 C50.15478959480811 17.15789468270383, 49.83433692553943 17.32507463500157, 49.36698291279239 17.56889292409717 C49.06873088442527 17.700920249723215, 48.77047885605816 17.832947575349262, 48.223956595147804 18.07487676824742 C47.96153998841932 18.171448505276025, 47.699123381690825 18.26802024230463, 47.05086025146062 18.506587066708033 C46.8016379531146 18.58055493666259, 46.55241565476859 18.654522806617152, 45.85251438623541 18.86224982926107 C45.52847715745582 18.936209212189482, 45.20443992867623 19.01016859511789, 44.633843259676766 19.140403561325773 C44.293329330503866 19.195455212669486, 43.95281540133097 19.2505068640132, 43.39985465284788 19.3399052695533 C42.935468998659935 19.384703995107348, 42.471083344472 19.429502720661397, 42.1556192896239 19.45993515863156 C41.78615088761835 19.47178329115726, 41.4166824856128 19.483631423682958, 40.90625000000001 19.5 C40.90625000000001 19.5, 40.90625 19.5, 40.90625 19.5 C15.069527594797893 19.5, -10.767194810404213 19.5, -40.90624999999999 19.5 C-41.21127286346857 19.49021851045955, -41.51629572693715 19.480437020919098, -42.15561928962389 19.45993515863156 C-42.6285072172882 19.414316228980724, -43.10139514495252 19.368697299329888, -43.39985465284787 19.3399052695533 C-43.83010820203588 19.270345212386687, -44.2603617512239 19.200785155220075, -44.63384325967676 19.140403561325773 C-45.092570161456344 19.03570213946737, -45.55129706323593 18.93100071760897, -45.852514386235384 18.862249829261074 C-46.23041159259561 18.750091922036276, -46.60830879895583 18.637934014811478, -47.05086025146059 18.506587066708043 C-47.417870483415236 18.371523908743338, -47.78488071536989 18.236460750778637, -48.2239565951478 18.074876768247425 C-48.56042336148671 17.925932911721187, -48.89689012782563 17.77698905519495, -49.36698291279238 17.568892924097174 C-49.69068635705641 17.400017044566585, -50.01438980132043 17.231141165035993, -50.47524226407678 16.990714730406097 C-50.87579860615377 16.747895121908677, -51.27635494823077 16.505075513411256, -51.544180573605686 16.3427180453909 C-51.74935288941796 16.199598719646662, -51.95452520523023 16.05647939390242, -52.56940534457871 15.627565626425156 C-52.819623625442745 15.428023206024188, -53.06984190630677 15.22848078562322, -53.546703708501866 14.848196188198125 C-53.88820624630821 14.538052619024418, -54.22970878411455 14.227909049850712, -54.472059736767974 14.007812326905697 C-54.724250946853275 13.74740419720921, -54.97644215693858 13.486996067512722, -55.341670942968655 13.109867360095677 C-55.51581365938192 12.905309416395381, -55.689956375795184 12.700751472695083, -56.151963908126575 12.158051136245307 C-56.370173447284834 11.86567023307121, -56.5883829864431 11.573289329897115, -56.899608964640635 11.156274872382316 C-57.08785866418057 10.86707278176668, -57.27610836372051 10.577870691151043, -57.58153387860425 10.108655082055249 C-57.72959952472278 9.845749534099316, -57.877665170841304 9.582843986143383, -58.194936474273504 9.019496659696289 C-58.364658919101636 8.667064371532101, -58.53438136392977 8.314632083367913, -58.73729614880834 7.893275190886686 C-58.889405286125736 7.517562680882619, -59.041514423443125 7.141850170878552, -59.206384229970325 6.73461856121551 C-59.2930074020428 6.473723368461403, -59.379630574115275 6.212828175707298, -59.60027313421488 5.5482879393051325 C-59.71566335461186 5.108255018493576, -59.831053575008845 4.668222097682019, -59.91734428754556 4.339158212148136 C-59.97603146576948 4.03781195550781, -60.0347186439934 3.736465698867485, -60.156294776581774 3.112197953150904 C-60.19901900567225 2.7808372691785053, -60.24174323476272 2.4494765852061064, -60.31614270250937 1.872449005199809 C-60.337512702819346 1.5395940008181572, -60.35888270312932 1.2067389964365054, -60.39623121591342 0.6250057626472781 C-60.39623121591342 0.14396254546045167, -60.39623121591342 -0.3370806717263748, -60.39623121591342 -0.6250057626472687 C-60.37680296936676 -0.9276163848098615, -60.3573747228201 -1.2302270069724544, -60.31614270250937 -1.8724490051997822 C-60.28236835240794 -2.13439619508664, -60.24859400230652 -2.3963433849734974, -60.156294776581774 -3.112197953150895 C-60.07030856531472 -3.5537189748150295, -59.98432235404767 -3.9952399964791643, -59.91734428754556 -4.339158212148126 C-59.82333733595027 -4.697647461451519, -59.72933038435498 -5.056136710754912, -59.60027313421489 -5.548287939305123 C-59.51192288719575 -5.814384806626558, -59.42357264017661 -6.080481673947992, -59.20638422997033 -6.734618561215485 C-59.08456307472611 -7.035519169920512, -58.96274191948189 -7.33641977862554, -58.73729614880834 -7.893275190886676 C-58.569587769532056 -8.241525228838354, -58.40187939025577 -8.589775266790031, -58.194936474273504 -9.019496659696282 C-58.048116772407575 -9.280189907466184, -57.901297070541645 -9.540883155236088, -57.58153387860425 -10.108655082055243 C-57.354255174478034 -10.457816204470578, -57.12697647035181 -10.806977326885914, -56.89960896464064 -11.156274872382308 C-56.721064301282574 -11.395508455528674, -56.5425196379245 -11.63474203867504, -56.15196390812659 -12.158051136245302 C-55.86516624031834 -12.494939996102474, -55.57836857251009 -12.831828855959646, -55.34167094296866 -13.10986736009567 C-55.1191519124314 -13.33963652827756, -54.896632881894135 -13.569405696459452, -54.472059736767996 -14.007812326905677 C-54.12142496704669 -14.326249547478938, -53.77079019732539 -14.644686768052198, -53.54670370850189 -14.848196188198107 C-53.21963304139746 -15.109026341497904, -52.892562374293036 -15.3698564947977, -52.56940534457872 -15.627565626425149 C-52.32078493068971 -15.800992464549866, -52.07216451680071 -15.974419302674582, -51.544180573605715 -16.342718045390885 C-51.12111042472918 -16.599185655876003, -50.69804027585264 -16.85565326636112, -50.47524226407679 -16.99071473040609 C-50.10429208270128 -17.184239202424767, -49.733341901325765 -17.37776367444344, -49.36698291279239 -17.56889292409717 C-49.035456463160216 -17.71564984896662, -48.70393001352805 -17.862406773836067, -48.223956595147804 -18.07487676824742 C-47.92817897900944 -18.18372566512465, -47.632401362871065 -18.292574562001885, -47.05086025146062 -18.506587066708033 C-46.80889159625044 -18.578402093455026, -46.56692294104026 -18.650217120202015, -45.85251438623541 -18.862249829261067 C-45.40319446377328 -18.964804169476537, -44.95387454131115 -19.067358509692006, -44.633843259676766 -19.140403561325773 C-44.252984038360395 -19.20197792662083, -43.872124817044025 -19.263552291915886, -43.39985465284788 -19.3399052695533 C-43.04146288092792 -19.37447889276125, -42.68307110900796 -19.4090525159692, -42.1556192896239 -19.45993515863156 C-41.81457349070789 -19.470871833597418, -41.47352769179189 -19.481808508563276, -40.90625000000001 -19.5 C-40.90625000000001 -19.5, -40.90625 -19.5, -40.90625 -19.5" stroke="none" stroke-width="0" fill="#ECECFF" style=""/><path d="M-40.90625 -19.5 C-20.1602568506394 -19.5, 0.5857362987212014 -19.5, 40.90625 -19.5 M-40.90625 -19.5 C-22.405481750282483 -19.5, -3.9047135005649665 -19.5, 40.90625 -19.5 M40.90625 -19.5 C40.90625 -19.5, 40.90625 -19.5, 40.90625 -19.5 M40.90625 -19.5 C40.90625 -19.5, 40.90625 -19.5, 40.90625 -19.5 M40.90625 -19.5 C41.319562125579324 -19.48674588459592, 41.732874251158655 -19.47349176919184, 42.1556192896239 -19.45993515863156 M40.90625 -19.5 C41.35678924828595 -19.485552083228917, 41.8073284965719 -19.471104166457835, 42.1556192896239 -19.45993515863156 M42.1556192896239 -19.45993515863156 C42.50616193797771 -19.426118730934082, 42.85670458633151 -19.392302303236605, 43.399854652847864 -19.3399052695533 M42.1556192896239 -19.45993515863156 C42.539264663121 -19.42292535085136, 42.922910036618106 -19.38591554307116, 43.399854652847864 -19.3399052695533 M43.399854652847864 -19.3399052695533 C43.861240729090774 -19.265311946848804, 44.32262680533369 -19.190718624144314, 44.63384325967676 -19.140403561325776 M43.399854652847864 -19.3399052695533 C43.87648339881062 -19.26284763021717, 44.353112144773384 -19.18578999088104, 44.63384325967676 -19.140403561325776 M44.63384325967676 -19.140403561325776 C44.93546103516093 -19.071561272311442, 45.237078810645095 -19.002718983297104, 45.85251438623539 -18.862249829261074 M44.63384325967676 -19.140403561325776 C45.10070061773805 -19.03384641587726, 45.56755797579934 -18.927289270428744, 45.85251438623539 -18.862249829261074 M45.85251438623539 -18.862249829261074 C46.09499424071137 -18.790283081255332, 46.33747409518735 -18.718316333249593, 47.050860251460605 -18.50658706670804 M45.85251438623539 -18.862249829261074 C46.311901573355016 -18.725906123496525, 46.77128876047463 -18.589562417731972, 47.050860251460605 -18.50658706670804 M47.050860251460605 -18.50658706670804 C47.457142133566734 -18.357071578464435, 47.86342401567287 -18.20755609022083, 48.2239565951478 -18.074876768247425 M47.050860251460605 -18.50658706670804 C47.416697846036875 -18.37195545013832, 47.78253544061315 -18.237323833568595, 48.2239565951478 -18.074876768247425 M48.2239565951478 -18.074876768247425 C48.56253676787709 -17.92499736940414, 48.901116940606386 -17.775117970560856, 49.36698291279238 -17.568892924097174 M48.2239565951478 -18.074876768247425 C48.59714209267161 -17.90967861864809, 48.97032759019543 -17.74448046904876, 49.36698291279238 -17.568892924097174 M49.36698291279238 -17.568892924097174 C49.81003678185445 -17.33775200439704, 50.25309065091652 -17.106611084696908, 50.47524226407678 -16.990714730406097 M49.36698291279238 -17.568892924097174 C49.77833852161468 -17.354288966460427, 50.18969413043697 -17.139685008823676, 50.47524226407678 -16.990714730406097 M50.47524226407678 -16.990714730406097 C50.75799219914685 -16.819310058143568, 51.04074213421691 -16.64790538588104, 51.5441805736057 -16.342718045390892 M50.47524226407678 -16.990714730406097 C50.87933414806821 -16.745751855622995, 51.28342603205963 -16.500788980839896, 51.5441805736057 -16.342718045390892 M51.5441805736057 -16.342718045390892 C51.83816523858915 -16.137647069489475, 52.13214990357259 -15.932576093588057, 52.56940534457871 -15.627565626425154 M51.5441805736057 -16.342718045390892 C51.79492322919057 -16.1678108233295, 52.045665884775445 -15.99290360126811, 52.56940534457871 -15.627565626425154 M52.56940534457871 -15.627565626425154 C52.854892266426276 -15.399897403377771, 53.14037918827384 -15.172229180330387, 53.546703708501866 -14.848196188198123 M52.56940534457871 -15.627565626425154 C52.90166045652037 -15.362601016331535, 53.23391556846203 -15.097636406237918, 53.546703708501866 -14.848196188198123 M53.546703708501866 -14.848196188198123 C53.91115983503495 -14.517206777061466, 54.27561596156804 -14.186217365924808, 54.47205973676799 -14.007812326905688 M53.546703708501866 -14.848196188198123 C53.77851919811326 -14.63766749403481, 54.01033468772465 -14.427138799871496, 54.47205973676799 -14.007812326905688 M54.47205973676799 -14.007812326905688 C54.66465478917179 -13.808942122950889, 54.857249841575594 -13.610071918996088, 55.34167094296865 -13.10986736009568 M54.47205973676799 -14.007812326905688 C54.772089041287906 -13.69800743712486, 55.07211834580783 -13.388202547344031, 55.34167094296865 -13.10986736009568 M55.34167094296865 -13.10986736009568 C55.661068559720476 -12.734684745219734, 55.98046617647231 -12.359502130343788, 56.15196390812658 -12.158051136245305 M55.34167094296865 -13.10986736009568 C55.53002994332642 -12.888610160344694, 55.7183889436842 -12.667352960593709, 56.15196390812658 -12.158051136245305 M56.15196390812658 -12.158051136245305 C56.43825254188298 -11.77445044844281, 56.72454117563938 -11.390849760640313, 56.899608964640635 -11.156274872382312 M56.15196390812658 -12.158051136245305 C56.38835301680506 -11.84131126610697, 56.624742125483536 -11.524571395968637, 56.899608964640635 -11.156274872382312 M56.899608964640635 -11.156274872382312 C57.12437793387512 -10.810969376718862, 57.3491469031096 -10.465663881055415, 57.58153387860425 -10.108655082055241 M56.899608964640635 -11.156274872382312 C57.16516221374702 -10.748313770723042, 57.43071546285339 -10.340352669063774, 57.58153387860425 -10.108655082055241 M57.58153387860425 -10.108655082055241 C57.80208809201928 -9.71703874260098, 58.02264230543431 -9.32542240314672, 58.194936474273504 -9.019496659696287 M57.58153387860425 -10.108655082055241 C57.77113791100559 -9.771993923036455, 57.96074194340694 -9.435332764017668, 58.194936474273504 -9.019496659696287 M58.194936474273504 -9.019496659696287 C58.323103479661 -8.753355130674544, 58.4512704850485 -8.487213601652803, 58.73729614880834 -7.893275190886684 M58.194936474273504 -9.019496659696287 C58.40644165801061 -8.580301620180228, 58.61794684174771 -8.14110658066417, 58.73729614880834 -7.893275190886684 M58.73729614880834 -7.893275190886684 C58.9244793570702 -7.430929047538758, 59.111662565332054 -6.968582904190832, 59.206384229970325 -6.734618561215508 M58.73729614880834 -7.893275190886684 C58.86603147779936 -7.575296439350605, 58.99476680679037 -7.257317687814525, 59.206384229970325 -6.734618561215508 M59.206384229970325 -6.734618561215508 C59.290973870592204 -6.4798480411913655, 59.375563511214075 -6.225077521167222, 59.60027313421488 -5.548287939305138 M59.206384229970325 -6.734618561215508 C59.33910615867328 -6.334881258329798, 59.471828087376245 -5.935143955444088, 59.60027313421488 -5.548287939305138 M59.60027313421488 -5.548287939305138 C59.720518979477355 -5.089738416440323, 59.84076482473983 -4.631188893575508, 59.91734428754556 -4.339158212148133 M59.60027313421488 -5.548287939305138 C59.7166836361492 -5.104364242798901, 59.83309413808352 -4.660440546292665, 59.91734428754556 -4.339158212148133 M59.91734428754556 -4.339158212148133 C59.96691508581523 -4.084622639825317, 60.016485884084894 -3.8300870675024994, 60.156294776581774 -3.1121979531509023 M59.91734428754556 -4.339158212148133 C60.010168977847044 -3.862523045955266, 60.10299366814852 -3.3858878797623992, 60.156294776581774 -3.1121979531509023 M60.156294776581774 -3.1121979531509023 C60.19302470986927 -2.8273278437187956, 60.22975464315677 -2.542457734286689, 60.31614270250937 -1.872449005199798 M60.156294776581774 -3.1121979531509023 C60.19531262664298 -2.809583213022158, 60.234330476704194 -2.506968472893414, 60.31614270250937 -1.872449005199798 M60.31614270250937 -1.872449005199798 C60.3393302275162 -1.5112845865850586, 60.36251775252303 -1.1501201679703192, 60.39623121591342 -0.6250057626472757 M60.31614270250937 -1.872449005199798 C60.342646498228945 -1.4596309933885006, 60.36915029394853 -1.046812981577203, 60.39623121591342 -0.6250057626472757 M60.39623121591342 -0.6250057626472757 C60.39623121591342 -0.2680751104567207, 60.39623121591342 0.08885554173383425, 60.39623121591342 0.625005762647271 M60.39623121591342 -0.6250057626472757 C60.39623121591342 -0.22339882253816806, 60.39623121591342 0.17820811757093957, 60.39623121591342 0.625005762647271 M60.39623121591342 0.625005762647271 C60.37314305528995 0.9846225007855913, 60.350054894666485 1.3442392389239117, 60.31614270250937 1.8724490051997846 M60.39623121591342 0.625005762647271 C60.37046240051726 1.0263758626558395, 60.3446935851211 1.427745962664408, 60.31614270250937 1.8724490051997846 M60.31614270250937 1.8724490051997846 C60.26944309902988 2.234641907906931, 60.22274349555039 2.5968348106140775, 60.156294776581774 3.1121979531508885 M60.31614270250937 1.8724490051997846 C60.281575116871984 2.1405483732614554, 60.2470075312346 2.4086477413231266, 60.156294776581774 3.1121979531508885 M60.156294776581774 3.1121979531508885 C60.07771843718306 3.5156708488480874, 59.99914209778434 3.919143744545286, 59.91734428754556 4.339158212148129 M60.156294776581774 3.1121979531508885 C60.10012959256162 3.400594302578518, 60.04396440854148 3.688990652006148, 59.91734428754556 4.339158212148129 M59.91734428754556 4.339158212148129 C59.82780875889804 4.680595987824727, 59.73827323025051 5.022033763501327, 59.60027313421489 5.548287939305125 M59.91734428754556 4.339158212148129 C59.85235862747388 4.586976698964677, 59.787372967402206 4.834795185781226, 59.60027313421489 5.548287939305125 M59.60027313421489 5.548287939305125 C59.49295088297777 5.871525460552735, 59.38562863174065 6.194762981800345, 59.206384229970325 6.734618561215495 M59.60027313421489 5.548287939305125 C59.449008436967205 6.003873106658569, 59.29774373971953 6.459458274012013, 59.206384229970325 6.734618561215495 M59.206384229970325 6.734618561215495 C59.06813096509017 7.076106798414513, 58.92987770021002 7.417595035613531, 58.73729614880834 7.893275190886679 M59.206384229970325 6.734618561215495 C59.09498285622064 7.009782108176267, 58.983581482470946 7.284945655137038, 58.73729614880834 7.893275190886679 M58.73729614880834 7.893275190886679 C58.62666634920524 8.12300033686104, 58.51603654960213 8.3527254828354, 58.194936474273504 9.019496659696284 M58.73729614880834 7.893275190886679 C58.53922183314842 8.304580745465936, 58.341147517488494 8.715886300045192, 58.194936474273504 9.019496659696284 M58.194936474273504 9.019496659696284 C58.06202664816361 9.255491514533695, 57.929116822053714 9.491486369371106, 57.58153387860425 10.108655082055236 M58.194936474273504 9.019496659696284 C58.04769944496341 9.280930914602287, 57.900462415653315 9.542365169508292, 57.58153387860425 10.108655082055236 M57.58153387860425 10.108655082055236 C57.343902873191304 10.473720119229116, 57.10627186777836 10.838785156402995, 56.89960896464064 11.156274872382301 M57.58153387860425 10.108655082055236 C57.32106620912426 10.508803367739027, 57.060598539644275 10.908951653422818, 56.89960896464064 11.156274872382301 M56.89960896464064 11.156274872382301 C56.74473438442138 11.363792700511597, 56.58985980420212 11.571310528640895, 56.15196390812658 12.158051136245302 M56.89960896464064 11.156274872382301 C56.7118375825662 11.407871418037237, 56.52406620049176 11.65946796369217, 56.15196390812658 12.158051136245302 M56.15196390812658 12.158051136245302 C55.83087451852554 12.535221003774534, 55.509785128924506 12.912390871303765, 55.34167094296866 13.10986736009567 M56.15196390812658 12.158051136245302 C55.95016706535859 12.395093190326227, 55.7483702225906 12.63213524440715, 55.34167094296866 13.10986736009567 M55.34167094296866 13.10986736009567 C55.10294863457512 13.356367742978021, 54.86422632618158 13.602868125860372, 54.47205973676799 14.007812326905684 M55.34167094296866 13.10986736009567 C55.01284258033261 13.44940964182805, 54.68401421769656 13.788951923560427, 54.47205973676799 14.007812326905684 M54.47205973676799 14.007812326905684 C54.12419097155618 14.323737535367888, 53.77632220634438 14.639662743830092, 53.54670370850189 14.848196188198111 M54.47205973676799 14.007812326905684 C54.134297400503506 14.314559143999388, 53.79653506423902 14.62130596109309, 53.54670370850189 14.848196188198111 M53.54670370850189 14.848196188198111 C53.27171227182496 15.0674945411185, 52.99672083514804 15.286792894038888, 52.56940534457871 15.627565626425152 M53.54670370850189 14.848196188198111 C53.306571609368554 15.039695147073417, 53.06643951023522 15.231194105948722, 52.56940534457871 15.627565626425152 M52.56940534457871 15.627565626425152 C52.30118185099211 15.814666724343269, 52.03295835740551 16.001767822261385, 51.54418057360571 16.34271804539089 M52.56940534457871 15.627565626425152 C52.27533584742194 15.832695777578357, 51.98126635026517 16.03782592873156, 51.54418057360571 16.34271804539089 M51.54418057360571 16.34271804539089 C51.15925426613603 16.576062635057077, 50.77432795866635 16.809407224723266, 50.47524226407678 16.990714730406093 M51.54418057360571 16.34271804539089 C51.21490355583339 16.542327708611012, 50.88562653806107 16.741937371831135, 50.47524226407678 16.990714730406093 M50.47524226407678 16.990714730406093 C50.176511141644255 17.146562565632728, 49.87778001921173 17.30241040085936, 49.36698291279239 17.56889292409717 M50.47524226407678 16.990714730406093 C50.15038651851121 17.160191764787616, 49.82553077294564 17.329668799169138, 49.36698291279239 17.56889292409717 M49.36698291279239 17.56889292409717 C48.9141605598039 17.76934394726733, 48.46133820681541 17.969794970437487, 48.223956595147804 18.07487676824742 M49.36698291279239 17.56889292409717 C48.93217336802741 17.761370211397754, 48.497363823262425 17.953847498698337, 48.223956595147804 18.07487676824742 M48.223956595147804 18.07487676824742 C47.82579117385517 18.221405323883918, 47.42762575256254 18.36793387952041, 47.05086025146062 18.506587066708033 M48.223956595147804 18.07487676824742 C47.89268874606615 18.1967863989159, 47.561420896984494 18.318696029584377, 47.05086025146062 18.506587066708033 M47.05086025146062 18.506587066708033 C46.80577634845995 18.579326682646972, 46.56069244545929 18.65206629858591, 45.85251438623541 18.86224982926107 M47.05086025146062 18.506587066708033 C46.71921992204762 18.6050161756622, 46.38757959263462 18.703445284616365, 45.85251438623541 18.86224982926107 M45.85251438623541 18.86224982926107 C45.53176148462336 18.935459585945726, 45.211008583011306 19.008669342630384, 44.633843259676766 19.140403561325773 M45.85251438623541 18.86224982926107 C45.40952962510261 18.96335821024391, 44.9665448639698 19.064466591226754, 44.633843259676766 19.140403561325773 M44.633843259676766 19.140403561325773 C44.15370405909196 19.21802874374121, 43.673564858507156 19.295653926156653, 43.39985465284788 19.3399052695533 M44.633843259676766 19.140403561325773 C44.322343843520414 19.19076437121588, 44.010844427364056 19.24112518110599, 43.39985465284788 19.3399052695533 M43.39985465284788 19.3399052695533 C43.013104308567264 19.377214610130707, 42.62635396428665 19.41452395070812, 42.1556192896239 19.45993515863156 M43.39985465284788 19.3399052695533 C43.01730090091567 19.376809769913997, 42.63474714898347 19.4137142702747, 42.1556192896239 19.45993515863156 M42.1556192896239 19.45993515863156 C41.67592212978218 19.475318112873804, 41.19622496994047 19.49070106711605, 40.90625000000001 19.5 M42.1556192896239 19.45993515863156 C41.8880721643194 19.468514874191186, 41.62052503901489 19.477094589750816, 40.90625000000001 19.5 M40.90625000000001 19.5 C40.90625000000001 19.5, 40.90625 19.5, 40.90625 19.5 M40.90625000000001 19.5 C40.90625000000001 19.5, 40.90625000000001 19.5, 40.90625 19.5 M40.90625 19.5 C24.04831299551566 19.5, 7.190375991031317 19.5, -40.90624999999999 19.5 M40.90625 19.5 C18.208472376291013 19.5, -4.489305247417974 19.5, -40.90624999999999 19.5 M-40.90624999999999 19.5 C-41.287835290459206 19.487763302445682, -41.66942058091842 19.475526604891368, -42.15561928962389 19.45993515863156 M-40.90624999999999 19.5 C-41.35985362886484 19.485453814508208, -41.81345725772968 19.470907629016413, -42.15561928962389 19.45993515863156 M-42.15561928962389 19.45993515863156 C-42.412166227418936 19.435186384085306, -42.66871316521398 19.410437609539052, -43.39985465284787 19.3399052695533 M-42.15561928962389 19.45993515863156 C-42.63007922767365 19.41416457902946, -43.104539165723395 19.36839399942736, -43.39985465284787 19.3399052695533 M-43.39985465284787 19.3399052695533 C-43.8542004323645 19.266450167425194, -44.30854621188112 19.19299506529709, -44.63384325967676 19.140403561325773 M-43.39985465284787 19.3399052695533 C-43.676639057107764 19.295156913567673, -43.953423461367656 19.250408557582045, -44.63384325967676 19.140403561325773 M-44.63384325967676 19.140403561325773 C-44.90148931707823 19.079315095277636, -45.1691353744797 19.0182266292295, -45.852514386235384 18.862249829261074 M-44.63384325967676 19.140403561325773 C-44.96435845643079 19.06496562447989, -45.294873653184816 18.989527687634006, -45.852514386235384 18.862249829261074 M-45.852514386235384 18.862249829261074 C-46.18088698038697 18.7647905669798, -46.50925957453857 18.667331304698532, -47.05086025146059 18.506587066708043 M-45.852514386235384 18.862249829261074 C-46.27100577743394 18.738043781059485, -46.68949716863249 18.613837732857892, -47.05086025146059 18.506587066708043 M-47.05086025146059 18.506587066708043 C-47.38179942569363 18.384798391422095, -47.712738599926666 18.263009716136143, -48.2239565951478 18.074876768247425 M-47.05086025146059 18.506587066708043 C-47.42689211939025 18.368203863309446, -47.802923987319915 18.229820659910846, -48.2239565951478 18.074876768247425 M-48.2239565951478 18.074876768247425 C-48.49687634490617 17.954063290906124, -48.769796094664535 17.833249813564823, -49.36698291279238 17.568892924097174 M-48.2239565951478 18.074876768247425 C-48.58627736642544 17.91448811066662, -48.94859813770308 17.754099453085814, -49.36698291279238 17.568892924097174 M-49.36698291279238 17.568892924097174 C-49.69703157798573 17.396706746872063, -50.027080243179086 17.224520569646952, -50.47524226407678 16.990714730406097 M-49.36698291279238 17.568892924097174 C-49.75895558721527 17.364401030921236, -50.15092826163816 17.159909137745295, -50.47524226407678 16.990714730406097 M-50.47524226407678 16.990714730406097 C-50.724876026857636 16.839385276397515, -50.974509789638496 16.688055822388936, -51.544180573605686 16.3427180453909 M-50.47524226407678 16.990714730406097 C-50.85055014235656 16.76320088903899, -51.22585802063633 16.535687047671885, -51.544180573605686 16.3427180453909 M-51.544180573605686 16.3427180453909 C-51.85946793141111 16.12278723315558, -52.17475528921653 15.902856420920264, -52.56940534457871 15.627565626425156 M-51.544180573605686 16.3427180453909 C-51.75958639116148 16.192460271831536, -51.97499220871727 16.042202498272168, -52.56940534457871 15.627565626425156 M-52.56940534457871 15.627565626425156 C-52.789099609956864 15.45236529609601, -53.008793875335016 15.277164965766866, -53.546703708501866 14.848196188198125 M-52.56940534457871 15.627565626425156 C-52.80769962867411 15.437532276136293, -53.045993912769504 15.24749892584743, -53.546703708501866 14.848196188198125 M-53.546703708501866 14.848196188198125 C-53.77978407346346 14.63651876770852, -54.01286443842506 14.424841347218916, -54.472059736767974 14.007812326905697 M-53.546703708501866 14.848196188198125 C-53.8447130045077 14.57755203045952, -54.14272230051353 14.306907872720917, -54.472059736767974 14.007812326905697 M-54.472059736767974 14.007812326905697 C-54.77853326780439 13.691353244165754, -55.0850067988408 13.374894161425809, -55.341670942968655 13.109867360095677 M-54.472059736767974 14.007812326905697 C-54.671176741099835 13.802207672122965, -54.8702937454317 13.596603017340234, -55.341670942968655 13.109867360095677 M-55.341670942968655 13.109867360095677 C-55.54979987139585 12.86538727789357, -55.75792879982305 12.620907195691462, -56.151963908126575 12.158051136245307 M-55.341670942968655 13.109867360095677 C-55.55284369797954 12.861811825989728, -55.764016452990425 12.613756291883778, -56.151963908126575 12.158051136245307 M-56.151963908126575 12.158051136245307 C-56.38534093447083 11.845347182028483, -56.6187179608151 11.532643227811658, -56.899608964640635 11.156274872382316 M-56.151963908126575 12.158051136245307 C-56.44847585442335 11.760752141001648, -56.74498780072012 11.36345314575799, -56.899608964640635 11.156274872382316 M-56.899608964640635 11.156274872382316 C-57.09971762610759 10.848854231669627, -57.29982628757454 10.541433590956936, -57.58153387860425 10.108655082055249 M-56.899608964640635 11.156274872382316 C-57.058216599656646 10.912610952884267, -57.21682423467265 10.668947033386218, -57.58153387860425 10.108655082055249 M-57.58153387860425 10.108655082055249 C-57.751432111432635 9.806983565606824, -57.92133034426103 9.505312049158398, -58.194936474273504 9.019496659696289 M-57.58153387860425 10.108655082055249 C-57.73526599881183 9.835688135561476, -57.88899811901942 9.562721189067702, -58.194936474273504 9.019496659696289 M-58.194936474273504 9.019496659696289 C-58.35015211570684 8.697188059177261, -58.50536775714018 8.374879458658231, -58.73729614880834 7.893275190886686 M-58.194936474273504 9.019496659696289 C-58.345209336350216 8.707451846269835, -58.49548219842693 8.39540703284338, -58.73729614880834 7.893275190886686 M-58.73729614880834 7.893275190886686 C-58.867141463379795 7.572554753506822, -58.99698677795124 7.251834316126957, -59.206384229970325 6.73461856121551 M-58.73729614880834 7.893275190886686 C-58.839307623294076 7.641304876649242, -58.941319097779804 7.389334562411797, -59.206384229970325 6.73461856121551 M-59.206384229970325 6.73461856121551 C-59.31498190290873 6.407539673014464, -59.423579575847135 6.080460784813417, -59.60027313421488 5.5482879393051325 M-59.206384229970325 6.73461856121551 C-59.30283370983506 6.444128095000633, -59.3992831896998 6.153637628785757, -59.60027313421488 5.5482879393051325 M-59.60027313421488 5.5482879393051325 C-59.72071969993998 5.088972982323534, -59.84116626566508 4.629658025341936, -59.91734428754556 4.339158212148136 M-59.60027313421488 5.5482879393051325 C-59.69511591522393 5.186611310196337, -59.78995869623297 4.824934681087541, -59.91734428754556 4.339158212148136 M-59.91734428754556 4.339158212148136 C-59.994993744887566 3.940444659915568, -60.072643202229564 3.541731107683, -60.156294776581774 3.112197953150904 M-59.91734428754556 4.339158212148136 C-59.99028131337369 3.9646419997665463, -60.063218339201825 3.590125787384957, -60.156294776581774 3.112197953150904 M-60.156294776581774 3.112197953150904 C-60.19740936012193 2.7933213622062794, -60.238523943662095 2.4744447712616546, -60.31614270250937 1.872449005199809 M-60.156294776581774 3.112197953150904 C-60.21987332133857 2.6190953150209517, -60.28345186609536 2.1259926768909994, -60.31614270250937 1.872449005199809 M-60.31614270250937 1.872449005199809 C-60.33234341736887 1.6201097942814173, -60.34854413222837 1.3677705833630256, -60.39623121591342 0.6250057626472781 M-60.31614270250937 1.872449005199809 C-60.34390176560762 1.4400791907320867, -60.37166082870587 1.0077093762643643, -60.39623121591342 0.6250057626472781 M-60.39623121591342 0.6250057626472781 C-60.39623121591342 0.2892872129613068, -60.39623121591342 -0.046431336724664485, -60.39623121591342 -0.6250057626472687 M-60.39623121591342 0.6250057626472781 C-60.39623121591342 0.1329672511384149, -60.39623121591342 -0.35907126037044834, -60.39623121591342 -0.6250057626472687 M-60.39623121591342 -0.6250057626472687 C-60.37159216146132 -1.0087789240253897, -60.346953107009234 -1.3925520854035107, -60.31614270250937 -1.8724490051997822 M-60.39623121591342 -0.6250057626472687 C-60.376107663805136 -0.9384463301726775, -60.35598411169685 -1.2518868976980864, -60.31614270250937 -1.8724490051997822 M-60.31614270250937 -1.8724490051997822 C-60.25623738802311 -2.337062794712839, -60.196332073536844 -2.8016765842258957, -60.156294776581774 -3.112197953150895 M-60.31614270250937 -1.8724490051997822 C-60.26017043014287 -2.3065588966989456, -60.20419815777638 -2.7406687881981093, -60.156294776581774 -3.112197953150895 M-60.156294776581774 -3.112197953150895 C-60.07349307914763 -3.5373671693302855, -59.99069138171348 -3.9625363855096754, -59.91734428754556 -4.339158212148126 M-60.156294776581774 -3.112197953150895 C-60.07396273894401 -3.534955565538486, -59.99163070130625 -3.9577131779260766, -59.91734428754556 -4.339158212148126 M-59.91734428754556 -4.339158212148126 C-59.80204159815723 -4.778857339287527, -59.6867389087689 -5.218556466426928, -59.60027313421489 -5.548287939305123 M-59.91734428754556 -4.339158212148126 C-59.8396125972251 -4.635582836467736, -59.76188090690464 -4.932007460787347, -59.60027313421489 -5.548287939305123 M-59.60027313421489 -5.548287939305123 C-59.48356275142165 -5.89980101700413, -59.36685236862842 -6.251314094703136, -59.20638422997033 -6.734618561215485 M-59.60027313421489 -5.548287939305123 C-59.47716038857438 -5.91908391382212, -59.35404764293388 -6.289879888339117, -59.20638422997033 -6.734618561215485 M-59.20638422997033 -6.734618561215485 C-59.08632916911163 -7.031156882643178, -58.966274108252925 -7.327695204070872, -58.73729614880834 -7.893275190886676 M-59.20638422997033 -6.734618561215485 C-59.067024972156815 -7.078838622342835, -58.92766571434329 -7.4230586834701855, -58.73729614880834 -7.893275190886676 M-58.73729614880834 -7.893275190886676 C-58.56839661068746 -8.243998695665878, -58.399497072566575 -8.59472220044508, -58.194936474273504 -9.019496659696282 M-58.73729614880834 -7.893275190886676 C-58.55825089670244 -8.265066487839272, -58.37920564459654 -8.63685778479187, -58.194936474273504 -9.019496659696282 M-58.194936474273504 -9.019496659696282 C-57.98079482381192 -9.39972684428429, -57.766653173350335 -9.779957028872296, -57.58153387860425 -10.108655082055243 M-58.194936474273504 -9.019496659696282 C-57.983608827692535 -9.394730295445463, -57.772281181111566 -9.769963931194644, -57.58153387860425 -10.108655082055243 M-57.58153387860425 -10.108655082055243 C-57.39828657035951 -10.390172156311303, -57.21503926211478 -10.671689230567361, -56.89960896464064 -11.156274872382308 M-57.58153387860425 -10.108655082055243 C-57.38947207959309 -10.403713581150713, -57.19741028058193 -10.698772080246183, -56.89960896464064 -11.156274872382308 M-56.89960896464064 -11.156274872382308 C-56.71625931083951 -11.401946704978744, -56.532909657038374 -11.64761853757518, -56.15196390812659 -12.158051136245302 M-56.89960896464064 -11.156274872382308 C-56.636653973020934 -11.508610605460166, -56.373698981401226 -11.860946338538024, -56.15196390812659 -12.158051136245302 M-56.15196390812659 -12.158051136245302 C-55.96150915917145 -12.381770121550232, -55.7710544102163 -12.605489106855163, -55.34167094296866 -13.10986736009567 M-56.15196390812659 -12.158051136245302 C-55.836896634102345 -12.528147084149946, -55.521829360078094 -12.898243032054589, -55.34167094296866 -13.10986736009567 M-55.34167094296866 -13.10986736009567 C-55.11682209322508 -13.342042257889796, -54.8919732434815 -13.574217155683924, -54.472059736767996 -14.007812326905677 M-55.34167094296866 -13.10986736009567 C-55.06236297993795 -13.398275763535114, -54.78305501690724 -13.686684166974558, -54.472059736767996 -14.007812326905677 M-54.472059736767996 -14.007812326905677 C-54.26996636497312 -14.191348180072175, -54.06787299317825 -14.374884033238676, -53.54670370850189 -14.848196188198107 M-54.472059736767996 -14.007812326905677 C-54.21662501997611 -14.239791378263819, -53.96119030318421 -14.471770429621959, -53.54670370850189 -14.848196188198107 M-53.54670370850189 -14.848196188198107 C-53.1935944027354 -15.129791462913623, -52.84048509696891 -15.411386737629137, -52.56940534457872 -15.627565626425149 M-53.54670370850189 -14.848196188198107 C-53.21887797341961 -15.109628488117037, -52.89105223833734 -15.371060788035965, -52.56940534457872 -15.627565626425149 M-52.56940534457872 -15.627565626425149 C-52.19074066461619 -15.891705715037208, -51.81207598465367 -16.155845803649267, -51.544180573605715 -16.342718045390885 M-52.56940534457872 -15.627565626425149 C-52.174508185033105 -15.903028790101656, -51.77961102548749 -16.178491953778163, -51.544180573605715 -16.342718045390885 M-51.544180573605715 -16.342718045390885 C-51.30627500076679 -16.48693780173417, -51.06836942792786 -16.631157558077458, -50.47524226407679 -16.99071473040609 M-51.544180573605715 -16.342718045390885 C-51.290059257568714 -16.49676788055513, -51.035937941531714 -16.650817715719377, -50.47524226407679 -16.99071473040609 M-50.47524226407679 -16.99071473040609 C-50.16469877424605 -17.152725070138192, -49.8541552844153 -17.31473540987029, -49.36698291279239 -17.56889292409717 M-50.47524226407679 -16.99071473040609 C-50.04124873329668 -17.21712887742795, -49.607255202516576 -17.44354302444981, -49.36698291279239 -17.56889292409717 M-49.36698291279239 -17.56889292409717 C-48.91471778364557 -17.76909728080208, -48.462452654498755 -17.96930163750699, -48.223956595147804 -18.07487676824742 M-49.36698291279239 -17.56889292409717 C-48.93174491666134 -17.761559874107956, -48.49650692053029 -17.954226824118738, -48.223956595147804 -18.07487676824742 M-48.223956595147804 -18.07487676824742 C-47.84259012433662 -18.21522315481895, -47.46122365352543 -18.355569541390476, -47.05086025146062 -18.506587066708033 M-48.223956595147804 -18.07487676824742 C-47.968018983202775 -18.16906417530454, -47.71208137125775 -18.26325158236166, -47.05086025146062 -18.506587066708033 M-47.05086025146062 -18.506587066708033 C-46.61826879086085 -18.63497794149513, -46.18567733026109 -18.763368816282224, -45.85251438623541 -18.862249829261067 M-47.05086025146062 -18.506587066708033 C-46.576402673610005 -18.647403585335447, -46.10194509575939 -18.78822010396286, -45.85251438623541 -18.862249829261067 M-45.85251438623541 -18.862249829261067 C-45.560686008333434 -18.928857752159058, -45.26885763043146 -18.995465675057044, -44.633843259676766 -19.140403561325773 M-45.85251438623541 -18.862249829261067 C-45.49112552252476 -18.944734479120296, -45.12973665881411 -19.027219128979524, -44.633843259676766 -19.140403561325773 M-44.633843259676766 -19.140403561325773 C-44.27967485037024 -19.197662763125418, -43.92550644106371 -19.254921964925064, -43.39985465284788 -19.3399052695533 M-44.633843259676766 -19.140403561325773 C-44.23108647617665 -19.205518154656566, -43.82832969267653 -19.270632747987364, -43.39985465284788 -19.3399052695533 M-43.39985465284788 -19.3399052695533 C-42.951218971043396 -19.38318461421363, -42.502583289238906 -19.42646395887396, -42.1556192896239 -19.45993515863156 M-43.39985465284788 -19.3399052695533 C-42.974171684493584 -19.380970393551767, -42.548488716139296 -19.42203551755023, -42.1556192896239 -19.45993515863156 M-42.1556192896239 -19.45993515863156 C-41.852898761825706 -19.469642816748284, -41.550178234027506 -19.47935047486501, -40.90625000000001 -19.5 M-42.1556192896239 -19.45993515863156 C-41.71267430260855 -19.47413954222503, -41.269729315593196 -19.488343925818494, -40.90625000000001 -19.5 M-40.90625000000001 -19.5 C-40.90625000000001 -19.5, -40.90625 -19.5, -40.90625 -19.5 M-40.90625000000001 -19.5 C-40.90625000000001 -19.5, -40.90625000000001 -19.5, -40.90625 -19.5" stroke="#9370DB" stroke-width="1.3" fill="none" stroke-dasharray="0 0" style=""/></g><g class="label" style="" transform="translate(-48.03125, -12)"><rect/><foreignObject width="96.0625" height="24"><div xmlns="http://www.w3.org/1999/xhtml" style="display: table-cell; white-space: nowrap; line-height: 1.5; max-width: 200px; text-align: center;"><span class="nodeLabel"><p>Model Output</p></span></div></foreignObject></g></g></g></g></g><defs><filter id="mermaid-11-drop-shadow" height="130%" width="130%"><feDropShadow dx="4" dy="4" stdDeviation="0" flood-opacity="0.06" flood-color="#000000"/></filter></defs><defs><filter id="mermaid-11-drop-shadow-small" height="150%" width="150%"><feDropShadow dx="2" dy="2" stdDeviation="0" flood-opacity="0.06" flood-color="#000000"/></filter></defs></svg>