<svg id="mermaid-29" width="100%" xmlns="http://www.w3.org/2000/svg" xmlns:xlink="http://www.w3.org/1999/xlink" class="flowchart" style="max-width: 1627.71435546875px;" viewBox="-0.0000019073486328125 0 1627.71435546875 203.718994140625" role="graphics-document document" aria-roledescription="flowchart-v2"><style>#mermaid-29{font-family:arial,sans-serif;font-size:16px;fill:#333;}@keyframes edge-animation-frame{from{stroke-dashoffset:0;}}@keyframes dash{to{stroke-dashoffset:0;}}#mermaid-29 .edge-animation-slow{stroke-dasharray:9,5!important;stroke-dashoffset:900;animation:dash 50s linear infinite;stroke-linecap:round;}#mermaid-29 .edge-animation-fast{stroke-dasharray:9,5!important;stroke-dashoffset:900;animation:dash 20s linear infinite;stroke-linecap:round;}#mermaid-29 .error-icon{fill:#552222;}#mermaid-29 .error-text{fill:#552222;stroke:#552222;}#mermaid-29 .edge-thickness-normal{stroke-width:1px;}#mermaid-29 .edge-thickness-thick{stroke-width:3.5px;}#mermaid-29 .edge-pattern-solid{stroke-dasharray:0;}#mermaid-29 .edge-thickness-invisible{stroke-width:0;fill:none;}#mermaid-29 .edge-pattern-dashed{stroke-dasharray:3;}#mermaid-29 .edge-pattern-dotted{stroke-dasharray:2;}#mermaid-29 .marker{fill:#333333;stroke:#333333;}#mermaid-29 .marker.cross{stroke:#333333;}#mermaid-29 svg{font-family:arial,sans-serif;font-size:16px;}#mermaid-29 p{margin:0;}#mermaid-29 .label{font-family:arial,sans-serif;color:#333;}#mermaid-29 .cluster-label text{fill:#333;}#mermaid-29 .cluster-label span{color:#333;}#mermaid-29 .cluster-label span p{background-color:transparent;}#mermaid-29 .label text,#mermaid-29 span{fill:#333;color:#333;}#mermaid-29 .node rect,#mermaid-29 .node circle,#mermaid-29 .node ellipse,#mermaid-29 .node polygon,#mermaid-29 .node path{fill:#ECECFF;stroke:#9370DB;stroke-width:1px;}#mermaid-29 .rough-node .label text,#mermaid-29 .node .label text,#mermaid-29 .image-shape .label,#mermaid-29 .icon-shape .label{text-anchor:middle;}#mermaid-29 .node .katex path{fill:#000;stroke:#000;stroke-width:1px;}#mermaid-29 .rough-node .label,#mermaid-29 .node .label,#mermaid-29 .image-shape .label,#mermaid-29 .icon-shape .label{text-align:center;}#mermaid-29 .node.clickable{cursor:pointer;}#mermaid-29 .root .anchor path{fill:#333333!important;stroke-width:0;stroke:#333333;}#mermaid-29 .arrowheadPath{fill:#333333;}#mermaid-29 .edgePath .path{stroke:#333333;stroke-width:1px;}#mermaid-29 .flowchart-link{stroke:#333333;fill:none;}#mermaid-29 .edgeLabel{background-color:rgba(232,232,232, 0.8);text-align:center;}#mermaid-29 .edgeLabel p{background-color:rgba(232,232,232, 0.8);}#mermaid-29 .edgeLabel rect{opacity:0.5;background-color:rgba(232,232,232, 0.8);fill:rgba(232,232,232, 0.8);}#mermaid-29 .labelBkg{background-color:rgba(232, 232, 232, 0.5);}#mermaid-29 .cluster rect{fill:#ffffde;stroke:#aaaa33;stroke-width:1px;}#mermaid-29 .cluster text{fill:#333;}#mermaid-29 .cluster span{color:#333;}#mermaid-29 div.mermaidTooltip{position:absolute;text-align:center;max-width:200px;padding:2px;font-family:arial,sans-serif;font-size:12px;background:hsl(80, 100%, 96.2745098039%);border:1px solid #aaaa33;border-radius:2px;pointer-events:none;z-index:100;}#mermaid-29 .flowchartTitleText{text-anchor:middle;font-size:18px;fill:#333;}#mermaid-29 rect.text{fill:none;stroke-width:0;}#mermaid-29 .icon-shape,#mermaid-29 .image-shape{background-color:rgba(232,232,232, 0.8);text-align:center;}#mermaid-29 .icon-shape p,#mermaid-29 .image-shape p{background-color:rgba(232,232,232, 0.8);padding:2px;}#mermaid-29 .icon-shape .label rect,#mermaid-29 .image-shape .label rect{opacity:0.5;background-color:rgba(232,232,232, 0.8);fill:rgba(232,232,232, 0.8);}#mermaid-29 .label-icon{display:inline-block;height:1em;overflow:visible;vertical-align:-0.125em;}#mermaid-29 .node .label-icon path{fill:currentColor;stroke:revert;stroke-width:revert;}#mermaid-29 .node .neo-node{stroke:#9370DB;}#mermaid-29 [data-look="neo"].node rect,#mermaid-29 [data-look="neo"].cluster rect,#mermaid-29 [data-look="neo"].node polygon{stroke:#9370DB;filter:drop-shadow(1px 2px 2px rgba(185, 185, 185, 1));}#mermaid-29 [data-look="neo"].node path{stroke:#9370DB;stroke-width:1px;}#mermaid-29 [data-look="neo"].node .outer-path{filter:drop-shadow(1px 2px 2px rgba(185, 185, 185, 1));}#mermaid-29 [data-look="neo"].node .neo-line path{stroke:#9370DB;filter:none;}#mermaid-29 [data-look="neo"].node circle{stroke:#9370DB;filter:drop-shadow(1px 2px 2px rgba(185, 185, 185, 1));}#mermaid-29 [data-look="neo"].node circle .state-start{fill:#000000;}#mermaid-29 [data-look="neo"].icon-shape .icon{fill:#9370DB;filter:drop-shadow(1px 2px 2px rgba(185, 185, 185, 1));}#mermaid-29 [data-look="neo"].icon-shape .icon-neo path{stroke:#9370DB;filter:drop-shadow(1px 2px 2px rgba(185, 185, 185, 1));}#mermaid-29 :root{--mermaid-font-family:arial,sans-serif;}</style><g><marker id="mermaid-29_flowchart-v2-pointEnd" class="marker flowchart-v2" viewBox="0 0 10 10" refX="5" refY="5" markerUnits="userSpaceOnUse" markerWidth="8" markerHeight="8" orient="auto"><path d="M 0 0 L 10 5 L 0 10 z" class="arrowMarkerPath" style="stroke-width: 1; stroke-dasharray: 1, 0;"/></marker><marker id="mermaid-29_flowchart-v2-pointStart" class="marker flowchart-v2" viewBox="0 0 10 10" refX="4.5" refY="5" markerUnits="userSpaceOnUse" markerWidth="8" markerHeight="8" orient="auto"><path d="M 0 5 L 10 10 L 10 0 z" class="arrowMarkerPath" style="stroke-width: 1; stroke-dasharray: 1, 0;"/></marker><marker id="mermaid-29_flowchart-v2-pointEnd-margin" class="marker flowchart-v2" viewBox="0 0 11.5 14" refX="11.5" refY="7" markerUnits="userSpaceOnUse" markerWidth="10.5" markerHeight="14" orient="auto"><path d="M 0 0 L 11.5 7 L 0 14 z" class="arrowMarkerPath" style="stroke-width: 0; stroke-dasharray: 1, 0;"/></marker><marker id="mermaid-29_flowchart-v2-pointStart-margin" class="marker flowchart-v2" viewBox="0 0 11.5 14" refX="1" refY="7" markerUnits="userSpaceOnUse" markerWidth="11.5" markerHeight="14" orient="auto"><polygon points="0,7 11.5,14 11.5,0" class="arrowMarkerPath" style="stroke-width: 0; stroke-dasharray: 1, 0;"/></marker><marker id="mermaid-29_flowchart-v2-circleEnd" class="marker flowchart-v2" viewBox="0 0 10 10" refX="11" refY="5" markerUnits="userSpaceOnUse" markerWidth="11" markerHeight="11" orient="auto"><circle cx="5" cy="5" r="5" class="arrowMarkerPath" style="stroke-width: 1; stroke-dasharray: 1, 0;"/></marker><marker id="mermaid-29_flowchart-v2-circleStart" class="marker flowchart-v2" viewBox="0 0 10 10" refX="-1" refY="5" markerUnits="userSpaceOnUse" markerWidth="11" markerHeight="11" orient="auto"><circle cx="5" cy="5" r="5" class="arrowMarkerPath" style="stroke-width: 1; stroke-dasharray: 1, 0;"/></marker><marker id="mermaid-29_flowchart-v2-circleEnd-margin" class="marker flowchart-v2" viewBox="0 0 10 10" refY="5" refX="12.25" markerUnits="userSpaceOnUse" markerWidth="14" markerHeight="14" orient="auto"><circle cx="5" cy="5" r="5" class="arrowMarkerPath" style="stroke-width: 0; stroke-dasharray: 1, 0;"/></marker><marker id="mermaid-29_flowchart-v2-circleStart-margin" class="marker flowchart-v2" viewBox="0 0 10 10" refX="-2" refY="5" markerUnits="userSpaceOnUse" markerWidth="14" markerHeight="14" orient="auto"><circle cx="5" cy="5" r="5" class="arrowMarkerPath" style="stroke-width: 0; stroke-dasharray: 1, 0;"/></marker><marker id="mermaid-29_flowchart-v2-crossEnd" class="marker cross flowchart-v2" viewBox="0 0 11 11" refX="12" refY="5.2" markerUnits="userSpaceOnUse" markerWidth="11" markerHeight="11" orient="auto"><path d="M 1,1 l 9,9 M 10,1 l -9,9" class="arrowMarkerPath" style="stroke-width: 2; stroke-dasharray: 1, 0;"/></marker><marker id="mermaid-29_flowchart-v2-crossStart" class="marker cross flowchart-v2" viewBox="0 0 11 11" refX="-1" refY="5.2" markerUnits="userSpaceOnUse" markerWidth="11" markerHeight="11" orient="auto"><path d="M 1,1 l 9,9 M 10,1 l -9,9" class="arrowMarkerPath" style="stroke-width: 2; stroke-dasharray: 1, 0;"/></marker><marker id="mermaid-29_flowchart-v2-crossEnd-margin" class="marker cross flowchart-v2" viewBox="0 0 15 15" refX="17.7" refY="7.5" markerUnits="userSpaceOnUse" markerWidth="12" markerHeight="12" orient="auto"><path d="M 1,1 L 14,14 M 1,14 L 14,1" class="arrowMarkerPath" style="stroke-width: 2.5;"/></marker><marker id="mermaid-29_flowchart-v2-crossStart-margin" class="marker cross flowchart-v2" viewBox="0 0 15 15" refX="-3.5" refY="7.5" markerUnits="userSpaceOnUse" markerWidth="12" markerHeight="12" orient="auto"><path d="M 1,1 L 14,14 M 1,14 L 14,1" class="arrowMarkerPath" style="stroke-width: 2.5; stroke-dasharray: 1, 0;"/></marker><g class="root"><g class="clusters"/><g class="edgePaths"><path d="M67.027,124.539L71.11,124.456C75.194,124.372,83.36,124.206,90.944,124.122C98.527,124.039,105.527,124.039,109.027,124.039L112.527,124.039" id="mermaid-29-L_A_B_0" class="edge-thickness-normal edge-pattern-solid edge-thickness-normal edge-pattern-solid flowchart-link" style=";" data-edge="true" data-et="edge" data-id="L_A_B_0" data-points="W3sieCI6NjcuMDI2ODM3NDMxODI1OTgsInkiOjEyNC41MzkwNjI1fSx7IngiOjkxLjUyNjgzNjM5NTI2MzY3LCJ5IjoxMjQuMDM5MDYyNX0seyJ4IjoxMTYuNTI2ODM2Mzk1MjYzNjcsInkiOjEyNC4wMzkwNjI1fV0=" data-look="classic" marker-end="url(#mermaid-29_flowchart-v2-pointEnd)"/><path d="M279.206,97.039L290.571,92.259C301.935,87.479,324.665,77.919,342.632,74.097C360.6,70.276,373.805,72.192,380.408,73.15L387.011,74.108" id="mermaid-29-L_B_C_0" class="edge-thickness-normal edge-pattern-solid edge-thickness-normal edge-pattern-solid flowchart-link" style=";" data-edge="true" data-et="edge" data-id="L_B_C_0" data-points="W3sieCI6Mjc5LjIwNTgyMzQzMzk4OTYsInkiOjk3LjAzOTA2MjV9LHsieCI6MzQ3LjM5NDAyMzg5NTI2MzcsInkiOjY4LjM1OTM3NX0seyJ4IjozOTAuOTY5MDkwMzE2NzQxMywieSI6NzQuNjgyNzQ2MDc4NTIyMzd9XQ==" data-look="classic" marker-end="url(#mermaid-29_flowchart-v2-pointEnd)"/><path d="M401.5,104.567L392.483,107.813C383.465,111.058,365.429,117.548,351.429,120.794C337.428,124.039,327.462,124.039,322.479,124.039L317.496,124.039" id="mermaid-29-L_C_B_0" class="edge-thickness-normal edge-pattern-solid edge-thickness-normal edge-pattern-solid flowchart-link" style=";" data-edge="true" data-et="edge" data-id="L_C_B_0" data-points="W3sieCI6NDAxLjUwMDMyMjI1NTI1NzQsInkiOjEwNC41NjcyMzU4NTk5OTM3NH0seyJ4IjozNDcuMzk0MDIzODk1MjYzNywieSI6MTI0LjAzOTA2MjV9LHsieCI6MzEzLjQ5NTU4NjM5NTI2MzcsInkiOjEyNC4wMzkwNjI1fV0=" data-look="classic" marker-end="url(#mermaid-29_flowchart-v2-pointEnd)"/><path d="M534.011,84.359L540.253,84.359C546.496,84.359,558.98,84.359,570.798,84.359C582.615,84.359,593.766,84.359,599.342,84.359L604.917,84.359" id="mermaid-29-L_C_D_0" class="edge-thickness-normal edge-pattern-solid edge-thickness-normal edge-pattern-solid flowchart-link" style=";" data-edge="true" data-et="edge" data-id="L_C_D_0" data-points="W3sieCI6NTM0LjAxMTIxMTM5NTI2MzcsInkiOjg0LjM1OTM3NX0seyJ4Ijo1NzEuNDY0MzM2Mzk1MjYzNywieSI6ODQuMzU5Mzc1fSx7IngiOjYwOC45MTc0NjEzOTUyNjM3LCJ5Ijo4NC4zNTkzNzV9XQ==" data-look="classic" marker-end="url(#mermaid-29_flowchart-v2-pointEnd)"/><path d="M847.652,84.359L851.819,84.359C855.985,84.359,864.319,84.359,871.985,84.359C879.652,84.359,886.652,84.359,890.152,84.359L893.652,84.359" id="mermaid-29-L_D_E_0" class="edge-thickness-normal edge-pattern-solid edge-thickness-normal edge-pattern-solid flowchart-link" style=";" data-edge="true" data-et="edge" data-id="L_D_E_0" data-points="W3sieCI6ODQ3LjY1MTgzNjM5NTI2MzcsInkiOjg0LjM1OTM3NX0seyJ4Ijo4NzIuNjUxODM2Mzk1MjYzNywieSI6ODQuMzU5Mzc1fSx7IngiOjg5Ny42NTE4MzYzOTUyNjM3LCJ5Ijo4NC4zNTkzNzV9XQ==" data-look="classic" marker-end="url(#mermaid-29_flowchart-v2-pointEnd)"/><path d="M1119.527,84.359L1123.694,84.359C1127.86,84.359,1136.194,84.359,1143.86,84.359C1151.527,84.359,1158.527,84.359,1162.027,84.359L1165.527,84.359" id="mermaid-29-L_E_F_0" class="edge-thickness-normal edge-pattern-solid edge-thickness-normal edge-pattern-solid flowchart-link" style=";" data-edge="true" data-et="edge" data-id="L_E_F_0" data-points="W3sieCI6MTExOS41MjY4MzYzOTUyNjM3LCJ5Ijo4NC4zNTkzNzV9LHsieCI6MTE0NC41MjY4MzYzOTUyNjM3LCJ5Ijo4NC4zNTkzNzV9LHsieCI6MTE2OS41MjY4MzYzOTUyNjM3LCJ5Ijo4NC4zNTkzNzV9XQ==" data-look="classic" marker-end="url(#mermaid-29_flowchart-v2-pointEnd)"/><path d="M1372.73,84.359L1376.897,84.359C1381.063,84.359,1389.397,84.359,1403.557,88.865C1417.717,93.371,1437.705,102.383,1447.699,106.889L1457.692,111.395" id="mermaid-29-L_F_G_0" class="edge-thickness-normal edge-pattern-solid edge-thickness-normal edge-pattern-solid flowchart-link" style=";" data-edge="true" data-et="edge" data-id="L_F_G_0" data-points="W3sieCI6MTM3Mi43Mjk5NjEzOTUyNjM3LCJ5Ijo4NC4zNTkzNzV9LHsieCI6MTM5Ny43Mjk5NjEzOTUyNjM3LCJ5Ijo4NC4zNTkzNzV9LHsieCI6MTQ2MS4zMzg3NDc3NDQ3MDk1LCJ5IjoxMTMuMDM5MDYyNX1d" data-look="classic" marker-end="url(#mermaid-29_flowchart-v2-pointEnd)"/><path d="M1461.339,167.039L1450.737,171.819C1440.136,176.599,1418.933,186.159,1387.231,190.939C1355.529,195.719,1313.329,195.719,1271.128,195.719C1228.928,195.719,1186.727,195.719,1142.971,195.719C1099.214,195.719,1053.902,195.719,1008.589,195.719C963.277,195.719,917.964,195.719,871.247,195.719C824.529,195.719,776.407,195.719,726.209,195.719C676.011,195.719,623.738,195.719,578.632,195.719C533.527,195.719,495.589,195.719,458.244,195.719C420.899,195.719,384.147,195.719,352.604,188.59C321.061,181.46,294.727,167.202,281.561,160.073L268.394,152.944" id="mermaid-29-L_G_B_0" class="edge-thickness-normal edge-pattern-solid edge-thickness-normal edge-pattern-solid flowchart-link" style=";" data-edge="true" data-et="edge" data-id="L_G_B_0" data-points="W3sieCI6MTQ2MS4zMzg3NDc3NDQ3MDk1LCJ5IjoxNjcuMDM5MDYyNX0seyJ4IjoxMzk3LjcyOTk2MTM5NTI2MzcsInkiOjE5NS43MTg3NX0seyJ4IjoxMjcxLjEyODM5ODg5NTI2MzcsInkiOjE5NS43MTg3NX0seyJ4IjoxMTQ0LjUyNjgzNjM5NTI2MzcsInkiOjE5NS43MTg3NX0seyJ4IjoxMDA4LjU4OTMzNjM5NTI2MzcsInkiOjE5NS43MTg3NX0seyJ4Ijo4NzIuNjUxODM2Mzk1MjYzNywieSI6MTk1LjcxODc1fSx7IngiOjcyOC4yODQ2NDg4OTUyNjM3LCJ5IjoxOTUuNzE4NzV9LHsieCI6NTcxLjQ2NDMzNjM5NTI2MzcsInkiOjE5NS43MTg3NX0seyJ4Ijo0NTcuNjUxODM2Mzk1MjYzNywieSI6MTk1LjcxODc1fSx7IngiOjM0Ny4zOTQwMjM4OTUyNjM3LCJ5IjoxOTUuNzE4NzV9LHsieCI6MjY0Ljg3NjYwNjQ5MDYzMTUsInkiOjE1MS4wMzkwNjI1fV0=" data-look="classic" marker-end="url(#mermaid-29_flowchart-v2-pointEnd)"/></g><g class="edgeLabels"><g class="edgeLabel"><g class="label" data-id="L_A_B_0" transform="translate(0, 0)"><foreignObject width="0" height="0"><div xmlns="http://www.w3.org/1999/xhtml" class="labelBkg" style="display: table-cell; white-space: nowrap; line-height: 1.5; max-width: 200px; text-align: center;"><span class="edgeLabel"></span></div></foreignObject></g></g><g class="edgeLabel"><g class="label" data-id="L_B_C_0" transform="translate(0, 0)"><foreignObject width="0" height="0"><div xmlns="http://www.w3.org/1999/xhtml" class="labelBkg" style="display: table-cell; white-space: nowrap; line-height: 1.5; max-width: 200px; text-align: center;"><span class="edgeLabel"></span></div></foreignObject></g></g><g class="edgeLabel" transform="translate(347.3940238952637, 124.0390625)"><g class="label" data-id="L_C_B_0" transform="translate(-8.8984375, -12)"><foreignObject width="17.796875" height="24"><div xmlns="http://www.w3.org/1999/xhtml" class="labelBkg" style="display: table-cell; white-space: nowrap; line-height: 1.5; max-width: 200px; text-align: center;"><span class="edgeLabel"><p>no</p></span></div></foreignObject></g></g><g class="edgeLabel" transform="translate(571.4643363952637, 84.359375)"><g class="label" data-id="L_C_D_0" transform="translate(-12.453125, -12)"><foreignObject width="24.90625" height="24"><div xmlns="http://www.w3.org/1999/xhtml" class="labelBkg" style="display: table-cell; white-space: nowrap; line-height: 1.5; max-width: 200px; text-align: center;"><span class="edgeLabel"><p>yes</p></span></div></foreignObject></g></g><g class="edgeLabel"><g class="label" data-id="L_D_E_0" transform="translate(0, 0)"><foreignObject width="0" height="0"><div xmlns="http://www.w3.org/1999/xhtml" class="labelBkg" style="display: table-cell; white-space: nowrap; line-height: 1.5; max-width: 200px; text-align: center;"><span class="edgeLabel"></span></div></foreignObject></g></g><g class="edgeLabel"><g class="label" data-id="L_E_F_0" transform="translate(0, 0)"><foreignObject width="0" height="0"><div xmlns="http://www.w3.org/1999/xhtml" class="labelBkg" style="display: table-cell; white-space: nowrap; line-height: 1.5; max-width: 200px; text-align: center;"><span class="edgeLabel"></span></div></foreignObject></g></g><g class="edgeLabel"><g class="label" data-id="L_F_G_0" transform="translate(0, 0)"><foreignObject width="0" height="0"><div xmlns="http://www.w3.org/1999/xhtml" class="labelBkg" style="display: table-cell; white-space: nowrap; line-height: 1.5; max-width: 200px; text-align: center;"><span class="edgeLabel"></span></div></foreignObject></g></g><g class="edgeLabel"><g class="label" data-id="L_G_B_0" transform="translate(0, 0)"><foreignObject width="0" height="0"><div xmlns="http://www.w3.org/1999/xhtml" class="labelBkg" style="display: table-cell; white-space: nowrap; line-height: 1.5; max-width: 200px; text-align: center;"><span class="edgeLabel"></span></div></foreignObject></g></g></g><g class="nodes"><g class="node default" id="mermaid-29-flowchart-A-0" data-look="classic" transform="translate(37.263418197631836, 124.0390625)"><g class="basic label-container outer-path"><path d="M-9.7734375 -19.5 C-5.106748175104564 -19.5, -0.4400588502091285 -19.5, 9.7734375 -19.5 C9.7734375 -19.5, 9.773437499999998 -19.5, 9.773437499999998 -19.5 C10.064375942339902 -19.490670170431482, 10.355314384679808 -19.481340340862968, 11.0228067896239 -19.45993515863156 C11.443146400246876 -19.419385501927103, 11.863486010869853 -19.37883584522265, 12.267042152847864 -19.3399052695533 C12.753496958853011 -19.261259029031752, 13.23995176485816 -19.182612788510202, 13.501030759676757 -19.140403561325776 C13.932586069204387 -19.041903878087673, 14.364141378732016 -18.94340419484957, 14.71970188623539 -18.862249829261074 C14.973152043213178 -18.78702715305709, 15.226602200190966 -18.711804476853104, 15.918047751460602 -18.50658706670804 C16.276304998017494 -18.37474508828142, 16.634562244574386 -18.242903109854797, 17.091144095147794 -18.074876768247425 C17.334985097119322 -17.966935589960954, 17.578826099090847 -17.858994411674484, 18.23417041279238 -17.568892924097174 C18.546029397560343 -17.406196291498944, 18.8578883823283 -17.24349965890071, 19.342429764076783 -16.990714730406097 C19.65323305505487 -16.802303948932305, 19.96403634603295 -16.613893167458517, 20.411368073605697 -16.342718045390892 C20.801351810579856 -16.0706822726016, 21.191335547554015 -15.79864649981231, 21.436592844578712 -15.627565626425154 C21.812836561898706 -15.327521274128266, 22.1890802792187 -15.027476921831376, 22.41389120850187 -14.848196188198123 C22.63976362269854 -14.643064837881301, 22.865636036895204 -14.437933487564479, 23.339247236767985 -14.007812326905688 C23.541545157535637 -13.798923114744907, 23.74384307830329 -13.590033902584127, 24.208858442968648 -13.10986736009568 C24.418358598245185 -12.863776556811324, 24.627858753521718 -12.617685753526969, 25.019151408126582 -12.158051136245305 C25.17046237711778 -11.955308222509952, 25.321773346108976 -11.7525653087746, 25.766796464640635 -11.156274872382312 C25.967844735495156 -10.847410739329868, 26.168893006349677 -10.538546606277425, 26.448721378604247 -10.108655082055241 C26.605720175324358 -9.829887820626613, 26.762718972044468 -9.551120559197985, 27.0621239742735 -9.019496659696287 C27.181248016513422 -8.772133037138905, 27.300372058753343 -8.524769414581522, 27.60448364880834 -7.893275190886684 C27.768327296196443 -7.488578214136644, 27.93217094358455 -7.083881237386604, 28.073571729970325 -6.734618561215508 C28.160089029837728 -6.474042238674629, 28.24660632970513 -6.2134659161337495, 28.46746063421488 -5.548287939305138 C28.587769033754988 -5.089499869868514, 28.708077433295095 -4.6307118004318895, 28.78453178754556 -4.339158212148133 C28.838205489639723 -4.06355509583557, 28.891879191733885 -3.7879519795230054, 29.023482276581777 -3.1121979531509023 C29.069477501884062 -2.7554680684909543, 29.115472727186347 -2.3987381838310062, 29.183330202509367 -1.872449005199798 C29.203797422627833 -1.5536555310119455, 29.224264642746302 -1.234862056824093, 29.263418715913414 -0.6250057626472757 C29.263418715913414 -0.18366920711342866, 29.263418715913414 0.2576673484204184, 29.263418715913414 0.625005762647271 C29.234297517103006 1.0785919403279898, 29.205176318292597 1.5321781180087086, 29.183330202509367 1.8724490051997846 C29.13058426349805 2.281536092307788, 29.077838324486734 2.6906231794157915, 29.023482276581777 3.1121979531508885 C28.953593738149422 3.4710608270532126, 28.883705199717063 3.8299237009555367, 28.78453178754556 4.339158212148129 C28.718588753819077 4.590627579638809, 28.652645720092597 4.842096947129491, 28.467460634214884 5.548287939305125 C28.356221326424738 5.883323010792264, 28.244982018634587 6.218358082279402, 28.07357172997033 6.734618561215495 C27.914962196685828 7.126387174934927, 27.756352663401326 7.51815578865436, 27.604483648808344 7.893275190886679 C27.479707945837273 8.152374607878462, 27.3549322428662 8.411474024870246, 27.062123974273504 9.019496659696284 C26.88574797278468 9.332670110346514, 26.709371971295855 9.645843560996743, 26.44872137860425 10.108655082055236 C26.2516389241513 10.411426656144053, 26.05455646969835 10.714198230232869, 25.76679646464064 11.156274872382301 C25.551445664877278 11.444825325203752, 25.336094865113918 11.733375778025202, 25.019151408126582 12.158051136245302 C24.80329235118375 12.411611467258647, 24.587433294240917 12.665171798271992, 24.20885844296866 13.10986736009567 C23.914401677189915 13.413918146112296, 23.619944911411167 13.71796893212892, 23.33924723676799 14.007812326905684 C23.09550630197329 14.22917139485449, 22.851765367178594 14.450530462803295, 22.413891208501887 14.848196188198111 C22.142325388069196 15.064762703323199, 21.870759567636505 15.281329218448288, 21.436592844578715 15.627565626425152 C21.20944282955201 15.786015643742115, 20.982292814525305 15.944465661059077, 20.411368073605708 16.34271804539089 C20.035100108964542 16.570813896752362, 19.658832144323377 16.798909748113836, 19.342429764076787 16.990714730406093 C18.970785861159143 17.184601116508947, 18.5991419582415 17.3784875026118, 18.234170412792388 17.56889292409717 C17.940388794913613 17.698941331610044, 17.646607177034838 17.828989739122918, 17.091144095147804 18.07487676824742 C16.7792427208523 18.189659357172864, 16.467341346556797 18.304441946098308, 15.918047751460616 18.506587066708033 C15.476438314983607 18.637654429399177, 15.034828878506598 18.768721792090318, 14.719701886235413 18.86224982926107 C14.25433872706777 18.96846593356267, 13.78897556790013 19.074682037864267, 13.501030759676766 19.140403561325773 C13.24433105764303 19.181904778414665, 12.987631355609295 19.223405995503562, 12.267042152847878 19.3399052695533 C12.013518886350205 19.36436235416599, 11.759995619852532 19.388819438778686, 11.0228067896239 19.45993515863156 C10.586225461704453 19.473935472063932, 10.149644133785008 19.487935785496305, 9.773437500000004 19.5 C9.773437500000004 19.5, 9.773437500000002 19.5, 9.7734375 19.5 C4.923428349095646 19.5, 0.07341919819129217 19.5, -9.773437499999996 19.5 C-10.122569415889318 19.488804019001478, -10.471701331778641 19.477608038002955, -11.022806789623893 19.45993515863156 C-11.290526259287539 19.434108583372876, -11.558245728951185 19.408282008114195, -12.267042152847871 19.3399052695533 C-12.655429651730284 19.277113790724027, -13.043817150612696 19.214322311894758, -13.501030759676759 19.140403561325773 C-13.754121535177008 19.0826372433895, -14.007212310677257 19.024870925453225, -14.719701886235388 18.862249829261074 C-15.15336439756973 18.733541072238015, -15.58702690890407 18.60483231521496, -15.918047751460593 18.506587066708043 C-16.346161565010636 18.349037225880917, -16.774275378560677 18.19148738505379, -17.091144095147797 18.074876768247425 C-17.46769399693671 17.90818929668144, -17.844243898725622 17.741501825115456, -18.23417041279238 17.568892924097174 C-18.573723969195846 17.39174805121592, -18.913277525599312 17.214603178334663, -19.34242976407678 16.990714730406097 C-19.58871157474446 16.84141724946678, -19.834993385412137 16.692119768527466, -20.411368073605686 16.3427180453909 C-20.791420623736332 16.077609838629495, -21.17147317386698 15.812501631868088, -21.436592844578712 15.627565626425156 C-21.72419949810074 15.398206973775816, -22.01180615162277 15.168848321126475, -22.41389120850187 14.848196188198125 C-22.639467932286024 14.643333376090407, -22.86504465607018 14.438470563982689, -23.339247236767974 14.007812326905697 C-23.518400335719456 13.822822043495325, -23.697553434670933 13.637831760084955, -24.208858442968655 13.109867360095677 C-24.49020990981827 12.77937591778213, -24.771561376667886 12.448884475468581, -25.01915140812658 12.158051136245307 C-25.29990155751461 11.781871512930122, -25.58065170690264 11.405691889614939, -25.766796464640635 11.156274872382316 C-26.02005526379294 10.76720134737457, -26.27331406294525 10.378127822366825, -26.448721378604244 10.108655082055249 C-26.65546867835839 9.741554315907505, -26.86221597811253 9.374453549759762, -27.0621239742735 9.019496659696289 C-27.24291177916877 8.644086914591913, -27.423699584064043 8.268677169487535, -27.60448364880834 7.893275190886686 C-27.770819592312534 7.4824221945446325, -27.937155535816732 7.071569198202578, -28.073571729970325 6.73461856121551 C-28.20739686392128 6.33155857989473, -28.341221997872232 5.92849859857395, -28.46746063421488 5.5482879393051325 C-28.582897103013334 5.108078653294577, -28.698333571811787 4.667869367284023, -28.784531787545557 4.339158212148136 C-28.842564011029282 4.041175009673989, -28.900596234513007 3.743191807199841, -29.023482276581777 3.112197953150904 C-29.06660865596606 2.777718270913259, -29.109735035350344 2.443238588675614, -29.183330202509364 1.872449005199809 C-29.207116276022717 1.5019617104563505, -29.230902349536073 1.131474415712892, -29.263418715913414 0.6250057626472781 C-29.263418715913414 0.17542709498840503, -29.263418715913414 -0.2741515726704681, -29.263418715913414 -0.6250057626472687 C-29.231527303376787 -1.1217402551900992, -29.199635890840163 -1.6184747477329295, -29.183330202509367 -1.8724490051997822 C-29.142494927834218 -2.189159331743177, -29.101659653159068 -2.505869658286572, -29.023482276581777 -3.112197953150895 C-28.932822646175552 -3.577715994367193, -28.842163015769327 -4.043234035583491, -28.78453178754556 -4.339158212148126 C-28.687329633072622 -4.709832154833681, -28.59012747859968 -5.080506097519234, -28.467460634214884 -5.548287939305123 C-28.33659122406556 -5.942445751466025, -28.20572181391624 -6.336603563626927, -28.073571729970332 -6.734618561215485 C-27.91274231818969 -7.131870317738817, -27.751912906409046 -7.529122074262149, -27.604483648808344 -7.893275190886676 C-27.404166534910402 -8.309237963995372, -27.20384942101246 -8.725200737104068, -27.062123974273504 -9.019496659696282 C-26.93817135274575 -9.239587090782784, -26.814218731217995 -9.459677521869288, -26.448721378604247 -10.108655082055243 C-26.278052799526883 -10.370847850448492, -26.10738422044952 -10.63304061884174, -25.76679646464064 -11.156274872382308 C-25.517695454469948 -11.49004753244216, -25.268594444299254 -11.823820192502014, -25.019151408126586 -12.158051136245302 C-24.723153612054745 -12.505746990263017, -24.427155815982903 -12.853442844280732, -24.208858442968662 -13.10986736009567 C-23.901593593739218 -13.427143543838348, -23.594328744509777 -13.744419727581024, -23.339247236767996 -14.007812326905677 C-23.143747140548903 -14.185360341642761, -22.948247044329815 -14.362908356379847, -22.413891208501887 -14.848196188198107 C-22.09571661049661 -15.101931963125676, -21.77754201249133 -15.355667738053242, -21.43659284457872 -15.627565626425149 C-21.122704095319058 -15.846520829883733, -20.8088153460594 -16.065476033342318, -20.41136807360571 -16.342718045390885 C-20.038856467844585 -16.568536769924464, -19.666344862083463 -16.794355494458042, -19.34242976407679 -16.99071473040609 C-18.990933053403865 -17.174090339219767, -18.63943634273094 -17.357465948033443, -18.234170412792388 -17.56889292409717 C-17.959362707939302 -17.6905421431547, -17.68455500308622 -17.812191362212236, -17.091144095147804 -18.07487676824742 C-16.635633283501885 -18.242508957628903, -16.180122471855967 -18.410141147010386, -15.918047751460618 -18.506587066708033 C-15.627965904998423 -18.592681836067328, -15.337884058536225 -18.678776605426624, -14.719701886235413 -18.862249829261067 C-14.298604236790716 -18.958362619827852, -13.87750658734602 -19.054475410394634, -13.501030759676768 -19.140403561325773 C-13.069002373909095 -19.21025056030652, -12.63697398814142 -19.280097559287267, -12.26704215284788 -19.3399052695533 C-11.84482182808471 -19.380636356488967, -11.422601503321538 -19.42136744342464, -11.022806789623903 -19.45993515863156 C-10.594544382827044 -19.473668700455327, -10.166281976030184 -19.4874022422791, -9.773437500000005 -19.5 C-9.773437500000004 -19.5, -9.773437500000002 -19.5, -9.7734375 -19.5" stroke="none" stroke-width="0" fill="#ECECFF" style=""/><path d="M-9.7734375 -19.5 C-5.055603732231719 -19.5, -0.33776996446343865 -19.5, 9.7734375 -19.5 M-9.7734375 -19.5 C-5.047607475681234 -19.5, -0.32177745136246827 -19.5, 9.7734375 -19.5 M9.7734375 -19.5 C9.7734375 -19.5, 9.7734375 -19.5, 9.773437499999998 -19.5 M9.7734375 -19.5 C9.7734375 -19.5, 9.773437499999998 -19.5, 9.773437499999998 -19.5 M9.773437499999998 -19.5 C10.1263335460784 -19.488683310672748, 10.479229592156798 -19.4773666213455, 11.0228067896239 -19.45993515863156 M9.773437499999998 -19.5 C10.184018869186685 -19.486833454638337, 10.594600238373372 -19.473666909276673, 11.0228067896239 -19.45993515863156 M11.0228067896239 -19.45993515863156 C11.298313652304897 -19.433357342934205, 11.573820514985892 -19.406779527236846, 12.267042152847864 -19.3399052695533 M11.0228067896239 -19.45993515863156 C11.435361533895641 -19.420136498621336, 11.84791627816738 -19.380337838611112, 12.267042152847864 -19.3399052695533 M12.267042152847864 -19.3399052695533 C12.7516665010019 -19.261554963261705, 13.236290849155935 -19.183204656970112, 13.501030759676757 -19.140403561325776 M12.267042152847864 -19.3399052695533 C12.528427173246401 -19.29764656652637, 12.789812193644936 -19.255387863499443, 13.501030759676757 -19.140403561325776 M13.501030759676757 -19.140403561325776 C13.817234677620629 -19.068232080478488, 14.133438595564503 -18.9960605996312, 14.71970188623539 -18.862249829261074 M13.501030759676757 -19.140403561325776 C13.82307261920691 -19.06689960840755, 14.145114478737064 -18.993395655489323, 14.71970188623539 -18.862249829261074 M14.71970188623539 -18.862249829261074 C15.097046466539089 -18.750255938549056, 15.474391046842786 -18.638262047837042, 15.918047751460602 -18.50658706670804 M14.71970188623539 -18.862249829261074 C15.01220012338052 -18.77543788783098, 15.304698360525652 -18.68862594640088, 15.918047751460602 -18.50658706670804 M15.918047751460602 -18.50658706670804 C16.20090583102915 -18.40249267871539, 16.483763910597695 -18.29839829072274, 17.091144095147794 -18.074876768247425 M15.918047751460602 -18.50658706670804 C16.15793570064632 -18.4183060839078, 16.397823649832034 -18.330025101107566, 17.091144095147794 -18.074876768247425 M17.091144095147794 -18.074876768247425 C17.323671949726588 -17.971943584719124, 17.556199804305383 -17.86901040119082, 18.23417041279238 -17.568892924097174 M17.091144095147794 -18.074876768247425 C17.33918256994959 -17.965077493252604, 17.58722104475138 -17.85527821825778, 18.23417041279238 -17.568892924097174 M18.23417041279238 -17.568892924097174 C18.458383173246332 -17.451921270583476, 18.682595933700284 -17.33494961706978, 19.342429764076783 -16.990714730406097 M18.23417041279238 -17.568892924097174 C18.582477729610655 -17.387181220014565, 18.93078504642893 -17.205469515931956, 19.342429764076783 -16.990714730406097 M19.342429764076783 -16.990714730406097 C19.569098949067104 -16.853306538408976, 19.795768134057425 -16.71589834641186, 20.411368073605697 -16.342718045390892 M19.342429764076783 -16.990714730406097 C19.710800869937174 -16.76740600124462, 20.079171975797568 -16.544097272083143, 20.411368073605697 -16.342718045390892 M20.411368073605697 -16.342718045390892 C20.802581978591025 -16.069824160650125, 21.19379588357635 -15.796930275909359, 21.436592844578712 -15.627565626425154 M20.411368073605697 -16.342718045390892 C20.755083737984314 -16.10295687713167, 21.09879940236293 -15.863195708872448, 21.436592844578712 -15.627565626425154 M21.436592844578712 -15.627565626425154 C21.649666647736176 -15.457644938539108, 21.86274045089364 -15.287724250653064, 22.41389120850187 -14.848196188198123 M21.436592844578712 -15.627565626425154 C21.809780301558266 -15.329958560419263, 22.18296775853782 -15.03235149441337, 22.41389120850187 -14.848196188198123 M22.41389120850187 -14.848196188198123 C22.64208055060201 -14.640960665261922, 22.870269892702147 -14.43372514232572, 23.339247236767985 -14.007812326905688 M22.41389120850187 -14.848196188198123 C22.71070835570167 -14.57863470846263, 23.00752550290147 -14.309073228727136, 23.339247236767985 -14.007812326905688 M23.339247236767985 -14.007812326905688 C23.51571230702418 -13.825597653814457, 23.692177377280373 -13.643382980723228, 24.208858442968648 -13.10986736009568 M23.339247236767985 -14.007812326905688 C23.627846932583036 -13.709809446500964, 23.916446628398084 -13.41180656609624, 24.208858442968648 -13.10986736009568 M24.208858442968648 -13.10986736009568 C24.45888598705766 -12.81617077983844, 24.708913531146667 -12.5224741995812, 25.019151408126582 -12.158051136245305 M24.208858442968648 -13.10986736009568 C24.380102784853808 -12.908714012038283, 24.551347126738964 -12.707560663980885, 25.019151408126582 -12.158051136245305 M25.019151408126582 -12.158051136245305 C25.287581395080373 -11.798379408202111, 25.556011382034164 -11.438707680158917, 25.766796464640635 -11.156274872382312 M25.019151408126582 -12.158051136245305 C25.2324509125247 -11.872249232336427, 25.44575041692282 -11.586447328427552, 25.766796464640635 -11.156274872382312 M25.766796464640635 -11.156274872382312 C25.976082512234186 -10.834755302105936, 26.185368559827733 -10.513235731829559, 26.448721378604247 -10.108655082055241 M25.766796464640635 -11.156274872382312 C26.00315093164611 -10.793170941000863, 26.239505398651588 -10.430067009619412, 26.448721378604247 -10.108655082055241 M26.448721378604247 -10.108655082055241 C26.683563494621296 -9.691669124724076, 26.91840561063834 -9.27468316739291, 27.0621239742735 -9.019496659696287 M26.448721378604247 -10.108655082055241 C26.664870818772965 -9.724859863531465, 26.881020258941685 -9.34106464500769, 27.0621239742735 -9.019496659696287 M27.0621239742735 -9.019496659696287 C27.262054108419594 -8.604337458322348, 27.461984242565684 -8.189178256948411, 27.60448364880834 -7.893275190886684 M27.0621239742735 -9.019496659696287 C27.182851836156043 -8.768802671334761, 27.303579698038583 -8.518108682973235, 27.60448364880834 -7.893275190886684 M27.60448364880834 -7.893275190886684 C27.753241099761574 -7.525841411002539, 27.901998550714808 -7.158407631118394, 28.073571729970325 -6.734618561215508 M27.60448364880834 -7.893275190886684 C27.750505677618644 -7.532597956581368, 27.896527706428945 -7.171920722276051, 28.073571729970325 -6.734618561215508 M28.073571729970325 -6.734618561215508 C28.199717234266377 -6.354688400832468, 28.32586273856243 -5.974758240449428, 28.46746063421488 -5.548287939305138 M28.073571729970325 -6.734618561215508 C28.186572230095656 -6.394279059022694, 28.299572730220984 -6.0539395568298815, 28.46746063421488 -5.548287939305138 M28.46746063421488 -5.548287939305138 C28.540241737041686 -5.2707420506970255, 28.613022839868492 -4.993196162088914, 28.78453178754556 -4.339158212148133 M28.46746063421488 -5.548287939305138 C28.573736136217406 -5.1430133900755814, 28.68001163821993 -4.737738840846026, 28.78453178754556 -4.339158212148133 M28.78453178754556 -4.339158212148133 C28.861613560779055 -3.9433595978326776, 28.93869533401255 -3.547560983517222, 29.023482276581777 -3.1121979531509023 M28.78453178754556 -4.339158212148133 C28.859581600360332 -3.9537932851278326, 28.934631413175104 -3.5684283581075324, 29.023482276581777 -3.1121979531509023 M29.023482276581777 -3.1121979531509023 C29.08297977620757 -2.650747095163478, 29.14247727583336 -2.189296237176053, 29.183330202509367 -1.872449005199798 M29.023482276581777 -3.1121979531509023 C29.077674974597713 -2.691890088897947, 29.13186767261365 -2.271582224644992, 29.183330202509367 -1.872449005199798 M29.183330202509367 -1.872449005199798 C29.21060142910324 -1.4476776380623257, 29.23787265569711 -1.0229062709248535, 29.263418715913414 -0.6250057626472757 M29.183330202509367 -1.872449005199798 C29.201824477511035 -1.5843857437386943, 29.220318752512707 -1.2963224822775907, 29.263418715913414 -0.6250057626472757 M29.263418715913414 -0.6250057626472757 C29.263418715913414 -0.1533515326657044, 29.263418715913414 0.3183026973158669, 29.263418715913414 0.625005762647271 M29.263418715913414 -0.6250057626472757 C29.263418715913414 -0.15445167874178117, 29.263418715913414 0.31610240516371335, 29.263418715913414 0.625005762647271 M29.263418715913414 0.625005762647271 C29.23297408601274 1.0992054478132431, 29.202529456112064 1.5734051329792154, 29.183330202509367 1.8724490051997846 M29.263418715913414 0.625005762647271 C29.247024347153502 0.8803612893791718, 29.23062997839359 1.1357168161110724, 29.183330202509367 1.8724490051997846 M29.183330202509367 1.8724490051997846 C29.13698469573444 2.2318956037906315, 29.090639188959518 2.5913422023814783, 29.023482276581777 3.1121979531508885 M29.183330202509367 1.8724490051997846 C29.127947987857933 2.301982525581025, 29.0725657732065 2.731516045962266, 29.023482276581777 3.1121979531508885 M29.023482276581777 3.1121979531508885 C28.934168562715914 3.5708049973919915, 28.84485484885005 4.029412041633095, 28.78453178754556 4.339158212148129 M29.023482276581777 3.1121979531508885 C28.931931842726566 3.5822900818063546, 28.840381408871355 4.05238221046182, 28.78453178754556 4.339158212148129 M28.78453178754556 4.339158212148129 C28.687573135431474 4.708903574804787, 28.59061448331739 5.0786489374614465, 28.467460634214884 5.548287939305125 M28.78453178754556 4.339158212148129 C28.689475596271496 4.7016486670900335, 28.594419404997435 5.064139122031939, 28.467460634214884 5.548287939305125 M28.467460634214884 5.548287939305125 C28.319921076126864 5.992653581030008, 28.172381518038843 6.43701922275489, 28.07357172997033 6.734618561215495 M28.467460634214884 5.548287939305125 C28.330151167046804 5.961842177122781, 28.192841699878727 6.375396414940437, 28.07357172997033 6.734618561215495 M28.07357172997033 6.734618561215495 C27.95348739970981 7.031229178631555, 27.833403069449297 7.3278397960476145, 27.604483648808344 7.893275190886679 M28.07357172997033 6.734618561215495 C27.914765658230337 7.126872628719802, 27.755959586490345 7.5191266962241095, 27.604483648808344 7.893275190886679 M27.604483648808344 7.893275190886679 C27.42148938062934 8.273266704210481, 27.23849511245033 8.653258217534285, 27.062123974273504 9.019496659696284 M27.604483648808344 7.893275190886679 C27.416150541376215 8.284352918152454, 27.227817433944082 8.67543064541823, 27.062123974273504 9.019496659696284 M27.062123974273504 9.019496659696284 C26.83415496198004 9.424278725389005, 26.606185949686576 9.829060791081726, 26.44872137860425 10.108655082055236 M27.062123974273504 9.019496659696284 C26.930054709175995 9.253999013340174, 26.79798544407848 9.488501366984066, 26.44872137860425 10.108655082055236 M26.44872137860425 10.108655082055236 C26.21787016239287 10.463304542387203, 25.987018946181486 10.81795400271917, 25.76679646464064 11.156274872382301 M26.44872137860425 10.108655082055236 C26.215337104889958 10.46719599893285, 25.98195283117567 10.825736915810463, 25.76679646464064 11.156274872382301 M25.76679646464064 11.156274872382301 C25.480915028986185 11.539329951824701, 25.195033593331733 11.922385031267101, 25.019151408126582 12.158051136245302 M25.76679646464064 11.156274872382301 C25.592725738258068 11.389513787565546, 25.41865501187549 11.622752702748791, 25.019151408126582 12.158051136245302 M25.019151408126582 12.158051136245302 C24.80298571538543 12.411971659115427, 24.586820022644275 12.665892181985551, 24.20885844296866 13.10986736009567 M25.019151408126582 12.158051136245302 C24.75638408772111 12.466712582677669, 24.493616767315636 12.775374029110036, 24.20885844296866 13.10986736009567 M24.20885844296866 13.10986736009567 C24.01470389335837 13.310347872953267, 23.820549343748084 13.510828385810862, 23.33924723676799 14.007812326905684 M24.20885844296866 13.10986736009567 C23.916786349027987 13.411455776654284, 23.62471425508732 13.713044193212896, 23.33924723676799 14.007812326905684 M23.33924723676799 14.007812326905684 C23.010647276061864 14.30623811694046, 22.682047315355735 14.604663906975237, 22.413891208501887 14.848196188198111 M23.33924723676799 14.007812326905684 C23.03367773152603 14.285322466640364, 22.72810822628407 14.562832606375045, 22.413891208501887 14.848196188198111 M22.413891208501887 14.848196188198111 C22.171141079053236 15.04178295658117, 21.928390949604587 15.235369724964226, 21.436592844578715 15.627565626425152 M22.413891208501887 14.848196188198111 C22.147266814675802 15.060822047101317, 21.880642420849718 15.27344790600452, 21.436592844578715 15.627565626425152 M21.436592844578715 15.627565626425152 C21.21316210409193 15.783421238827867, 20.98973136360514 15.939276851230582, 20.411368073605708 16.34271804539089 M21.436592844578715 15.627565626425152 C21.20871228362054 15.786525240959085, 20.980831722662362 15.945484855493017, 20.411368073605708 16.34271804539089 M20.411368073605708 16.34271804539089 C20.126053029910434 16.515677701576273, 19.840737986215156 16.688637357761653, 19.342429764076787 16.990714730406093 M20.411368073605708 16.34271804539089 C20.062869611744876 16.55397986097521, 19.714371149884045 16.765241676559533, 19.342429764076787 16.990714730406093 M19.342429764076787 16.990714730406093 C19.023410439718127 17.157146907582376, 18.704391115359467 17.32357908475866, 18.234170412792388 17.56889292409717 M19.342429764076787 16.990714730406093 C19.06345395581975 17.136256230881255, 18.784478147562712 17.28179773135642, 18.234170412792388 17.56889292409717 M18.234170412792388 17.56889292409717 C18.003008768006783 17.671221327077202, 17.77184712322118 17.77354973005723, 17.091144095147804 18.07487676824742 M18.234170412792388 17.56889292409717 C17.886019334101626 17.72300907909876, 17.537868255410864 17.877125234100347, 17.091144095147804 18.07487676824742 M17.091144095147804 18.07487676824742 C16.82309029461616 18.173523044705234, 16.55503649408452 18.272169321163048, 15.918047751460616 18.506587066708033 M17.091144095147804 18.07487676824742 C16.62765330212229 18.245445664542736, 16.164162509096773 18.416014560838047, 15.918047751460616 18.506587066708033 M15.918047751460616 18.506587066708033 C15.60622551910557 18.599134268482715, 15.294403286750525 18.691681470257393, 14.719701886235413 18.86224982926107 M15.918047751460616 18.506587066708033 C15.672271255602858 18.579532240571464, 15.4264947597451 18.652477414434895, 14.719701886235413 18.86224982926107 M14.719701886235413 18.86224982926107 C14.39950706371752 18.935332208034293, 14.079312241199625 19.00841458680751, 13.501030759676766 19.140403561325773 M14.719701886235413 18.86224982926107 C14.439002754850518 18.926317574266655, 14.158303623465626 18.990385319272242, 13.501030759676766 19.140403561325773 M13.501030759676766 19.140403561325773 C13.041788484739707 19.214650290860565, 12.582546209802647 19.288897020395357, 12.267042152847878 19.3399052695533 M13.501030759676766 19.140403561325773 C13.217449428608996 19.186250791726742, 12.933868097541225 19.232098022127712, 12.267042152847878 19.3399052695533 M12.267042152847878 19.3399052695533 C11.908707302459229 19.37447340160958, 11.55037245207058 19.409041533665867, 11.0228067896239 19.45993515863156 M12.267042152847878 19.3399052695533 C11.908748888827358 19.374469389822664, 11.550455624806839 19.40903351009203, 11.0228067896239 19.45993515863156 M11.0228067896239 19.45993515863156 C10.712272900127852 19.46989337605015, 10.401739010631802 19.47985159346874, 9.773437500000004 19.5 M11.0228067896239 19.45993515863156 C10.66879228725327 19.471287714675157, 10.314777784882638 19.482640270718758, 9.773437500000004 19.5 M9.773437500000004 19.5 C9.773437500000002 19.5, 9.773437500000002 19.5, 9.7734375 19.5 M9.773437500000004 19.5 C9.773437500000002 19.5, 9.773437500000002 19.5, 9.7734375 19.5 M9.7734375 19.5 C3.5980049943717303 19.5, -2.5774275112565395 19.5, -9.773437499999996 19.5 M9.7734375 19.5 C3.726559072097187 19.5, -2.3203193558056263 19.5, -9.773437499999996 19.5 M-9.773437499999996 19.5 C-10.225959111584887 19.485488512696357, -10.678480723169775 19.470977025392713, -11.022806789623893 19.45993515863156 M-9.773437499999996 19.5 C-10.152894728462739 19.48783154525189, -10.53235195692548 19.47566309050378, -11.022806789623893 19.45993515863156 M-11.022806789623893 19.45993515863156 C-11.501408249117915 19.413765051436638, -11.980009708611936 19.36759494424172, -12.267042152847871 19.3399052695533 M-11.022806789623893 19.45993515863156 C-11.303669583428873 19.432840662700123, -11.584532377233852 19.405746166768687, -12.267042152847871 19.3399052695533 M-12.267042152847871 19.3399052695533 C-12.645503497938334 19.27871857429064, -13.023964843028796 19.217531879027977, -13.501030759676759 19.140403561325773 M-12.267042152847871 19.3399052695533 C-12.749334616921484 19.261931964195796, -13.231627080995096 19.183958658838293, -13.501030759676759 19.140403561325773 M-13.501030759676759 19.140403561325773 C-13.757767420834567 19.08180509377979, -14.014504081992374 19.023206626233804, -14.719701886235388 18.862249829261074 M-13.501030759676759 19.140403561325773 C-13.800454583972611 19.0720620273533, -14.099878408268465 19.003720493380833, -14.719701886235388 18.862249829261074 M-14.719701886235388 18.862249829261074 C-15.056029230428848 18.76242963892271, -15.392356574622308 18.662609448584348, -15.918047751460593 18.506587066708043 M-14.719701886235388 18.862249829261074 C-15.008460439946393 18.776547806244228, -15.297218993657399 18.69084578322738, -15.918047751460593 18.506587066708043 M-15.918047751460593 18.506587066708043 C-16.200864996743643 18.402507706109926, -16.483682242026692 18.298428345511805, -17.091144095147797 18.074876768247425 M-15.918047751460593 18.506587066708043 C-16.184578303874567 18.408501359638283, -16.451108856288542 18.310415652568523, -17.091144095147797 18.074876768247425 M-17.091144095147797 18.074876768247425 C-17.329560637404324 17.969336837365905, -17.567977179660847 17.863796906484385, -18.23417041279238 17.568892924097174 M-17.091144095147797 18.074876768247425 C-17.492043092893002 17.897410674191857, -17.892942090638204 17.719944580136293, -18.23417041279238 17.568892924097174 M-18.23417041279238 17.568892924097174 C-18.496529683556588 17.432020260588622, -18.758888954320792 17.295147597080067, -19.34242976407678 16.990714730406097 M-18.23417041279238 17.568892924097174 C-18.638573643535484 17.357916017651128, -19.04297687427859 17.146939111205082, -19.34242976407678 16.990714730406097 M-19.34242976407678 16.990714730406097 C-19.55939610823344 16.859188457542565, -19.7763624523901 16.727662184679033, -20.411368073605686 16.3427180453909 M-19.34242976407678 16.990714730406097 C-19.682768732522895 16.78439924768028, -20.02310770096901 16.578083764954464, -20.411368073605686 16.3427180453909 M-20.411368073605686 16.3427180453909 C-20.813816534025403 16.06198742111517, -21.216264994445115 15.781256796839443, -21.436592844578712 15.627565626425156 M-20.411368073605686 16.3427180453909 C-20.740246055156568 16.113307002359367, -21.06912403670745 15.883895959327837, -21.436592844578712 15.627565626425156 M-21.436592844578712 15.627565626425156 C-21.798939139156335 15.338604098939356, -22.16128543373396 15.049642571453557, -22.41389120850187 14.848196188198125 M-21.436592844578712 15.627565626425156 C-21.729330672215088 15.3941149989659, -22.022068499851464 15.160664371506646, -22.41389120850187 14.848196188198125 M-22.41389120850187 14.848196188198125 C-22.717025909587857 14.57289727317651, -23.020160610673848 14.297598358154897, -23.339247236767974 14.007812326905697 M-22.41389120850187 14.848196188198125 C-22.691942944542472 14.595676958371843, -22.96999468058307 14.343157728545561, -23.339247236767974 14.007812326905697 M-23.339247236767974 14.007812326905697 C-23.550924598731537 13.789238071643695, -23.762601960695104 13.570663816381693, -24.208858442968655 13.109867360095677 M-23.339247236767974 14.007812326905697 C-23.646531479731124 13.690516117540714, -23.953815722694273 13.37321990817573, -24.208858442968655 13.109867360095677 M-24.208858442968655 13.109867360095677 C-24.41207633459882 12.871156061161274, -24.615294226228983 12.632444762226871, -25.01915140812658 12.158051136245307 M-24.208858442968655 13.109867360095677 C-24.469018003183514 12.80426913716896, -24.729177563398377 12.498670914242245, -25.01915140812658 12.158051136245307 M-25.01915140812658 12.158051136245307 C-25.222997441724946 11.88491602197919, -25.426843475323317 11.611780907713076, -25.766796464640635 11.156274872382316 M-25.01915140812658 12.158051136245307 C-25.228694793988105 11.877282088986027, -25.438238179849634 11.596513041726746, -25.766796464640635 11.156274872382316 M-25.766796464640635 11.156274872382316 C-26.02844650035768 10.754310154648612, -26.290096536074728 10.352345436914911, -26.448721378604244 10.108655082055249 M-25.766796464640635 11.156274872382316 C-25.961464574305335 10.857212380230603, -26.156132683970032 10.558149888078892, -26.448721378604244 10.108655082055249 M-26.448721378604244 10.108655082055249 C-26.587826521046438 9.861659815726034, -26.726931663488635 9.614664549396819, -27.0621239742735 9.019496659696289 M-26.448721378604244 10.108655082055249 C-26.59705525638621 9.845273261619482, -26.745389134168178 9.581891441183714, -27.0621239742735 9.019496659696289 M-27.0621239742735 9.019496659696289 C-27.191169952301227 8.751529925180114, -27.320215930328953 8.483563190663938, -27.60448364880834 7.893275190886686 M-27.0621239742735 9.019496659696289 C-27.217230740255488 8.697414141381557, -27.37233750623747 8.375331623066826, -27.60448364880834 7.893275190886686 M-27.60448364880834 7.893275190886686 C-27.740379074887585 7.557610861111626, -27.87627450096683 7.221946531336566, -28.073571729970325 6.73461856121551 M-27.60448364880834 7.893275190886686 C-27.738995444358125 7.561028455270069, -27.873507239907912 7.228781719653451, -28.073571729970325 6.73461856121551 M-28.073571729970325 6.73461856121551 C-28.206807208560473 6.333334527892648, -28.34004268715062 5.9320504945697845, -28.46746063421488 5.5482879393051325 M-28.073571729970325 6.73461856121551 C-28.185328162605277 6.398025992088471, -28.297084595240232 6.061433422961431, -28.46746063421488 5.5482879393051325 M-28.46746063421488 5.5482879393051325 C-28.588017555926513 5.088552147118293, -28.708574477638145 4.628816354931452, -28.784531787545557 4.339158212148136 M-28.46746063421488 5.5482879393051325 C-28.534463831173685 5.292775709931959, -28.601467028132486 5.037263480558787, -28.784531787545557 4.339158212148136 M-28.784531787545557 4.339158212148136 C-28.859409721818885 3.954675845111611, -28.934287656092216 3.570193478075086, -29.023482276581777 3.112197953150904 M-28.784531787545557 4.339158212148136 C-28.834359225811102 4.083304847687376, -28.884186664076648 3.827451483226616, -29.023482276581777 3.112197953150904 M-29.023482276581777 3.112197953150904 C-29.056621326961114 2.855178022454436, -29.089760377340454 2.5981580917579685, -29.183330202509364 1.872449005199809 M-29.023482276581777 3.112197953150904 C-29.08110196656726 2.665311015918245, -29.138721656552747 2.218424078685586, -29.183330202509364 1.872449005199809 M-29.183330202509364 1.872449005199809 C-29.20612522545202 1.5173981230565816, -29.22892024839468 1.1623472409133542, -29.263418715913414 0.6250057626472781 M-29.183330202509364 1.872449005199809 C-29.21215600558636 1.4234638545061968, -29.24098180866335 0.9744787038125847, -29.263418715913414 0.6250057626472781 M-29.263418715913414 0.6250057626472781 C-29.263418715913414 0.14139913133887527, -29.263418715913414 -0.3422074999695276, -29.263418715913414 -0.6250057626472687 M-29.263418715913414 0.6250057626472781 C-29.263418715913414 0.1792961196837467, -29.263418715913414 -0.26641352327978474, -29.263418715913414 -0.6250057626472687 M-29.263418715913414 -0.6250057626472687 C-29.24354986921999 -0.934479087741729, -29.223681022526566 -1.2439524128361894, -29.183330202509367 -1.8724490051997822 M-29.263418715913414 -0.6250057626472687 C-29.243297761745758 -0.9384058651503899, -29.223176807578103 -1.2518059676535112, -29.183330202509367 -1.8724490051997822 M-29.183330202509367 -1.8724490051997822 C-29.137862535985782 -2.2250872481504107, -29.092394869462197 -2.57772549110104, -29.023482276581777 -3.112197953150895 M-29.183330202509367 -1.8724490051997822 C-29.126789834661324 -2.310964933070716, -29.07024946681328 -2.7494808609416506, -29.023482276581777 -3.112197953150895 M-29.023482276581777 -3.112197953150895 C-28.950890593524406 -3.484940903392846, -28.878298910467038 -3.8576838536347964, -28.78453178754556 -4.339158212148126 M-29.023482276581777 -3.112197953150895 C-28.965230665732882 -3.411307663377664, -28.906979054883987 -3.710417373604432, -28.78453178754556 -4.339158212148126 M-28.78453178754556 -4.339158212148126 C-28.71514908115629 -4.603744542265579, -28.64576637476702 -4.868330872383032, -28.467460634214884 -5.548287939305123 M-28.78453178754556 -4.339158212148126 C-28.703881308357815 -4.6467134434297925, -28.62323082917007 -4.95426867471146, -28.467460634214884 -5.548287939305123 M-28.467460634214884 -5.548287939305123 C-28.37669226371307 -5.8216678092807195, -28.285923893211258 -6.095047679256316, -28.073571729970332 -6.734618561215485 M-28.467460634214884 -5.548287939305123 C-28.330961653381422 -5.959401121416379, -28.194462672547957 -6.370514303527636, -28.073571729970332 -6.734618561215485 M-28.073571729970332 -6.734618561215485 C-27.937316033724237 -7.071172765268016, -27.80106033747814 -7.407726969320547, -27.604483648808344 -7.893275190886676 M-28.073571729970332 -6.734618561215485 C-27.918011733693284 -7.118854759567727, -27.76245173741623 -7.5030909579199685, -27.604483648808344 -7.893275190886676 M-27.604483648808344 -7.893275190886676 C-27.390099521763215 -8.33844841778137, -27.175715394718086 -8.783621644676064, -27.062123974273504 -9.019496659696282 M-27.604483648808344 -7.893275190886676 C-27.495515802060837 -8.119549256196292, -27.38654795531333 -8.34582332150591, -27.062123974273504 -9.019496659696282 M-27.062123974273504 -9.019496659696282 C-26.827214896184852 -9.43660151496623, -26.592305818096197 -9.853706370236177, -26.448721378604247 -10.108655082055243 M-27.062123974273504 -9.019496659696282 C-26.91955847114813 -9.272636146817996, -26.776992968022757 -9.52577563393971, -26.448721378604247 -10.108655082055243 M-26.448721378604247 -10.108655082055243 C-26.24460591165859 -10.422231251961152, -26.040490444712926 -10.73580742186706, -25.76679646464064 -11.156274872382308 M-26.448721378604247 -10.108655082055243 C-26.185689904429925 -10.51274206022749, -25.922658430255602 -10.916829038399737, -25.76679646464064 -11.156274872382308 M-25.76679646464064 -11.156274872382308 C-25.471036812484105 -11.552565862013463, -25.175277160327564 -11.948856851644617, -25.019151408126586 -12.158051136245302 M-25.76679646464064 -11.156274872382308 C-25.538149123509275 -11.462641479297044, -25.309501782377907 -11.769008086211782, -25.019151408126586 -12.158051136245302 M-25.019151408126586 -12.158051136245302 C-24.816224535908766 -12.396420587218488, -24.61329766369095 -12.634790038191676, -24.208858442968662 -13.10986736009567 M-25.019151408126586 -12.158051136245302 C-24.70916645789794 -12.52217709742722, -24.399181507669294 -12.886303058609137, -24.208858442968662 -13.10986736009567 M-24.208858442968662 -13.10986736009567 C-24.008085892182915 -13.317181502514929, -23.80731334139717 -13.524495644934188, -23.339247236767996 -14.007812326905677 M-24.208858442968662 -13.10986736009567 C-23.989403205725292 -13.33647291015951, -23.769947968481922 -13.563078460223347, -23.339247236767996 -14.007812326905677 M-23.339247236767996 -14.007812326905677 C-22.994587349780133 -14.32082331706716, -22.649927462792274 -14.633834307228643, -22.413891208501887 -14.848196188198107 M-23.339247236767996 -14.007812326905677 C-22.974893951832332 -14.3387083400246, -22.610540666896664 -14.669604353143521, -22.413891208501887 -14.848196188198107 M-22.413891208501887 -14.848196188198107 C-22.080469812925966 -15.114090878453938, -21.747048417350044 -15.37998556870977, -21.43659284457872 -15.627565626425149 M-22.413891208501887 -14.848196188198107 C-22.190204343310597 -15.026580510630687, -21.96651747811931 -15.204964833063267, -21.43659284457872 -15.627565626425149 M-21.43659284457872 -15.627565626425149 C-21.080777011103834 -15.875767348838052, -20.72496117762895 -16.123969071250954, -20.41136807360571 -16.342718045390885 M-21.43659284457872 -15.627565626425149 C-21.204613367037247 -15.789384467728349, -20.972633889495775 -15.95120330903155, -20.41136807360571 -16.342718045390885 M-20.41136807360571 -16.342718045390885 C-20.118176733794705 -16.520452358567876, -19.824985393983702 -16.69818667174487, -19.34242976407679 -16.99071473040609 M-20.41136807360571 -16.342718045390885 C-20.052551048617108 -16.56023503458187, -19.693734023628508 -16.777752023772855, -19.34242976407679 -16.99071473040609 M-19.34242976407679 -16.99071473040609 C-18.989449864851633 -17.17486411773744, -18.636469965626475 -17.359013505068788, -18.234170412792388 -17.56889292409717 M-19.34242976407679 -16.99071473040609 C-18.979118414505713 -17.180254028765294, -18.61580706493464 -17.3697933271245, -18.234170412792388 -17.56889292409717 M-18.234170412792388 -17.56889292409717 C-17.956262461910875 -17.691914530105958, -17.678354511029358 -17.814936136114746, -17.091144095147804 -18.07487676824742 M-18.234170412792388 -17.56889292409717 C-17.825740397417736 -17.749692776257593, -17.41731038204308 -17.930492628418015, -17.091144095147804 -18.07487676824742 M-17.091144095147804 -18.07487676824742 C-16.78330084846085 -18.1881659287, -16.475457601773897 -18.301455089152572, -15.918047751460618 -18.506587066708033 M-17.091144095147804 -18.07487676824742 C-16.827485324814102 -18.171905632965178, -16.5638265544804 -18.268934497682938, -15.918047751460618 -18.506587066708033 M-15.918047751460618 -18.506587066708033 C-15.585707132997076 -18.605224017776507, -15.253366514533534 -18.70386096884498, -14.719701886235413 -18.862249829261067 M-15.918047751460618 -18.506587066708033 C-15.523698977213348 -18.623627712925664, -15.129350202966078 -18.7406683591433, -14.719701886235413 -18.862249829261067 M-14.719701886235413 -18.862249829261067 C-14.468405613241778 -18.91960656371043, -14.217109340248143 -18.976963298159795, -13.501030759676768 -19.140403561325773 M-14.719701886235413 -18.862249829261067 C-14.321788703486016 -18.953070916597433, -13.923875520736617 -19.0438920039338, -13.501030759676768 -19.140403561325773 M-13.501030759676768 -19.140403561325773 C-13.068132472595359 -19.21039119920474, -12.635234185513948 -19.280378837083706, -12.26704215284788 -19.3399052695533 M-13.501030759676768 -19.140403561325773 C-13.250498134518226 -19.180907733251882, -12.999965509359685 -19.221411905177987, -12.26704215284788 -19.3399052695533 M-12.26704215284788 -19.3399052695533 C-11.943740567175352 -19.371093784696082, -11.620438981502822 -19.40228229983887, -11.022806789623903 -19.45993515863156 M-12.26704215284788 -19.3399052695533 C-11.832180087957685 -19.381855889955105, -11.397318023067488 -19.42380651035691, -11.022806789623903 -19.45993515863156 M-11.022806789623903 -19.45993515863156 C-10.665308924636365 -19.47139941933433, -10.307811059648825 -19.4828636800371, -9.773437500000005 -19.5 M-11.022806789623903 -19.45993515863156 C-10.740123251356986 -19.46900026949365, -10.457439713090068 -19.478065380355744, -9.773437500000005 -19.5 M-9.773437500000005 -19.5 C-9.773437500000004 -19.5, -9.773437500000002 -19.5, -9.7734375 -19.5 M-9.773437500000005 -19.5 C-9.773437500000004 -19.5, -9.773437500000002 -19.5, -9.7734375 -19.5" stroke="#9370DB" stroke-width="1.3" fill="none" stroke-dasharray="0 0" style=""/></g><g class="label" style="" transform="translate(-16.8984375, -12)"><rect/><foreignObject width="33.796875" height="24"><div xmlns="http://www.w3.org/1999/xhtml" style="display: table-cell; white-space: nowrap; line-height: 1.5; max-width: 200px; text-align: center;"><span class="nodeLabel"><p>Start</p></span></div></foreignObject></g></g><g class="node default" id="mermaid-29-flowchart-B-1" data-look="classic" transform="translate(215.01121139526367, 124.0390625)"><rect class="basic label-container" style="" x="-98.484375" y="-27" width="196.96875" height="54"/><g class="label" style="" transform="translate(-68.484375, -12)"><rect/><foreignObject width="136.96875" height="24"><div xmlns="http://www.w3.org/1999/xhtml" style="display: table-cell; white-space: nowrap; line-height: 1.5; max-width: 200px; text-align: center;"><span class="nodeLabel"><p>Tokens accumulate</p></span></div></foreignObject></g></g><g class="node default" id="mermaid-29-flowchart-C-3" data-look="classic" transform="translate(457.6518363952637, 84.359375)"><polygon points="76.359375,0 152.71875,-76.359375 76.359375,-152.71875 0,-76.359375" class="label-container" transform="translate(-75.859375, 76.359375)"/><g class="label" style="" transform="translate(-49.359375, -12)"><rect/><foreignObject width="98.71875" height="24"><div xmlns="http://www.w3.org/1999/xhtml" style="display: table-cell; white-space: nowrap; line-height: 1.5; max-width: 200px; text-align: center;"><span class="nodeLabel"><p>Hit threshold?</p></span></div></foreignObject></g></g><g class="node default" id="mermaid-29-flowchart-D-7" data-look="classic" transform="translate(728.2846488952637, 84.359375)"><rect class="basic label-container" style="" x="-119.3671875" y="-27" width="238.734375" height="54"/><g class="label" style="" transform="translate(-89.3671875, -12)"><rect/><foreignObject width="178.734375" height="24"><div xmlns="http://www.w3.org/1999/xhtml" style="display: table-cell; white-space: nowrap; line-height: 1.5; max-width: 200px; text-align: center;"><span class="nodeLabel"><p>SDK generates summary</p></span></div></foreignObject></g></g><g class="node default" id="mermaid-29-flowchart-E-9" data-look="classic" transform="translate(1008.5893363952637, 84.359375)"><rect class="basic label-container" style="" x="-110.9375" y="-27" width="221.875" height="54"/><g class="label" style="" transform="translate(-80.9375, -12)"><rect/><foreignObject width="161.875" height="24"><div xmlns="http://www.w3.org/1999/xhtml" style="display: table-cell; white-space: nowrap; line-height: 1.5; max-width: 200px; text-align: center;"><span class="nodeLabel"><p>Replace old messages</p></span></div></foreignObject></g></g><g class="node default" id="mermaid-29-flowchart-F-11" data-look="classic" transform="translate(1271.1283988952637, 84.359375)"><rect class="basic label-container" style="" x="-101.6015625" y="-27" width="203.203125" height="54"/><g class="label" style="" transform="translate(-71.6015625, -12)"><rect/><foreignObject width="143.203125" height="24"><div xmlns="http://www.w3.org/1999/xhtml" style="display: table-cell; white-space: nowrap; line-height: 1.5; max-width: 200px; text-align: center;"><span class="nodeLabel"><p>Context space freed</p></span></div></foreignObject></g></g><g class="node default" id="mermaid-29-flowchart-G-13" data-look="classic" transform="translate(1521.2221488952637, 140.0390625)"><rect class="basic label-container" style="" x="-98.4921875" y="-27" width="196.984375" height="54"/><g class="label" style="" transform="translate(-68.4921875, -12)"><rect/><foreignObject width="136.984375" height="24"><div xmlns="http://www.w3.org/1999/xhtml" style="display: table-cell; white-space: nowrap; line-height: 1.5; max-width: 200px; text-align: center;"><span class="nodeLabel"><p>Tool loop continues</p></span></div></foreignObject></g></g></g></g></g><defs><filter id="mermaid-29-drop-shadow" height="130%" width="130%"><feDropShadow dx="4" dy="4" stdDeviation="0" flood-opacity="0.06" flood-color="#000000"/></filter></defs><defs><filter id="mermaid-29-drop-shadow-small" height="150%" width="150%"><feDropShadow dx="2" dy="2" stdDeviation="0" flood-opacity="0.06" flood-color="#000000"/></filter></defs></svg>