<svg id="mermaid-0" width="100%" xmlns="http://www.w3.org/2000/svg" xmlns:xlink="http://www.w3.org/1999/xlink" class="flowchart" style="max-width: 1397.58935546875px;" viewBox="0.0000019073486328125 0 1397.58935546875 292.7300109863281" role="graphics-document document" aria-roledescription="flowchart-v2"><style>#mermaid-0{font-family:arial,sans-serif;font-size:16px;fill:#333;}@keyframes edge-animation-frame{from{stroke-dashoffset:0;}}@keyframes dash{to{stroke-dashoffset:0;}}#mermaid-0 .edge-animation-slow{stroke-dasharray:9,5!important;stroke-dashoffset:900;animation:dash 50s linear infinite;stroke-linecap:round;}#mermaid-0 .edge-animation-fast{stroke-dasharray:9,5!important;stroke-dashoffset:900;animation:dash 20s linear infinite;stroke-linecap:round;}#mermaid-0 .error-icon{fill:#552222;}#mermaid-0 .error-text{fill:#552222;stroke:#552222;}#mermaid-0 .edge-thickness-normal{stroke-width:1px;}#mermaid-0 .edge-thickness-thick{stroke-width:3.5px;}#mermaid-0 .edge-pattern-solid{stroke-dasharray:0;}#mermaid-0 .edge-thickness-invisible{stroke-width:0;fill:none;}#mermaid-0 .edge-pattern-dashed{stroke-dasharray:3;}#mermaid-0 .edge-pattern-dotted{stroke-dasharray:2;}#mermaid-0 .marker{fill:#333333;stroke:#333333;}#mermaid-0 .marker.cross{stroke:#333333;}#mermaid-0 svg{font-family:arial,sans-serif;font-size:16px;}#mermaid-0 p{margin:0;}#mermaid-0 .label{font-family:arial,sans-serif;color:#333;}#mermaid-0 .cluster-label text{fill:#333;}#mermaid-0 .cluster-label span{color:#333;}#mermaid-0 .cluster-label span p{background-color:transparent;}#mermaid-0 .label text,#mermaid-0 span{fill:#333;color:#333;}#mermaid-0 .node rect,#mermaid-0 .node circle,#mermaid-0 .node ellipse,#mermaid-0 .node polygon,#mermaid-0 .node path{fill:#ECECFF;stroke:#9370DB;stroke-width:1px;}#mermaid-0 .rough-node .label text,#mermaid-0 .node .label text,#mermaid-0 .image-shape .label,#mermaid-0 .icon-shape .label{text-anchor:middle;}#mermaid-0 .node .katex path{fill:#000;stroke:#000;stroke-width:1px;}#mermaid-0 .rough-node .label,#mermaid-0 .node .label,#mermaid-0 .image-shape .label,#mermaid-0 .icon-shape .label{text-align:center;}#mermaid-0 .node.clickable{cursor:pointer;}#mermaid-0 .root .anchor path{fill:#333333!important;stroke-width:0;stroke:#333333;}#mermaid-0 .arrowheadPath{fill:#333333;}#mermaid-0 .edgePath .path{stroke:#333333;stroke-width:1px;}#mermaid-0 .flowchart-link{stroke:#333333;fill:none;}#mermaid-0 .edgeLabel{background-color:rgba(232,232,232, 0.8);text-align:center;}#mermaid-0 .edgeLabel p{background-color:rgba(232,232,232, 0.8);}#mermaid-0 .edgeLabel rect{opacity:0.5;background-color:rgba(232,232,232, 0.8);fill:rgba(232,232,232, 0.8);}#mermaid-0 .labelBkg{background-color:rgba(232, 232, 232, 0.5);}#mermaid-0 .cluster rect{fill:#ffffde;stroke:#aaaa33;stroke-width:1px;}#mermaid-0 .cluster text{fill:#333;}#mermaid-0 .cluster span{color:#333;}#mermaid-0 div.mermaidTooltip{position:absolute;text-align:center;max-width:200px;padding:2px;font-family:arial,sans-serif;font-size:12px;background:hsl(80, 100%, 96.2745098039%);border:1px solid #aaaa33;border-radius:2px;pointer-events:none;z-index:100;}#mermaid-0 .flowchartTitleText{text-anchor:middle;font-size:18px;fill:#333;}#mermaid-0 rect.text{fill:none;stroke-width:0;}#mermaid-0 .icon-shape,#mermaid-0 .image-shape{background-color:rgba(232,232,232, 0.8);text-align:center;}#mermaid-0 .icon-shape p,#mermaid-0 .image-shape p{background-color:rgba(232,232,232, 0.8);padding:2px;}#mermaid-0 .icon-shape .label rect,#mermaid-0 .image-shape .label rect{opacity:0.5;background-color:rgba(232,232,232, 0.8);fill:rgba(232,232,232, 0.8);}#mermaid-0 .label-icon{display:inline-block;height:1em;overflow:visible;vertical-align:-0.125em;}#mermaid-0 .node .label-icon path{fill:currentColor;stroke:revert;stroke-width:revert;}#mermaid-0 .node .neo-node{stroke:#9370DB;}#mermaid-0 [data-look="neo"].node rect,#mermaid-0 [data-look="neo"].cluster rect,#mermaid-0 [data-look="neo"].node polygon{stroke:#9370DB;filter:drop-shadow(1px 2px 2px rgba(185, 185, 185, 1));}#mermaid-0 [data-look="neo"].node path{stroke:#9370DB;stroke-width:1px;}#mermaid-0 [data-look="neo"].node .outer-path{filter:drop-shadow(1px 2px 2px rgba(185, 185, 185, 1));}#mermaid-0 [data-look="neo"].node .neo-line path{stroke:#9370DB;filter:none;}#mermaid-0 [data-look="neo"].node circle{stroke:#9370DB;filter:drop-shadow(1px 2px 2px rgba(185, 185, 185, 1));}#mermaid-0 [data-look="neo"].node circle .state-start{fill:#000000;}#mermaid-0 [data-look="neo"].icon-shape .icon{fill:#9370DB;filter:drop-shadow(1px 2px 2px rgba(185, 185, 185, 1));}#mermaid-0 [data-look="neo"].icon-shape .icon-neo path{stroke:#9370DB;filter:drop-shadow(1px 2px 2px rgba(185, 185, 185, 1));}#mermaid-0 :root{--mermaid-font-family:arial,sans-serif;}</style><g><marker id="mermaid-0_flowchart-v2-pointEnd" class="marker flowchart-v2" viewBox="0 0 10 10" refX="5" refY="5" markerUnits="userSpaceOnUse" markerWidth="8" markerHeight="8" orient="auto"><path d="M 0 0 L 10 5 L 0 10 z" class="arrowMarkerPath" style="stroke-width: 1; stroke-dasharray: 1, 0;"/></marker><marker id="mermaid-0_flowchart-v2-pointStart" class="marker flowchart-v2" viewBox="0 0 10 10" refX="4.5" refY="5" markerUnits="userSpaceOnUse" markerWidth="8" markerHeight="8" orient="auto"><path d="M 0 5 L 10 10 L 10 0 z" class="arrowMarkerPath" style="stroke-width: 1; stroke-dasharray: 1, 0;"/></marker><marker id="mermaid-0_flowchart-v2-pointEnd-margin" class="marker flowchart-v2" viewBox="0 0 11.5 14" refX="11.5" refY="7" markerUnits="userSpaceOnUse" markerWidth="10.5" markerHeight="14" orient="auto"><path d="M 0 0 L 11.5 7 L 0 14 z" class="arrowMarkerPath" style="stroke-width: 0; stroke-dasharray: 1, 0;"/></marker><marker id="mermaid-0_flowchart-v2-pointStart-margin" class="marker flowchart-v2" viewBox="0 0 11.5 14" refX="1" refY="7" markerUnits="userSpaceOnUse" markerWidth="11.5" markerHeight="14" orient="auto"><polygon points="0,7 11.5,14 11.5,0" class="arrowMarkerPath" style="stroke-width: 0; stroke-dasharray: 1, 0;"/></marker><marker id="mermaid-0_flowchart-v2-circleEnd" class="marker flowchart-v2" viewBox="0 0 10 10" refX="11" refY="5" markerUnits="userSpaceOnUse" markerWidth="11" markerHeight="11" orient="auto"><circle cx="5" cy="5" r="5" class="arrowMarkerPath" style="stroke-width: 1; stroke-dasharray: 1, 0;"/></marker><marker id="mermaid-0_flowchart-v2-circleStart" class="marker flowchart-v2" viewBox="0 0 10 10" refX="-1" refY="5" markerUnits="userSpaceOnUse" markerWidth="11" markerHeight="11" orient="auto"><circle cx="5" cy="5" r="5" class="arrowMarkerPath" style="stroke-width: 1; stroke-dasharray: 1, 0;"/></marker><marker id="mermaid-0_flowchart-v2-circleEnd-margin" class="marker flowchart-v2" viewBox="0 0 10 10" refY="5" refX="12.25" markerUnits="userSpaceOnUse" markerWidth="14" markerHeight="14" orient="auto"><circle cx="5" cy="5" r="5" class="arrowMarkerPath" style="stroke-width: 0; stroke-dasharray: 1, 0;"/></marker><marker id="mermaid-0_flowchart-v2-circleStart-margin" class="marker flowchart-v2" viewBox="0 0 10 10" refX="-2" refY="5" markerUnits="userSpaceOnUse" markerWidth="14" markerHeight="14" orient="auto"><circle cx="5" cy="5" r="5" class="arrowMarkerPath" style="stroke-width: 0; stroke-dasharray: 1, 0;"/></marker><marker id="mermaid-0_flowchart-v2-crossEnd" class="marker cross flowchart-v2" viewBox="0 0 11 11" refX="12" refY="5.2" markerUnits="userSpaceOnUse" markerWidth="11" markerHeight="11" orient="auto"><path d="M 1,1 l 9,9 M 10,1 l -9,9" class="arrowMarkerPath" style="stroke-width: 2; stroke-dasharray: 1, 0;"/></marker><marker id="mermaid-0_flowchart-v2-crossStart" class="marker cross flowchart-v2" viewBox="0 0 11 11" refX="-1" refY="5.2" markerUnits="userSpaceOnUse" markerWidth="11" markerHeight="11" orient="auto"><path d="M 1,1 l 9,9 M 10,1 l -9,9" class="arrowMarkerPath" style="stroke-width: 2; stroke-dasharray: 1, 0;"/></marker><marker id="mermaid-0_flowchart-v2-crossEnd-margin" class="marker cross flowchart-v2" viewBox="0 0 15 15" refX="17.7" refY="7.5" markerUnits="userSpaceOnUse" markerWidth="12" markerHeight="12" orient="auto"><path d="M 1,1 L 14,14 M 1,14 L 14,1" class="arrowMarkerPath" style="stroke-width: 2.5;"/></marker><marker id="mermaid-0_flowchart-v2-crossStart-margin" class="marker cross flowchart-v2" viewBox="0 0 15 15" refX="-3.5" refY="7.5" markerUnits="userSpaceOnUse" markerWidth="12" markerHeight="12" orient="auto"><path d="M 1,1 L 14,14 M 1,14 L 14,1" class="arrowMarkerPath" style="stroke-width: 2.5; stroke-dasharray: 1, 0;"/></marker><g class="root"><g class="clusters"/><g class="edgePaths"><path d="M60.23,153.41L64.313,153.327C68.397,153.243,76.563,153.077,84.147,152.993C91.73,152.91,98.73,152.91,102.23,152.91L105.73,152.91" id="mermaid-0-L_A_B_0" class="edge-thickness-normal edge-pattern-solid edge-thickness-normal edge-pattern-solid flowchart-link" style=";" data-edge="true" data-et="edge" data-id="L_A_B_0" data-points="W3sieCI6NjAuMjI5OTYyNDMxODI1OTI1LCJ5IjoxNTMuNDEwMTU2MjV9LHsieCI6ODQuNzI5OTYxMzk1MjYzNjcsInkiOjE1Mi45MTAxNTYyNX0seyJ4IjoxMDkuNzI5OTYxMzk1MjYzNjcsInkiOjE1Mi45MTAxNTYyNX1d" data-look="classic" marker-end="url(#mermaid-0_flowchart-v2-pointEnd)"/><path d="M322.261,152.91L326.428,152.91C330.595,152.91,338.928,152.91,346.595,152.91C354.261,152.91,361.261,152.91,364.761,152.91L368.261,152.91" id="mermaid-0-L_B_C_0" class="edge-thickness-normal edge-pattern-solid edge-thickness-normal edge-pattern-solid flowchart-link" style=";" data-edge="true" data-et="edge" data-id="L_B_C_0" data-points="W3sieCI6MzIyLjI2MTIxMTM5NTI2MzcsInkiOjE1Mi45MTAxNTYyNX0seyJ4IjozNDcuMjYxMjExMzk1MjYzNywieSI6MTUyLjkxMDE1NjI1fSx7IngiOjM3Mi4yNjEyMTEzOTUyNjM3LCJ5IjoxNTIuOTEwMTU2MjV9XQ==" data-look="classic" marker-end="url(#mermaid-0_flowchart-v2-pointEnd)"/><path d="M443.814,125.91L454.506,108.092C465.197,90.273,486.581,54.637,517.576,36.818C548.571,19,589.178,19,631.86,19C674.542,19,719.3,19,747.261,19.753C775.221,20.506,786.384,22.012,791.966,22.765L797.547,23.518" id="mermaid-0-L_C_D_0" class="edge-thickness-normal edge-pattern-solid edge-thickness-normal edge-pattern-solid flowchart-link" style=";" data-edge="true" data-et="edge" data-id="L_C_D_0" data-points="W3sieCI6NDQzLjgxMzg3NjU0Njg3ODI1LCJ5IjoxMjUuOTEwMTU2MjV9LHsieCI6NTA3Ljk2NDMzNjM5NTI2MzcsInkiOjE5fSx7IngiOjYyOS43ODQ2NDg4OTUyNjM3LCJ5IjoxOX0seyJ4Ijo3NjQuMDU4MDg2Mzk1MjYzNywieSI6MTl9LHsieCI6ODAxLjUxMTIxMTM5NTI2MzcsInkiOjI0LjA1MjYzMTU3ODk0NzM3fV0=" data-look="classic" marker-end="url(#mermaid-0_flowchart-v2-pointEnd)"/><path d="M963.808,35L967.975,35C972.141,35,980.475,35,988.141,35C995.808,35,1002.808,35,1006.308,35L1009.808,35" id="mermaid-0-L_D_E_0" class="edge-thickness-normal edge-pattern-solid edge-thickness-normal edge-pattern-solid flowchart-link" style=";" data-edge="true" data-et="edge" data-id="L_D_E_0" data-points="W3sieCI6OTYzLjgwODA4NjM5NTI2MzcsInkiOjM1fSx7IngiOjk4OC44MDgwODYzOTUyNjM3LCJ5IjozNX0seyJ4IjoxMDEzLjgwODA4NjM5NTI2MzcsInkiOjM1fV0=" data-look="classic" marker-end="url(#mermaid-0_flowchart-v2-pointEnd)"/><path d="M1205.761,35L1209.928,35C1214.095,35,1222.428,35,1237.996,49.626C1253.564,64.252,1276.366,93.504,1287.768,108.13L1299.169,122.755" id="mermaid-0-L_E_F_0" class="edge-thickness-normal edge-pattern-solid edge-thickness-normal edge-pattern-solid flowchart-link" style=";" data-edge="true" data-et="edge" data-id="L_E_F_0" data-points="W3sieCI6MTIwNS43NjEyMTEzOTUyNjM3LCJ5IjozNX0seyJ4IjoxMjMwLjc2MTIxMTM5NTI2MzcsInkiOjM1fSx7IngiOjEzMDEuNjI4MDY1MDE2NjgxNiwieSI6MTI1LjkxMDE1NjI1fV0=" data-look="classic" marker-end="url(#mermaid-0_flowchart-v2-pointEnd)"/><path d="M1303.849,179.91L1291.668,197.38C1279.486,214.85,1255.124,249.79,1222.78,267.26C1190.436,284.73,1150.11,284.73,1109.785,284.73C1069.459,284.73,1029.134,284.73,991.279,284.73C953.425,284.73,918.042,284.73,880.584,284.73C843.126,284.73,803.592,284.73,761.446,284.73C719.3,284.73,674.542,284.73,631.86,284.73C589.178,284.73,548.571,284.73,517.966,267.83C487.36,250.929,466.757,217.127,456.455,200.226L446.153,183.326" id="mermaid-0-L_F_C_0" class="edge-thickness-normal edge-pattern-solid edge-thickness-normal edge-pattern-solid flowchart-link" style=";" data-edge="true" data-et="edge" data-id="L_F_C_0" data-points="W3sieCI6MTMwMy44NDkwNDI2MzgyMjYsInkiOjE3OS45MTAxNTYyNX0seyJ4IjoxMjMwLjc2MTIxMTM5NTI2MzcsInkiOjI4NC43MzA0Njg3NX0seyJ4IjoxMTA5Ljc4NDY0ODg5NTI2MzcsInkiOjI4NC43MzA0Njg3NX0seyJ4Ijo5ODguODA4MDg2Mzk1MjYzNywieSI6Mjg0LjczMDQ2ODc1fSx7IngiOjg4Mi42NTk2NDg4OTUyNjM3LCJ5IjoyODQuNzMwNDY4NzV9LHsieCI6NzY0LjA1ODA4NjM5NTI2MzcsInkiOjI4NC43MzA0Njg3NX0seyJ4Ijo2MjkuNzg0NjQ4ODk1MjYzNywieSI6Mjg0LjczMDQ2ODc1fSx7IngiOjUwNy45NjQzMzYzOTUyNjM3LCJ5IjoyODQuNzMwNDY4NzV9LHsieCI6NDQ0LjA3MDcyNDQ2NzE4MzMsInkiOjE3OS45MTAxNTYyNX1d" data-look="classic" marker-end="url(#mermaid-0_flowchart-v2-pointEnd)"/><path d="M482.964,152.91L487.131,152.91C491.298,152.91,499.631,152.91,507.298,152.91C514.964,152.91,521.964,152.91,525.464,152.91L528.964,152.91" id="mermaid-0-L_C_G_0" class="edge-thickness-normal edge-pattern-solid edge-thickness-normal edge-pattern-solid flowchart-link" style=";" data-edge="true" data-et="edge" data-id="L_C_G_0" data-points="W3sieCI6NDgyLjk2NDMzNjM5NTI2MzcsInkiOjE1Mi45MTAxNTYyNX0seyJ4Ijo1MDcuOTY0MzM2Mzk1MjYzNywieSI6MTUyLjkxMDE1NjI1fSx7IngiOjUzMi45NjQzMzYzOTUyNjM3LCJ5IjoxNTIuOTEwMTU2MjV9XQ==" data-look="classic" marker-end="url(#mermaid-0_flowchart-v2-pointEnd)"/><path d="M699.577,125.882L710.324,121.72C721.07,117.558,742.564,109.234,764.398,98.911C786.231,88.588,808.405,76.265,819.492,70.104L830.578,63.943" id="mermaid-0-L_G_D_0" class="edge-thickness-normal edge-pattern-solid edge-thickness-normal edge-pattern-solid flowchart-link" style=";" data-edge="true" data-et="edge" data-id="L_G_D_0" data-points="W3sieCI6Njk5LjU3NjY1MTE5OTM5OTEsInkiOjEyNS44ODE4NDYwNTQxMzUzOH0seyJ4Ijo3NjQuMDU4MDg2Mzk1MjYzNywieSI6MTAwLjkxMDE1NjI1fSx7IngiOjgzNC4wNzQ2OTA2Nzc5OTM0LCJ5Ijo2Mn1d" data-look="classic" marker-end="url(#mermaid-0_flowchart-v2-pointEnd)"/><path d="M706.627,172.889L716.199,175.377C725.77,177.866,744.914,182.843,761.472,185.332C778.029,187.82,792.001,187.82,798.986,187.82L805.972,187.82" id="mermaid-0-L_G_H_0" class="edge-thickness-normal edge-pattern-solid edge-thickness-normal edge-pattern-solid flowchart-link" style=";" data-edge="true" data-et="edge" data-id="L_G_H_0" data-points="W3sieCI6NzA2LjYyNjU5MjU1NTY1MDIsInkiOjE3Mi44ODg1MjUwODk2MTM1fSx7IngiOjc2NC4wNTgwODYzOTUyNjM3LCJ5IjoxODcuODIwMzEyNX0seyJ4Ijo4MDkuOTcyMTQ4ODk1MjYzNywieSI6MTg3LjgyMDMxMjV9XQ==" data-look="classic" marker-end="url(#mermaid-0_flowchart-v2-pointEnd)"/></g><g class="edgeLabels"><g class="edgeLabel"><g class="label" data-id="L_A_B_0" transform="translate(0, 0)"><foreignObject width="0" height="0"><div xmlns="http://www.w3.org/1999/xhtml" class="labelBkg" style="display: table-cell; white-space: nowrap; line-height: 1.5; max-width: 200px; text-align: center;"><span class="edgeLabel"></span></div></foreignObject></g></g><g class="edgeLabel"><g class="label" data-id="L_B_C_0" transform="translate(0, 0)"><foreignObject width="0" height="0"><div xmlns="http://www.w3.org/1999/xhtml" class="labelBkg" style="display: table-cell; white-space: nowrap; line-height: 1.5; max-width: 200px; text-align: center;"><span class="edgeLabel"></span></div></foreignObject></g></g><g class="edgeLabel"><g class="label" data-id="L_C_D_0" transform="translate(0, 0)"><foreignObject width="0" height="0"><div xmlns="http://www.w3.org/1999/xhtml" class="labelBkg" style="display: table-cell; white-space: nowrap; line-height: 1.5; max-width: 200px; text-align: center;"><span class="edgeLabel"></span></div></foreignObject></g></g><g class="edgeLabel"><g class="label" data-id="L_D_E_0" transform="translate(0, 0)"><foreignObject width="0" height="0"><div xmlns="http://www.w3.org/1999/xhtml" class="labelBkg" style="display: table-cell; white-space: nowrap; line-height: 1.5; max-width: 200px; text-align: center;"><span class="edgeLabel"></span></div></foreignObject></g></g><g class="edgeLabel"><g class="label" data-id="L_E_F_0" transform="translate(0, 0)"><foreignObject width="0" height="0"><div xmlns="http://www.w3.org/1999/xhtml" class="labelBkg" style="display: table-cell; white-space: nowrap; line-height: 1.5; max-width: 200px; text-align: center;"><span class="edgeLabel"></span></div></foreignObject></g></g><g class="edgeLabel"><g class="label" data-id="L_F_C_0" transform="translate(0, 0)"><foreignObject width="0" height="0"><div xmlns="http://www.w3.org/1999/xhtml" class="labelBkg" style="display: table-cell; white-space: nowrap; line-height: 1.5; max-width: 200px; text-align: center;"><span class="edgeLabel"></span></div></foreignObject></g></g><g class="edgeLabel"><g class="label" data-id="L_C_G_0" transform="translate(0, 0)"><foreignObject width="0" height="0"><div xmlns="http://www.w3.org/1999/xhtml" class="labelBkg" style="display: table-cell; white-space: nowrap; line-height: 1.5; max-width: 200px; text-align: center;"><span class="edgeLabel"></span></div></foreignObject></g></g><g class="edgeLabel" transform="translate(764.0580863952637, 100.91015625)"><g class="label" data-id="L_G_D_0" transform="translate(-12.453125, -12)"><foreignObject width="24.90625" height="24"><div xmlns="http://www.w3.org/1999/xhtml" class="labelBkg" style="display: table-cell; white-space: nowrap; line-height: 1.5; max-width: 200px; text-align: center;"><span class="edgeLabel"><p>yes</p></span></div></foreignObject></g></g><g class="edgeLabel" transform="translate(764.0580863952637, 187.8203125)"><g class="label" data-id="L_G_H_0" transform="translate(-8.8984375, -12)"><foreignObject width="17.796875" height="24"><div xmlns="http://www.w3.org/1999/xhtml" class="labelBkg" style="display: table-cell; white-space: nowrap; line-height: 1.5; max-width: 200px; text-align: center;"><span class="edgeLabel"><p>no</p></span></div></foreignObject></g></g></g><g class="nodes"><g class="node default" id="mermaid-0-flowchart-A-0" data-look="classic" transform="translate(33.864980697631836, 152.91015625)"><g class="basic label-container outer-path"><path d="M-6.375 -19.5 C-2.6940907385413393 -19.5, 0.9868185229173214 -19.5, 6.375 -19.5 C6.375 -19.5, 6.374999999999999 -19.5, 6.374999999999999 -19.5 C6.812942822454362 -19.48595602608788, 7.250885644908726 -19.47191205217576, 7.6243692896239 -19.45993515863156 C8.119901164298444 -19.412131794645976, 8.615433038972988 -19.364328430660397, 8.868604652847864 -19.3399052695533 C9.298617804328412 -19.27038407802372, 9.728630955808962 -19.20086288649414, 10.102593259676757 -19.140403561325776 C10.359277820921728 -19.081816985244913, 10.615962382166698 -19.02323040916405, 11.32126438623539 -18.862249829261074 C11.574157843887535 -18.787192378494765, 11.827051301539683 -18.712134927728457, 12.519610251460602 -18.50658706670804 C12.8859074641007 -18.371786306442168, 13.252204676740797 -18.236985546176296, 13.692706595147794 -18.074876768247425 C14.080404295239457 -17.9032544970605, 14.46810199533112 -17.731632225873575, 14.835732912792382 -17.568892924097174 C15.129184052818529 -17.41579965230996, 15.422635192844675 -17.262706380522744, 15.943992264076783 -16.990714730406097 C16.362120801055354 -16.737242754093657, 16.780249338033926 -16.48377077778122, 17.012930573605697 -16.342718045390892 C17.2873463131105 -16.151297504778245, 17.5617620526153 -15.9598769641656, 18.038155344578712 -15.627565626425154 C18.31157801179574 -15.409518325402326, 18.585000679012765 -15.191471024379497, 19.01545370850187 -14.848196188198123 C19.366565791266165 -14.52932548454823, 19.71767787403046 -14.210454780898335, 19.940809736767985 -14.007812326905688 C20.179095618156225 -13.761762590737634, 20.417381499544465 -13.51571285456958, 20.810420942968648 -13.10986736009568 C21.071514013392555 -12.803172582959185, 21.33260708381646 -12.49647780582269, 21.620713908126582 -12.158051136245305 C21.798162637464863 -11.920286004843813, 21.975611366803147 -11.682520873442321, 22.368358964640635 -11.156274872382312 C22.597780940655582 -10.803821108796802, 22.82720291667053 -10.45136734521129, 23.050283878604247 -10.108655082055241 C23.189366798603547 -9.861699273923652, 23.328449718602847 -9.614743465792063, 23.6636864742735 -9.019496659696287 C23.772929589922725 -8.792650992622447, 23.88217270557195 -8.565805325548608, 24.20604614880834 -7.893275190886684 C24.34345832661921 -7.553864455010115, 24.48087050443008 -7.2144537191335445, 24.675134229970325 -6.734618561215508 C24.766874470932446 -6.4583115722599915, 24.858614711894568 -6.182004583304475, 25.06902313421488 -5.548287939305138 C25.138210719498698 -5.284445690528801, 25.207398304782515 -5.020603441752463, 25.38609428754556 -4.339158212148133 C25.43531458253385 -4.086422400096297, 25.48453487752214 -3.8336865880444613, 25.625044776581777 -3.1121979531509023 C25.67596346050834 -2.7172826956479414, 25.7268821444349 -2.3223674381449806, 25.784892702509367 -1.872449005199798 C25.80792416285909 -1.5137154195926725, 25.830955623208812 -1.154981833985547, 25.864981215913414 -0.6250057626472757 C25.864981215913414 -0.2422445673123062, 25.864981215913414 0.1405166280226633, 25.864981215913414 0.625005762647271 C25.839115473873573 1.0278855733689853, 25.813249731833732 1.4307653840906995, 25.784892702509367 1.8724490051997846 C25.75197989201072 2.12771426405773, 25.719067081512073 2.3829795229156754, 25.625044776581777 3.1121979531508885 C25.5531331958222 3.481448721833348, 25.481221615062623 3.850699490515807, 25.38609428754556 4.339158212148129 C25.308583664672582 4.634739810479248, 25.231073041799604 4.930321408810367, 25.069023134214884 5.548287939305125 C24.95942945055552 5.878366653104942, 24.849835766896156 6.208445366904759, 24.67513422997033 6.734618561215495 C24.56466800524327 7.0074722720104985, 24.454201780516208 7.280325982805502, 24.206046148808344 7.893275190886679 C24.075664890956748 8.164014662527533, 23.945283633105152 8.434754134168386, 23.663686474273504 9.019496659696284 C23.5021388888903 9.306340756011032, 23.340591303507097 9.59318485232578, 23.05028387860425 10.108655082055236 C22.895796116799932 10.345989769959269, 22.741308354995613 10.583324457863302, 22.36835896464064 11.156274872382301 C22.123888923506055 11.48384245582373, 21.879418882371468 11.811410039265157, 21.620713908126582 12.158051136245302 C21.308371245220897 12.524946600895323, 20.99602858231521 12.891842065545342, 20.81042094296866 13.10986736009567 C20.60078622439893 13.326332418349397, 20.3911515058292 13.542797476603123, 19.94080973676799 14.007812326905684 C19.7313469358038 14.198040900659345, 19.52188413483961 14.388269474413006, 19.015453708501887 14.848196188198111 C18.72762216146392 15.077734187441743, 18.439790614425956 15.307272186685376, 18.038155344578715 15.627565626425152 C17.628082536088954 15.91361466586184, 17.218009727599192 16.199663705298526, 17.012930573605708 16.34271804539089 C16.65246076754165 16.561236960182633, 16.291990961477595 16.77975587497438, 15.943992264076787 16.990714730406093 C15.592807138722247 17.17392778535875, 15.241622013367708 17.357140840311402, 14.835732912792386 17.56889292409717 C14.425776299378985 17.750368555924425, 14.015819685965582 17.93184418775168, 13.692706595147804 18.07487676824742 C13.27390721526486 18.228998811383374, 12.855107835381915 18.383120854519326, 12.519610251460616 18.506587066708033 C12.197009391241732 18.60233330865453, 11.874408531022848 18.698079550601022, 11.321264386235413 18.86224982926107 C10.98155254803289 18.939786839503878, 10.64184070983037 19.017323849746685, 10.102593259676766 19.140403561325773 C9.759569645210716 19.195860959124783, 9.416546030744666 19.251318356923797, 8.868604652847878 19.3399052695533 C8.559664820344373 19.369708323640403, 8.250724987840869 19.399511377727507, 7.624369289623901 19.45993515863156 C7.316940489066819 19.469793801891566, 7.009511688509738 19.479652445151572, 6.3750000000000036 19.5 C6.375000000000003 19.5, 6.375000000000002 19.5, 6.375 19.5 C1.9778081525225852 19.5, -2.4193836949548295 19.5, -6.3749999999999964 19.5 C-6.702044399172872 19.489512322671832, -7.0290887983457475 19.479024645343664, -7.6243692896238935 19.45993515863156 C-8.074551267993531 19.41650664460128, -8.52473324636317 19.373078130571006, -8.868604652847871 19.3399052695533 C-9.318316180947434 19.267199397255148, -9.768027709046997 19.194493524956997, -10.102593259676759 19.140403561325773 C-10.431651912046105 19.065298071230853, -10.760710564415453 18.990192581135933, -11.321264386235388 18.862249829261074 C-11.790482105113385 18.722988473272153, -12.259699823991385 18.583727117283228, -12.519610251460593 18.506587066708043 C-12.86570609005799 18.37922059882934, -13.211801928655388 18.251854130950637, -13.692706595147797 18.074876768247425 C-14.12022352106908 17.885627706981094, -14.547740446990366 17.696378645714763, -14.83573291279238 17.568892924097174 C-15.26509338392391 17.344895841326363, -15.69445385505544 17.12089875855555, -15.94399226407678 16.990714730406097 C-16.25260886388642 16.803629533969044, -16.561225463696058 16.61654433753199, -17.012930573605686 16.3427180453909 C-17.269184064368904 16.163966703269306, -17.52543755513212 15.985215361147713, -18.038155344578712 15.627565626425156 C-18.407314173314 15.333171284237768, -18.776473002049283 15.03877694205038, -19.01545370850187 14.848196188198125 C-19.252404678850993 14.633003586306174, -19.489355649200117 14.417810984414224, -19.940809736767974 14.007812326905697 C-20.144087903161413 13.79791093065663, -20.34736606955485 13.588009534407565, -20.810420942968655 13.109867360095677 C-21.056543790533023 12.820757458559806, -21.30266663809739 12.531647557023936, -21.62071390812658 12.158051136245307 C-21.897785780355694 11.786800069225123, -22.174857652584812 11.41554900220494, -22.368358964640635 11.156274872382316 C-22.571421362462065 10.844316499439882, -22.77448376028349 10.53235812649745, -23.050283878604244 10.108655082055249 C-23.254627065645124 9.745823061472715, -23.458970252686004 9.38299104089018, -23.6636864742735 9.019496659696289 C-23.817709158832425 8.69966525965217, -23.97173184339135 8.379833859608048, -24.20604614880834 7.893275190886686 C-24.35162123966058 7.533701901978739, -24.497196330512825 7.17412861307079, -24.675134229970325 6.73461856121551 C-24.780766600159694 6.416470692437726, -24.886398970349063 6.098322823659942, -25.06902313421488 5.5482879393051325 C-25.180153703491207 5.124498914361097, -25.291284272767538 4.700709889417061, -25.386094287545557 4.339158212148136 C-25.465416136397554 3.931857282971823, -25.544737985249554 3.5245563537955094, -25.625044776581777 3.112197953150904 C-25.66306138971653 2.8173486089071744, -25.701078002851276 2.5224992646634443, -25.784892702509364 1.872449005199809 C-25.810225690703152 1.4778672656615153, -25.835558678896945 1.0832855261232213, -25.864981215913414 0.6250057626472781 C-25.864981215913414 0.2633766017715791, -25.864981215913414 -0.0982525591041199, -25.864981215913414 -0.6250057626472687 C-25.843448085349227 -0.9604016524146459, -25.82191495478504 -1.2957975421820231, -25.784892702509367 -1.8724490051997822 C-25.741899041696573 -2.2058993484051843, -25.698905380883783 -2.539349691610586, -25.625044776581777 -3.112197953150895 C-25.542716688258544 -3.534935286643078, -25.460388599935307 -3.957672620135261, -25.38609428754556 -4.339158212148126 C-25.318573676505874 -4.596643565660386, -25.251053065466188 -4.854128919172647, -25.069023134214884 -5.548287939305123 C-24.958055303671102 -5.882505364580233, -24.84708747312732 -6.216722789855343, -24.675134229970332 -6.734618561215485 C-24.552436455461162 -7.037684436453228, -24.429738680951992 -7.340750311690971, -24.206046148808344 -7.893275190886676 C-24.096934255803284 -8.119848371332196, -23.987822362798223 -8.346421551777716, -23.663686474273504 -9.019496659696282 C-23.44188031197861 -9.413335961160312, -23.220074149683715 -9.807175262624343, -23.050283878604247 -10.108655082055243 C-22.83480726423328 -10.439685025301674, -22.61933064986231 -10.770714968548106, -22.36835896464064 -11.156274872382308 C-22.1092437418648 -11.503465665019526, -21.85012851908895 -11.850656457656745, -21.620713908126586 -12.158051136245302 C-21.303682375126925 -12.530454414511969, -20.98665084212727 -12.902857692778635, -20.810420942968662 -13.10986736009567 C-20.467972319047917 -13.463473679848743, -20.125523695127168 -13.817079999601814, -19.940809736767996 -14.007812326905677 C-19.57816252311489 -14.337158931225948, -19.21551530946179 -14.666505535546221, -19.015453708501887 -14.848196188198107 C-18.734564404572687 -15.072197933303347, -18.453675100643487 -15.296199678408588, -18.03815534457872 -15.627565626425149 C-17.807519826677513 -15.788446979662375, -17.57688430877631 -15.949328332899599, -17.01293057360571 -16.342718045390885 C-16.618676084532805 -16.58171743356343, -16.224421595459898 -16.820716821735974, -15.943992264076789 -16.99071473040609 C-15.671967241658038 -17.13263001036161, -15.399942219239287 -17.274545290317132, -14.83573291279239 -17.56889292409717 C-14.57089269987778 -17.686129830148683, -14.306052486963171 -17.803366736200196, -13.692706595147806 -18.07487676824742 C-13.375777965246893 -18.191509433707097, -13.058849335345979 -18.308142099166773, -12.519610251460618 -18.506587066708033 C-12.234487366915566 -18.59121004220044, -11.949364482370513 -18.675833017692852, -11.321264386235413 -18.862249829261067 C-10.918170635353736 -18.954253347467258, -10.515076884472059 -19.046256865673453, -10.102593259676768 -19.140403561325773 C-9.738891712678793 -19.199204006896785, -9.375190165680818 -19.258004452467794, -8.86860465284788 -19.3399052695533 C-8.489738828167026 -19.376454000007442, -8.110873003486171 -19.413002730461585, -7.624369289623903 -19.45993515863156 C-7.332429119998224 -19.469297111644387, -7.040488950372544 -19.478659064657215, -6.375000000000006 -19.5 C-6.375000000000005 -19.5, -6.3750000000000036 -19.5, -6.375 -19.5" stroke="none" stroke-width="0" fill="#ECECFF" style=""/><path d="M-6.375 -19.5 C-3.4395281201550207 -19.5, -0.5040562403100415 -19.5, 6.375 -19.5 M-6.375 -19.5 C-2.0730378993157945 -19.5, 2.228924201368411 -19.5, 6.375 -19.5 M6.375 -19.5 C6.375 -19.5, 6.374999999999999 -19.5, 6.374999999999999 -19.5 M6.375 -19.5 C6.375 -19.5, 6.375 -19.5, 6.374999999999999 -19.5 M6.374999999999999 -19.5 C6.831439340930423 -19.485362878741643, 7.287878681860847 -19.470725757483287, 7.6243692896239 -19.45993515863156 M6.374999999999999 -19.5 C6.639251470621713 -19.491525969671446, 6.903502941243427 -19.483051939342893, 7.6243692896239 -19.45993515863156 M7.6243692896239 -19.45993515863156 C8.030755908597593 -19.42073153025058, 8.437142527571286 -19.381527901869607, 8.868604652847864 -19.3399052695533 M7.6243692896239 -19.45993515863156 C7.874570436289103 -19.43579855492367, 8.124771582954306 -19.41166195121578, 8.868604652847864 -19.3399052695533 M8.868604652847864 -19.3399052695533 C9.142956095357821 -19.2955502559555, 9.417307537867776 -19.251195242357706, 10.102593259676757 -19.140403561325776 M8.868604652847864 -19.3399052695533 C9.334343191542839 -19.264608274473407, 9.800081730237812 -19.189311279393515, 10.102593259676757 -19.140403561325776 M10.102593259676757 -19.140403561325776 C10.364710551461469 -19.080576999951095, 10.626827843246181 -19.020750438576417, 11.32126438623539 -18.862249829261074 M10.102593259676757 -19.140403561325776 C10.559919709521155 -19.036021783482777, 11.017246159365556 -18.93164000563978, 11.32126438623539 -18.862249829261074 M11.32126438623539 -18.862249829261074 C11.711001037680816 -18.746578036881502, 12.100737689126243 -18.63090624450193, 12.519610251460602 -18.50658706670804 M11.32126438623539 -18.862249829261074 C11.664999324797066 -18.76023110379748, 12.008734263358743 -18.658212378333886, 12.519610251460602 -18.50658706670804 M12.519610251460602 -18.50658706670804 C12.792345320594 -18.406218040131606, 13.065080389727397 -18.305849013555175, 13.692706595147794 -18.074876768247425 M12.519610251460602 -18.50658706670804 C12.801701342946458 -18.402774937419778, 13.083792434432317 -18.29896280813152, 13.692706595147794 -18.074876768247425 M13.692706595147794 -18.074876768247425 C14.035526813852051 -17.92312042682752, 14.378347032556311 -17.771364085407612, 14.835732912792382 -17.568892924097174 M13.692706595147794 -18.074876768247425 C14.020302628429025 -17.929859722104876, 14.347898661710257 -17.78484267596233, 14.835732912792382 -17.568892924097174 M14.835732912792382 -17.568892924097174 C15.258141444238298 -17.34852266380742, 15.680549975684213 -17.12815240351766, 15.943992264076783 -16.990714730406097 M14.835732912792382 -17.568892924097174 C15.15689539244935 -17.40134266417452, 15.478057872106318 -17.233792404251865, 15.943992264076783 -16.990714730406097 M15.943992264076783 -16.990714730406097 C16.228077825842707 -16.818500393391524, 16.51216338760863 -16.64628605637695, 17.012930573605697 -16.342718045390892 M15.943992264076783 -16.990714730406097 C16.26524318061968 -16.795970536917856, 16.586494097162575 -16.601226343429612, 17.012930573605697 -16.342718045390892 M17.012930573605697 -16.342718045390892 C17.227213809390772 -16.193243336278996, 17.44149704517585 -16.043768627167097, 18.038155344578712 -15.627565626425154 M17.012930573605697 -16.342718045390892 C17.23492146895994 -16.18786680662275, 17.45691236431418 -16.033015567854605, 18.038155344578712 -15.627565626425154 M18.038155344578712 -15.627565626425154 C18.26677048765866 -15.44525113352335, 18.495385630738614 -15.262936640621545, 19.01545370850187 -14.848196188198123 M18.038155344578712 -15.627565626425154 C18.244994932275166 -15.462616559469824, 18.45183451997162 -15.297667492514494, 19.01545370850187 -14.848196188198123 M19.01545370850187 -14.848196188198123 C19.34326939388393 -14.550482656261877, 19.671085079265993 -14.25276912432563, 19.940809736767985 -14.007812326905688 M19.01545370850187 -14.848196188198123 C19.276193583220604 -14.611399132777613, 19.536933457939334 -14.374602077357103, 19.940809736767985 -14.007812326905688 M19.940809736767985 -14.007812326905688 C20.20767197851042 -13.732255152509111, 20.47453422025285 -13.456697978112537, 20.810420942968648 -13.10986736009568 M19.940809736767985 -14.007812326905688 C20.17250833935298 -13.768564496927631, 20.404206941937975 -13.529316666949576, 20.810420942968648 -13.10986736009568 M20.810420942968648 -13.10986736009568 C21.108401737271475 -12.759842163520053, 21.406382531574305 -12.409816966944426, 21.620713908126582 -12.158051136245305 M20.810420942968648 -13.10986736009568 C21.01230750969292 -12.872719911150272, 21.214194076417197 -12.63557246220486, 21.620713908126582 -12.158051136245305 M21.620713908126582 -12.158051136245305 C21.84488247303163 -11.857685681448922, 22.069051037936685 -11.55732022665254, 22.368358964640635 -11.156274872382312 M21.620713908126582 -12.158051136245305 C21.878305211465435 -11.812902256821737, 22.13589651480429 -11.467753377398168, 22.368358964640635 -11.156274872382312 M22.368358964640635 -11.156274872382312 C22.62100030696642 -10.768149926870482, 22.8736416492922 -10.380024981358654, 23.050283878604247 -10.108655082055241 M22.368358964640635 -11.156274872382312 C22.512687869344244 -10.93454691702006, 22.657016774047854 -10.71281896165781, 23.050283878604247 -10.108655082055241 M23.050283878604247 -10.108655082055241 C23.291155396868948 -9.680963310490181, 23.532026915133653 -9.253271538925121, 23.6636864742735 -9.019496659696287 M23.050283878604247 -10.108655082055241 C23.260619355883474 -9.73518314336934, 23.4709548331627 -9.36171120468344, 23.6636864742735 -9.019496659696287 M23.6636864742735 -9.019496659696287 C23.826924269616665 -8.680529884936908, 23.990162064959833 -8.341563110177528, 24.20604614880834 -7.893275190886684 M23.6636864742735 -9.019496659696287 C23.830206631154848 -8.67371399097159, 23.99672678803619 -8.327931322246892, 24.20604614880834 -7.893275190886684 M24.20604614880834 -7.893275190886684 C24.344588917287656 -7.551071874200564, 24.483131685766974 -7.208868557514444, 24.675134229970325 -6.734618561215508 M24.20604614880834 -7.893275190886684 C24.36735584992242 -7.494837110424006, 24.528665551036497 -7.096399029961329, 24.675134229970325 -6.734618561215508 M24.675134229970325 -6.734618561215508 C24.80031878311699 -6.3575826325876585, 24.92550333626365 -5.98054670395981, 25.06902313421488 -5.548287939305138 M24.675134229970325 -6.734618561215508 C24.807645642937157 -6.335515298185885, 24.940157055903992 -5.936412035156262, 25.06902313421488 -5.548287939305138 M25.06902313421488 -5.548287939305138 C25.15115815418692 -5.235071510608915, 25.233293174158963 -4.9218550819126925, 25.38609428754556 -4.339158212148133 M25.06902313421488 -5.548287939305138 C25.148920658606297 -5.243604050994553, 25.228818182997713 -4.938920162683968, 25.38609428754556 -4.339158212148133 M25.38609428754556 -4.339158212148133 C25.44312051846573 -4.046340568871246, 25.500146749385895 -3.7535229255943596, 25.625044776581777 -3.1121979531509023 M25.38609428754556 -4.339158212148133 C25.45729543730399 -3.973555356506924, 25.52849658706242 -3.607952500865715, 25.625044776581777 -3.1121979531509023 M25.625044776581777 -3.1121979531509023 C25.67803436204548 -2.7012211922716456, 25.73102394750918 -2.290244431392389, 25.784892702509367 -1.872449005199798 M25.625044776581777 -3.1121979531509023 C25.68789204072021 -2.6247669830892635, 25.75073930485864 -2.1373360130276247, 25.784892702509367 -1.872449005199798 M25.784892702509367 -1.872449005199798 C25.810491314707527 -1.4737299573856044, 25.836089926905686 -1.0750109095714109, 25.864981215913414 -0.6250057626472757 M25.784892702509367 -1.872449005199798 C25.806592829183842 -1.5344520162178765, 25.828292955858316 -1.196455027235955, 25.864981215913414 -0.6250057626472757 M25.864981215913414 -0.6250057626472757 C25.864981215913414 -0.3415441252949851, 25.864981215913414 -0.05808248794269455, 25.864981215913414 0.625005762647271 M25.864981215913414 -0.6250057626472757 C25.864981215913414 -0.2838283059567111, 25.864981215913414 0.05734915073385349, 25.864981215913414 0.625005762647271 M25.864981215913414 0.625005762647271 C25.83959319871272 1.0204446233867317, 25.814205181512026 1.4158834841261925, 25.784892702509367 1.8724490051997846 M25.864981215913414 0.625005762647271 C25.84769677900996 0.8942248191649177, 25.830412342106506 1.1634438756825642, 25.784892702509367 1.8724490051997846 M25.784892702509367 1.8724490051997846 C25.72978948924616 2.299818645909012, 25.67468627598295 2.7271882866182398, 25.625044776581777 3.1121979531508885 M25.784892702509367 1.8724490051997846 C25.738229919047626 2.2343563391202035, 25.69156713558589 2.5962636730406223, 25.625044776581777 3.1121979531508885 M25.625044776581777 3.1121979531508885 C25.539241923013495 3.5527774717844913, 25.453439069445217 3.9933569904180937, 25.38609428754556 4.339158212148129 M25.625044776581777 3.1121979531508885 C25.53890404871589 3.554512384892956, 25.452763320849996 3.9968268166350236, 25.38609428754556 4.339158212148129 M25.38609428754556 4.339158212148129 C25.300531489997404 4.665446242350283, 25.214968692449247 4.991734272552438, 25.069023134214884 5.548287939305125 M25.38609428754556 4.339158212148129 C25.268764566166375 4.786587290789881, 25.151434844787186 5.234016369431634, 25.069023134214884 5.548287939305125 M25.069023134214884 5.548287939305125 C24.922626841691642 5.989210247303531, 24.776230549168396 6.430132555301937, 24.67513422997033 6.734618561215495 M25.069023134214884 5.548287939305125 C24.989335958866057 5.788293015028612, 24.909648783517227 6.028298090752098, 24.67513422997033 6.734618561215495 M24.67513422997033 6.734618561215495 C24.57260998038862 6.987855439853836, 24.47008573080691 7.241092318492177, 24.206046148808344 7.893275190886679 M24.67513422997033 6.734618561215495 C24.51543809804419 7.129071094587734, 24.355741966118046 7.523523627959972, 24.206046148808344 7.893275190886679 M24.206046148808344 7.893275190886679 C24.07351009746386 8.168489137320712, 23.940974046119372 8.443703083754746, 23.663686474273504 9.019496659696284 M24.206046148808344 7.893275190886679 C24.05224457007608 8.212647459950828, 23.898442991343817 8.532019729014976, 23.663686474273504 9.019496659696284 M23.663686474273504 9.019496659696284 C23.531117172226253 9.254886879578667, 23.398547870179005 9.49027709946105, 23.05028387860425 10.108655082055236 M23.663686474273504 9.019496659696284 C23.452926269728717 9.393722744650484, 23.24216606518393 9.767948829604686, 23.05028387860425 10.108655082055236 M23.05028387860425 10.108655082055236 C22.879810028646816 10.370548694228182, 22.709336178689384 10.632442306401128, 22.36835896464064 11.156274872382301 M23.05028387860425 10.108655082055236 C22.824375804844195 10.45571054816236, 22.59846773108414 10.802766014269483, 22.36835896464064 11.156274872382301 M22.36835896464064 11.156274872382301 C22.109852404345 11.502650112746343, 21.851345844049355 11.849025353110385, 21.620713908126582 12.158051136245302 M22.36835896464064 11.156274872382301 C22.11775720048584 11.492058406059357, 21.86715543633104 11.827841939736413, 21.620713908126582 12.158051136245302 M21.620713908126582 12.158051136245302 C21.389691057102212 12.429423722631146, 21.158668206077845 12.70079630901699, 20.81042094296866 13.10986736009567 M21.620713908126582 12.158051136245302 C21.373358426030325 12.44860896044122, 21.12600294393407 12.73916678463714, 20.81042094296866 13.10986736009567 M20.81042094296866 13.10986736009567 C20.498163247565174 13.432299067433341, 20.185905552161692 13.75473077477101, 19.94080973676799 14.007812326905684 M20.81042094296866 13.10986736009567 C20.50051375025447 13.429871980426784, 20.190606557540278 13.749876600757899, 19.94080973676799 14.007812326905684 M19.94080973676799 14.007812326905684 C19.75184520061006 14.179424918916666, 19.56288066445213 14.351037510927647, 19.015453708501887 14.848196188198111 M19.94080973676799 14.007812326905684 C19.599454065243375 14.317822516008198, 19.258098393718758 14.627832705110713, 19.015453708501887 14.848196188198111 M19.015453708501887 14.848196188198111 C18.66276832534608 15.129453395912662, 18.31008294219027 15.410710603627214, 18.038155344578715 15.627565626425152 M19.015453708501887 14.848196188198111 C18.78702511089781 15.03036191604709, 18.558596513293732 15.212527643896067, 18.038155344578715 15.627565626425152 M18.038155344578715 15.627565626425152 C17.79209281315315 15.79920819647232, 17.546030281727585 15.970850766519487, 17.012930573605708 16.34271804539089 M18.038155344578715 15.627565626425152 C17.816804772620994 15.781970203311037, 17.59545420066327 15.936374780196921, 17.012930573605708 16.34271804539089 M17.012930573605708 16.34271804539089 C16.630478128604565 16.57456296509062, 16.248025683603426 16.806407884790353, 15.943992264076787 16.990714730406093 M17.012930573605708 16.34271804539089 C16.60662192958445 16.589024733131204, 16.20031328556319 16.835331420871515, 15.943992264076787 16.990714730406093 M15.943992264076787 16.990714730406093 C15.701052104957688 17.11745645580793, 15.458111945838588 17.244198181209764, 14.835732912792386 17.56889292409717 M15.943992264076787 16.990714730406093 C15.69733761516406 17.11939430275402, 15.450682966251334 17.248073875101944, 14.835732912792386 17.56889292409717 M14.835732912792386 17.56889292409717 C14.390736993833816 17.765879417085202, 13.945741074875247 17.962865910073234, 13.692706595147804 18.07487676824742 M14.835732912792386 17.56889292409717 C14.398398054525671 17.76248809277421, 13.961063196258957 17.956083261451248, 13.692706595147804 18.07487676824742 M13.692706595147804 18.07487676824742 C13.316221471433726 18.213426773964535, 12.93973634771965 18.351976779681646, 12.519610251460616 18.506587066708033 M13.692706595147804 18.07487676824742 C13.304262912990426 18.21782763401537, 12.915819230833048 18.360778499783322, 12.519610251460616 18.506587066708033 M12.519610251460616 18.506587066708033 C12.196980790584464 18.602341797179477, 11.87435132970831 18.69809652765092, 11.321264386235413 18.86224982926107 M12.519610251460616 18.506587066708033 C12.252255888046106 18.58593643839777, 11.984901524631598 18.665285810087504, 11.321264386235413 18.86224982926107 M11.321264386235413 18.86224982926107 C11.07617047357515 18.918190915438526, 10.831076560914887 18.974132001615978, 10.102593259676766 19.140403561325773 M11.321264386235413 18.86224982926107 C11.025959109617299 18.929651331602134, 10.730653832999185 18.997052833943194, 10.102593259676766 19.140403561325773 M10.102593259676766 19.140403561325773 C9.72640342305354 19.20122301671526, 9.350213586430316 19.26204247210475, 8.868604652847878 19.3399052695533 M10.102593259676766 19.140403561325773 C9.708685658850026 19.20408748742837, 9.314778058023284 19.267771413530973, 8.868604652847878 19.3399052695533 M8.868604652847878 19.3399052695533 C8.579625248531196 19.367782765139147, 8.290645844214511 19.395660260724995, 7.624369289623901 19.45993515863156 M8.868604652847878 19.3399052695533 C8.597448200740091 19.366063406374792, 8.326291748632306 19.392221543196285, 7.624369289623901 19.45993515863156 M7.624369289623901 19.45993515863156 C7.215945221015008 19.473032523562622, 6.807521152406115 19.486129888493686, 6.3750000000000036 19.5 M7.624369289623901 19.45993515863156 C7.308413818049456 19.470067235634936, 6.9924583464750105 19.48019931263831, 6.3750000000000036 19.5 M6.3750000000000036 19.5 C6.375000000000002 19.5, 6.375000000000001 19.5, 6.375 19.5 M6.3750000000000036 19.5 C6.375000000000003 19.5, 6.375000000000002 19.5, 6.375 19.5 M6.375 19.5 C3.7357064998719394 19.5, 1.0964129997438787 19.5, -6.3749999999999964 19.5 M6.375 19.5 C1.830106182207504 19.5, -2.714787635584992 19.5, -6.3749999999999964 19.5 M-6.3749999999999964 19.5 C-6.718366026703646 19.488988919845042, -7.061732053407296 19.47797783969008, -7.6243692896238935 19.45993515863156 M-6.3749999999999964 19.5 C-6.666151434861918 19.490663340175868, -6.957302869723841 19.481326680351735, -7.6243692896238935 19.45993515863156 M-7.6243692896238935 19.45993515863156 C-8.047986929255476 19.41906927441105, -8.47160456888706 19.378203390190542, -8.868604652847871 19.3399052695533 M-7.6243692896238935 19.45993515863156 C-7.896718044484053 19.4336620017975, -8.169066799344211 19.40738884496344, -8.868604652847871 19.3399052695533 M-8.868604652847871 19.3399052695533 C-9.306289850857423 19.269143721038517, -9.743975048866975 19.198382172523736, -10.102593259676759 19.140403561325773 M-8.868604652847871 19.3399052695533 C-9.142234984828663 19.29566683951356, -9.415865316809453 19.251428409473824, -10.102593259676759 19.140403561325773 M-10.102593259676759 19.140403561325773 C-10.392521725520455 19.074229280957002, -10.682450191364152 19.008055000588232, -11.321264386235388 18.862249829261074 M-10.102593259676759 19.140403561325773 C-10.502946334753457 19.049025584487488, -10.903299409830154 18.9576476076492, -11.321264386235388 18.862249829261074 M-11.321264386235388 18.862249829261074 C-11.726741097639295 18.741906469707086, -12.1322178090432 18.621563110153097, -12.519610251460593 18.506587066708043 M-11.321264386235388 18.862249829261074 C-11.56900152819573 18.78872274592604, -11.816738670156074 18.715195662591004, -12.519610251460593 18.506587066708043 M-12.519610251460593 18.506587066708043 C-12.754309153723117 18.420215701142563, -12.989008055985641 18.333844335577087, -13.692706595147797 18.074876768247425 M-12.519610251460593 18.506587066708043 C-12.886138562241214 18.37170126019021, -13.252666873021838 18.236815453672378, -13.692706595147797 18.074876768247425 M-13.692706595147797 18.074876768247425 C-14.1443956802524 17.874927409152264, -14.596084765357002 17.674978050057103, -14.83573291279238 17.568892924097174 M-13.692706595147797 18.074876768247425 C-13.945885065088303 17.962802169877232, -14.19906353502881 17.85072757150704, -14.83573291279238 17.568892924097174 M-14.83573291279238 17.568892924097174 C-15.234501896167258 17.360855400894224, -15.633270879542135 17.152817877691277, -15.94399226407678 16.990714730406097 M-14.83573291279238 17.568892924097174 C-15.14725189823236 17.40637366893057, -15.45877088367234 17.243854413763966, -15.94399226407678 16.990714730406097 M-15.94399226407678 16.990714730406097 C-16.16070779483884 16.859340502096316, -16.377423325600898 16.72796627378653, -17.012930573605686 16.3427180453909 M-15.94399226407678 16.990714730406097 C-16.367858186710325 16.733764717192994, -16.791724109343875 16.476814703979887, -17.012930573605686 16.3427180453909 M-17.012930573605686 16.3427180453909 C-17.375181084638605 16.090027770466218, -17.73743159567152 15.837337495541536, -18.038155344578712 15.627565626425156 M-17.012930573605686 16.3427180453909 C-17.38824944728151 16.080911846406828, -17.763568320957337 15.819105647422754, -18.038155344578712 15.627565626425156 M-18.038155344578712 15.627565626425156 C-18.314235871689803 15.407398752865433, -18.590316398800894 15.18723187930571, -19.01545370850187 14.848196188198125 M-18.038155344578712 15.627565626425156 C-18.393253668902098 15.344384162340521, -18.748351993225484 15.061202698255888, -19.01545370850187 14.848196188198125 M-19.01545370850187 14.848196188198125 C-19.3376465939828 14.555589134360952, -19.65983947946373 14.262982080523779, -19.940809736767974 14.007812326905697 M-19.01545370850187 14.848196188198125 C-19.317763368354417 14.573646553795326, -19.620073028206964 14.299096919392529, -19.940809736767974 14.007812326905697 M-19.940809736767974 14.007812326905697 C-20.263595062906386 13.674509976499657, -20.5863803890448 13.341207626093617, -20.810420942968655 13.109867360095677 M-19.940809736767974 14.007812326905697 C-20.17529618254077 13.765685819950058, -20.40978262831356 13.523559312994418, -20.810420942968655 13.109867360095677 M-20.810420942968655 13.109867360095677 C-20.98784290125174 12.901457432300946, -21.165264859534823 12.693047504506213, -21.62071390812658 12.158051136245307 M-20.810420942968655 13.109867360095677 C-21.002205124973408 12.884586747083791, -21.193989306978164 12.659306134071903, -21.62071390812658 12.158051136245307 M-21.62071390812658 12.158051136245307 C-21.80135206380793 11.916012464106819, -21.981990219489283 11.673973791968333, -22.368358964640635 11.156274872382316 M-21.62071390812658 12.158051136245307 C-21.813186553127107 11.90015532656328, -22.005659198127635 11.642259516881253, -22.368358964640635 11.156274872382316 M-22.368358964640635 11.156274872382316 C-22.552078741308808 10.874031959752323, -22.735798517976978 10.591789047122331, -23.050283878604244 10.108655082055249 M-22.368358964640635 11.156274872382316 C-22.54903421428638 10.878709170828746, -22.729709463932124 10.601143469275177, -23.050283878604244 10.108655082055249 M-23.050283878604244 10.108655082055249 C-23.230515955919714 9.788634778304793, -23.41074803323518 9.468614474554336, -23.6636864742735 9.019496659696289 M-23.050283878604244 10.108655082055249 C-23.27457067088112 9.710411170867188, -23.498857463157993 9.312167259679129, -23.6636864742735 9.019496659696289 M-23.6636864742735 9.019496659696289 C-23.78009586497495 8.777770069142782, -23.8965052556764 8.536043478589276, -24.20604614880834 7.893275190886686 M-23.6636864742735 9.019496659696289 C-23.778785663329934 8.78049073089248, -23.893884852386368 8.54148480208867, -24.20604614880834 7.893275190886686 M-24.20604614880834 7.893275190886686 C-24.383136553282426 7.4558584680256415, -24.560226957756516 7.018441745164596, -24.675134229970325 6.73461856121551 M-24.20604614880834 7.893275190886686 C-24.31409798602268 7.626385063927112, -24.42214982323702 7.359494936967538, -24.675134229970325 6.73461856121551 M-24.675134229970325 6.73461856121551 C-24.824215523133603 6.285609459086071, -24.973296816296884 5.836600356956633, -25.06902313421488 5.5482879393051325 M-24.675134229970325 6.73461856121551 C-24.757486134422155 6.4865877460007075, -24.839838038873985 6.238556930785904, -25.06902313421488 5.5482879393051325 M-25.06902313421488 5.5482879393051325 C-25.142988619570403 5.266225486800389, -25.216954104925925 4.984163034295645, -25.386094287545557 4.339158212148136 M-25.06902313421488 5.5482879393051325 C-25.17171797075645 5.156668019348428, -25.27441280729802 4.765048099391722, -25.386094287545557 4.339158212148136 M-25.386094287545557 4.339158212148136 C-25.456890282951594 3.9756357384770715, -25.52768627835763 3.6121132648060073, -25.625044776581777 3.112197953150904 M-25.386094287545557 4.339158212148136 C-25.46562403199054 3.930789783040587, -25.545153776435527 3.522421353933038, -25.625044776581777 3.112197953150904 M-25.625044776581777 3.112197953150904 C-25.670413786461378 2.7603248716490567, -25.71578279634098 2.40845179014721, -25.784892702509364 1.872449005199809 M-25.625044776581777 3.112197953150904 C-25.67857691026193 2.697013295443093, -25.732109043942085 2.281828637735282, -25.784892702509364 1.872449005199809 M-25.784892702509364 1.872449005199809 C-25.805620270510744 1.5496004025865437, -25.826347838512127 1.2267517999732784, -25.864981215913414 0.6250057626472781 M-25.784892702509364 1.872449005199809 C-25.805962746121036 1.5442660685149343, -25.82703278973271 1.2160831318300596, -25.864981215913414 0.6250057626472781 M-25.864981215913414 0.6250057626472781 C-25.864981215913414 0.2031306614931654, -25.864981215913414 -0.21874443966094737, -25.864981215913414 -0.6250057626472687 M-25.864981215913414 0.6250057626472781 C-25.864981215913414 0.2398896715405226, -25.864981215913414 -0.14522641956623294, -25.864981215913414 -0.6250057626472687 M-25.864981215913414 -0.6250057626472687 C-25.834383722109532 -1.101586426495193, -25.80378622830565 -1.578167090343117, -25.784892702509367 -1.8724490051997822 M-25.864981215913414 -0.6250057626472687 C-25.834673614317023 -1.0970711213667315, -25.804366012720635 -1.5691364800861942, -25.784892702509367 -1.8724490051997822 M-25.784892702509367 -1.8724490051997822 C-25.745807728770462 -2.1755843433176767, -25.706722755031556 -2.4787196814355714, -25.625044776581777 -3.112197953150895 M-25.784892702509367 -1.8724490051997822 C-25.747849384530213 -2.1597496644155822, -25.710806066551058 -2.447050323631382, -25.625044776581777 -3.112197953150895 M-25.625044776581777 -3.112197953150895 C-25.569593951739744 -3.396926219178762, -25.514143126897707 -3.681654485206628, -25.38609428754556 -4.339158212148126 M-25.625044776581777 -3.112197953150895 C-25.572774641184385 -3.3805940511194867, -25.520504505786988 -3.6489901490880783, -25.38609428754556 -4.339158212148126 M-25.38609428754556 -4.339158212148126 C-25.321780758187177 -4.584413573251589, -25.25746722882879 -4.829668934355052, -25.069023134214884 -5.548287939305123 M-25.38609428754556 -4.339158212148126 C-25.289696661136457 -4.706764140641612, -25.19329903472735 -5.074370069135097, -25.069023134214884 -5.548287939305123 M-25.069023134214884 -5.548287939305123 C-24.95277106752313 -5.898420641929231, -24.836519000831377 -6.24855334455334, -24.675134229970332 -6.734618561215485 M-25.069023134214884 -5.548287939305123 C-24.938185522801017 -5.942349978741274, -24.80734791138715 -6.336412018177425, -24.675134229970332 -6.734618561215485 M-24.675134229970332 -6.734618561215485 C-24.567721439457884 -6.999930230466262, -24.460308648945436 -7.26524189971704, -24.206046148808344 -7.893275190886676 M-24.675134229970332 -6.734618561215485 C-24.579458294090962 -6.970939972605911, -24.48378235821159 -7.207261383996337, -24.206046148808344 -7.893275190886676 M-24.206046148808344 -7.893275190886676 C-24.057035800196346 -8.202698368090191, -23.90802545158435 -8.512121545293706, -23.663686474273504 -9.019496659696282 M-24.206046148808344 -7.893275190886676 C-24.025931895826627 -8.267286291030855, -23.84581764284491 -8.641297391175033, -23.663686474273504 -9.019496659696282 M-23.663686474273504 -9.019496659696282 C-23.469103306242996 -9.364998778216806, -23.274520138212488 -9.710500896737331, -23.050283878604247 -10.108655082055243 M-23.663686474273504 -9.019496659696282 C-23.44109434081924 -9.414731532541982, -23.218502207364978 -9.809966405387682, -23.050283878604247 -10.108655082055243 M-23.050283878604247 -10.108655082055243 C-22.821605074510742 -10.459967133999816, -22.59292627041724 -10.811279185944388, -22.36835896464064 -11.156274872382308 M-23.050283878604247 -10.108655082055243 C-22.853966366925352 -10.410251498627215, -22.65764885524646 -10.711847915199188, -22.36835896464064 -11.156274872382308 M-22.36835896464064 -11.156274872382308 C-22.094692215170348 -11.522963385118736, -21.821025465700053 -11.889651897855163, -21.620713908126586 -12.158051136245302 M-22.36835896464064 -11.156274872382308 C-22.14795551792208 -11.451595411818115, -21.92755207120352 -11.746915951253923, -21.620713908126586 -12.158051136245302 M-21.620713908126586 -12.158051136245302 C-21.43916303038178 -12.371311127781945, -21.257612152636973 -12.58457111931859, -20.810420942968662 -13.10986736009567 M-21.620713908126586 -12.158051136245302 C-21.296721032352153 -12.538631603846843, -20.97272815657772 -12.919212071448385, -20.810420942968662 -13.10986736009567 M-20.810420942968662 -13.10986736009567 C-20.596663391058982 -13.330589582263807, -20.382905839149306 -13.551311804431943, -19.940809736767996 -14.007812326905677 M-20.810420942968662 -13.10986736009567 C-20.57224516586244 -13.35580340455281, -20.334069388756216 -13.601739449009951, -19.940809736767996 -14.007812326905677 M-19.940809736767996 -14.007812326905677 C-19.673075968843946 -14.250961051086984, -19.405342200919893 -14.49410977526829, -19.015453708501887 -14.848196188198107 M-19.940809736767996 -14.007812326905677 C-19.585471056494747 -14.33052151458356, -19.2301323762215 -14.653230702261444, -19.015453708501887 -14.848196188198107 M-19.015453708501887 -14.848196188198107 C-18.81333801153905 -15.009378078001394, -18.611222314576207 -15.17055996780468, -18.03815534457872 -15.627565626425149 M-19.015453708501887 -14.848196188198107 C-18.682073356180627 -15.114058147550553, -18.348693003859367 -15.379920106902999, -18.03815534457872 -15.627565626425149 M-18.03815534457872 -15.627565626425149 C-17.812337778967485 -15.785086184710682, -17.586520213356255 -15.942606742996217, -17.01293057360571 -16.342718045390885 M-18.03815534457872 -15.627565626425149 C-17.639499470894652 -15.905650706372525, -17.240843597210585 -16.1837357863199, -17.01293057360571 -16.342718045390885 M-17.01293057360571 -16.342718045390885 C-16.632158234239082 -16.573544475181578, -16.251385894872453 -16.804370904972274, -15.943992264076789 -16.99071473040609 M-17.01293057360571 -16.342718045390885 C-16.760718260350107 -16.495610631850504, -16.5085059470945 -16.648503218310122, -15.943992264076789 -16.99071473040609 M-15.943992264076789 -16.99071473040609 C-15.644409289025532 -17.147006976598277, -15.344826313974277 -17.303299222790464, -14.83573291279239 -17.56889292409717 M-15.943992264076789 -16.99071473040609 C-15.610962896063315 -17.16445593838323, -15.277933528049841 -17.33819714636037, -14.83573291279239 -17.56889292409717 M-14.83573291279239 -17.56889292409717 C-14.533193124579986 -17.70281831381485, -14.230653336367581 -17.83674370353253, -13.692706595147806 -18.07487676824742 M-14.83573291279239 -17.56889292409717 C-14.527726588667289 -17.705238187104374, -14.219720264542188 -17.841583450111578, -13.692706595147806 -18.07487676824742 M-13.692706595147806 -18.07487676824742 C-13.316471983294422 -18.213334583284094, -12.940237371441038 -18.351792398320764, -12.519610251460618 -18.506587066708033 M-13.692706595147806 -18.07487676824742 C-13.313666009791298 -18.214367207471376, -12.93462542443479 -18.35385764669533, -12.519610251460618 -18.506587066708033 M-12.519610251460618 -18.506587066708033 C-12.073616444787195 -18.63895568745944, -11.627622638113774 -18.77132430821085, -11.321264386235413 -18.862249829261067 M-12.519610251460618 -18.506587066708033 C-12.254759968347805 -18.58519324050841, -11.989909685234991 -18.663799414308787, -11.321264386235413 -18.862249829261067 M-11.321264386235413 -18.862249829261067 C-10.927431182253425 -18.952139688068122, -10.533597978271436 -19.042029546875177, -10.102593259676768 -19.140403561325773 M-11.321264386235413 -18.862249829261067 C-11.00985781262082 -18.933326347570794, -10.698451239006229 -19.00440286588052, -10.102593259676768 -19.140403561325773 M-10.102593259676768 -19.140403561325773 C-9.629590103322684 -19.21687504345084, -9.156586946968599 -19.293346525575906, -8.86860465284788 -19.3399052695533 M-10.102593259676768 -19.140403561325773 C-9.82217031850269 -19.18574016774241, -9.541747377328614 -19.231076774159046, -8.86860465284788 -19.3399052695533 M-8.86860465284788 -19.3399052695533 C-8.502368110331162 -19.375235668346, -8.136131567814445 -19.410566067138706, -7.624369289623903 -19.45993515863156 M-8.86860465284788 -19.3399052695533 C-8.569932565798075 -19.368717806585256, -8.27126047874827 -19.397530343617213, -7.624369289623903 -19.45993515863156 M-7.624369289623903 -19.45993515863156 C-7.184618361668668 -19.474037114967828, -6.7448674337134324 -19.488139071304097, -6.375000000000006 -19.5 M-7.624369289623903 -19.45993515863156 C-7.340092807456604 -19.46905135210406, -7.055816325289306 -19.478167545576557, -6.375000000000006 -19.5 M-6.375000000000006 -19.5 C-6.375000000000004 -19.5, -6.375000000000003 -19.5, -6.375 -19.5 M-6.375000000000006 -19.5 C-6.3750000000000036 -19.5, -6.375000000000001 -19.5, -6.375 -19.5" stroke="#9370DB" stroke-width="1.3" fill="none" stroke-dasharray="0 0" style=""/></g><g class="label" style="" transform="translate(-13.5, -12)"><rect/><foreignObject width="27" height="24"><div xmlns="http://www.w3.org/1999/xhtml" style="display: table-cell; white-space: nowrap; line-height: 1.5; max-width: 200px; text-align: center;"><span class="nodeLabel"><p>You</p></span></div></foreignObject></g></g><g class="node default" id="mermaid-0-flowchart-B-1" data-look="classic" transform="translate(215.99558639526367, 152.91015625)"><rect class="basic label-container" style="" x="-106.265625" y="-27" width="212.53125" height="54"/><g class="label" style="" transform="translate(-76.265625, -12)"><rect/><foreignObject width="152.53125" height="24"><div xmlns="http://www.w3.org/1999/xhtml" style="display: table-cell; white-space: nowrap; line-height: 1.5; max-width: 200px; text-align: center;"><span class="nodeLabel"><p>tools + user message</p></span></div></foreignObject></g></g><g class="node default" id="mermaid-0-flowchart-C-3" data-look="classic" transform="translate(427.6127738952637, 152.91015625)"><rect class="basic label-container" style="" x="-55.3515625" y="-27" width="110.703125" height="54"/><g class="label" style="" transform="translate(-25.3515625, -12)"><rect/><foreignObject width="50.703125" height="24"><div xmlns="http://www.w3.org/1999/xhtml" style="display: table-cell; white-space: nowrap; line-height: 1.5; max-width: 200px; text-align: center;"><span class="nodeLabel"><p>Claude</p></span></div></foreignObject></g></g><g class="node default" id="mermaid-0-flowchart-D-5" data-look="classic" transform="translate(882.6596488952637, 35)"><rect class="basic label-container" style="" x="-81.1484375" y="-27" width="162.296875" height="54"/><g class="label" style="" transform="translate(-51.1484375, -12)"><rect/><foreignObject width="102.296875" height="24"><div xmlns="http://www.w3.org/1999/xhtml" style="display: table-cell; white-space: nowrap; line-height: 1.5; max-width: 200px; text-align: center;"><span class="nodeLabel"><p>tool_use block</p></span></div></foreignObject></g></g><g class="node default" id="mermaid-0-flowchart-E-7" data-look="classic" transform="translate(1109.7846488952637, 35)"><rect class="basic label-container" style="" x="-95.9765625" y="-27" width="191.953125" height="54"/><g class="label" style="" transform="translate(-65.9765625, -12)"><rect/><foreignObject width="131.953125" height="24"><div xmlns="http://www.w3.org/1999/xhtml" style="display: table-cell; white-space: nowrap; line-height: 1.5; max-width: 200px; text-align: center;"><span class="nodeLabel"><p>Your app executes</p></span></div></foreignObject></g></g><g class="node default" id="mermaid-0-flowchart-F-9" data-look="classic" transform="translate(1322.6752738952637, 152.91015625)"><rect class="basic label-container" style="" x="-66.9140625" y="-27" width="133.828125" height="54"/><g class="label" style="" transform="translate(-36.9140625, -12)"><rect/><foreignObject width="73.828125" height="24"><div xmlns="http://www.w3.org/1999/xhtml" style="display: table-cell; white-space: nowrap; line-height: 1.5; max-width: 200px; text-align: center;"><span class="nodeLabel"><p>tool_result</p></span></div></foreignObject></g></g><g class="node default" id="mermaid-0-flowchart-G-13" data-look="classic" transform="translate(629.7846488952637, 152.91015625)"><polygon points="96.8203125,0 193.640625,-96.8203125 96.8203125,-193.640625 0,-96.8203125" class="label-container" transform="translate(-96.3203125, 96.8203125)"/><g class="label" style="" transform="translate(-69.8203125, -12)"><rect/><foreignObject width="139.640625" height="24"><div xmlns="http://www.w3.org/1999/xhtml" style="display: table-cell; white-space: nowrap; line-height: 1.5; max-width: 200px; text-align: center;"><span class="nodeLabel"><p>More calls needed?</p></span></div></foreignObject></g></g><g class="node default" id="mermaid-0-flowchart-H-17" data-look="classic" transform="translate(882.6596488952637, 187.8203125)"><rect class="basic label-container" style="" x="-72.6875" y="-27" width="145.375" height="54"/><g class="label" style="" transform="translate(-42.6875, -12)"><rect/><foreignObject width="85.375" height="24"><div xmlns="http://www.w3.org/1999/xhtml" style="display: table-cell; white-space: nowrap; line-height: 1.5; max-width: 200px; text-align: center;"><span class="nodeLabel"><p>final answer</p></span></div></foreignObject></g></g></g></g></g><defs><filter id="mermaid-0-drop-shadow" height="130%" width="130%"><feDropShadow dx="4" dy="4" stdDeviation="0" flood-opacity="0.06" flood-color="#000000"/></filter></defs><defs><filter id="mermaid-0-drop-shadow-small" height="150%" width="150%"><feDropShadow dx="2" dy="2" stdDeviation="0" flood-opacity="0.06" flood-color="#000000"/></filter></defs></svg>